<svg width="468" height="340" viewBox="0 0 468 340" fill="none" xmlns="http://www.w3.org/2000/svg">
<path d="M272.306 59.9381C281.067 59.9381 288.17 52.8355 288.17 44.0741C288.17 35.3127 281.067 28.2102 272.306 28.2102C263.545 28.2102 256.442 35.3127 256.442 44.0741C256.442 52.8355 263.545 59.9381 272.306 59.9381Z" fill="#F2F2F2"/>
<path d="M395.368 295.377C418.947 277.417 430.21 247.236 423.159 218.446C422.984 217.731 422.799 217.017 422.604 216.305C417.93 199.216 406.366 182.974 389.511 177.513C375.359 172.928 359.911 176.454 345.147 174.631C316.164 171.052 293.694 147.601 277.884 123.048C262.074 98.4951 249.923 71.0116 228.914 50.7272C194.285 17.2919 137.796 10.0933 94.8609 31.8572C51.9257 53.6211 24.5764 101.906 25.7428 150.028C26.9092 198.151 55.4772 244.159 96.965 268.569C112.206 277.536 129.834 283.889 147.377 281.666C162.598 279.737 176.429 271.558 191.58 269.13C215.399 265.312 239.067 276.082 259.669 288.632C280.272 301.182 300.172 316.057 323.583 321.875C346.316 327.525 374.479 311.287 395.368 295.377Z" fill="#F2F2F2"/>
<path d="M361.489 32.8677C360.972 32.5231 360.449 32.1963 359.932 31.8636C344.99 22.3074 328.975 14.544 312.217 8.73382L308.331 62.3369H283.698V0.90903C282.148 0.588196 280.585 0.285186 279.022 0V62.3369H249.749C233.634 62.3369 218.179 55.9352 206.784 44.54C195.389 33.1449 188.987 17.6897 188.987 1.57453V1.57448C187.418 1.91314 185.862 2.27556 184.305 2.66175V62.337H160.462L156.761 11.2233C139.54 17.8279 123.19 26.5133 108.077 37.0861C107.816 37.2643 107.554 37.4485 107.299 37.6268C105.986 38.5477 104.691 39.4864 103.401 40.437V244.933H173.67L172.428 227.733L165.596 133.295H303.192L296.359 227.733L295.118 244.933H364.608V34.9353C363.574 34.2342 362.534 33.545 361.489 32.8677ZM184.305 117.699H164.467L160.801 67.0187H184.305V117.699ZM279.023 117.699H245.703V116.695C245.703 116.212 245.608 115.734 245.423 115.288C245.238 114.842 244.967 114.437 244.626 114.096C244.284 113.755 243.879 113.485 243.433 113.301C242.986 113.116 242.508 113.022 242.026 113.023H227.54C227.058 113.023 226.581 113.117 226.135 113.302C225.69 113.486 225.285 113.757 224.944 114.098C224.603 114.439 224.332 114.844 224.148 115.289C223.963 115.735 223.869 116.212 223.869 116.695V117.699H188.987V67.0187H279.023V117.699ZM283.698 117.699V67.0187H307.993L304.327 117.699H283.698Z" fill="#012447"/>
<path d="M0 258.029C5.16143 264.144 10.7441 269.892 16.7072 275.229L450.772 275.823C456.735 270.486 462.318 264.739 467.479 258.623L0 258.029Z" fill="#012447"/>
<path d="M294.354 202.952V253.872C294.354 254.521 294.612 255.143 295.071 255.602C295.53 256.061 296.152 256.319 296.801 256.32H372.259C372.908 256.319 373.53 256.061 373.989 255.602C374.448 255.143 374.706 254.521 374.706 253.872V202.952C374.705 202.304 374.446 201.683 373.988 201.224C373.529 200.766 372.907 200.509 372.259 200.508H296.801C296.152 200.509 295.531 200.766 295.072 201.225C294.613 201.683 294.355 202.304 294.354 202.952Z" fill="#012447"/>
<path d="M296.124 203.586V253.244C296.125 253.591 296.262 253.923 296.508 254.168C296.753 254.414 297.085 254.552 297.432 254.552H371.631C371.978 254.552 372.31 254.414 372.555 254.168C372.8 253.923 372.938 253.591 372.939 253.244V203.586C372.939 203.239 372.801 202.906 372.556 202.66C372.311 202.414 371.978 202.276 371.631 202.275H297.432C297.085 202.276 296.752 202.414 296.507 202.66C296.262 202.906 296.124 203.239 296.124 203.586Z" fill="#54A8FC"/>
<path d="M292.775 263.803C292.914 263.976 293.089 264.116 293.289 264.212C293.489 264.308 293.708 264.357 293.93 264.356H374.728C374.949 264.355 375.167 264.306 375.367 264.211C375.566 264.115 375.742 263.977 375.881 263.805C376.02 263.634 376.119 263.433 376.171 263.218C376.223 263.004 376.227 262.78 376.181 262.564L374.927 256.606C374.875 256.363 374.763 256.137 374.602 255.949C374.44 255.76 374.234 255.615 374.001 255.526C373.833 255.46 373.654 255.427 373.474 255.427H295.179C294.999 255.427 294.82 255.46 294.652 255.526C294.42 255.615 294.213 255.76 294.052 255.949C293.89 256.137 293.778 256.363 293.726 256.606L292.472 262.564C292.427 262.78 292.431 263.003 292.484 263.218C292.536 263.432 292.636 263.632 292.775 263.803Z" fill="#0D0147"/>
<path d="M370.702 257.993H372.61C372.77 257.993 372.9 257.863 372.9 257.703V256.79C372.9 256.629 372.77 256.5 372.61 256.5H370.702C370.541 256.5 370.412 256.629 370.412 256.79V257.703C370.412 257.863 370.541 257.993 370.702 257.993Z" fill="#012447"/>
<path d="M365.725 257.993H367.633C367.793 257.993 367.923 257.863 367.923 257.703V256.79C367.923 256.629 367.793 256.5 367.633 256.5H365.725C365.564 256.5 365.435 256.629 365.435 256.79V257.703C365.435 257.863 365.564 257.993 365.725 257.993Z" fill="#012447"/>
<path d="M360.747 257.993H362.656C362.816 257.993 362.946 257.863 362.946 257.703V256.79C362.946 256.629 362.816 256.5 362.656 256.5H360.747C360.587 256.5 360.457 256.629 360.457 256.79V257.703C360.457 257.863 360.587 257.993 360.747 257.993Z" fill="#012447"/>
<path d="M355.77 257.993H357.679C357.839 257.993 357.969 257.863 357.969 257.703V256.79C357.969 256.629 357.839 256.5 357.679 256.5H355.77C355.61 256.5 355.48 256.629 355.48 256.79V257.703C355.48 257.863 355.61 257.993 355.77 257.993Z" fill="#012447"/>
<path d="M350.793 257.993H352.702C352.862 257.993 352.992 257.863 352.992 257.703V256.79C352.992 256.629 352.862 256.5 352.702 256.5H350.793C350.633 256.5 350.503 256.629 350.503 256.79V257.703C350.503 257.863 350.633 257.993 350.793 257.993Z" fill="#012447"/>
<path d="M345.816 257.993H347.725C347.885 257.993 348.015 257.863 348.015 257.703V256.79C348.015 256.629 347.885 256.5 347.725 256.5H345.816C345.656 256.5 345.526 256.629 345.526 256.79V257.703C345.526 257.863 345.656 257.993 345.816 257.993Z" fill="#012447"/>
<path d="M340.839 257.993H342.748C342.908 257.993 343.038 257.863 343.038 257.703V256.79C343.038 256.629 342.908 256.5 342.748 256.5H340.839C340.679 256.5 340.549 256.629 340.549 256.79V257.703C340.549 257.863 340.679 257.993 340.839 257.993Z" fill="#012447"/>
<path d="M335.862 257.993H337.77C337.931 257.993 338.061 257.863 338.061 257.703V256.79C338.061 256.629 337.931 256.5 337.77 256.5H335.862C335.702 256.5 335.572 256.629 335.572 256.79V257.703C335.572 257.863 335.702 257.993 335.862 257.993Z" fill="#012447"/>
<path d="M330.885 257.993H332.793C332.954 257.993 333.083 257.863 333.083 257.703V256.79C333.083 256.629 332.954 256.5 332.793 256.5H330.885C330.725 256.5 330.595 256.629 330.595 256.79V257.703C330.595 257.863 330.725 257.993 330.885 257.993Z" fill="#012447"/>
<path d="M325.908 257.993H327.816C327.976 257.993 328.106 257.863 328.106 257.703V256.79C328.106 256.629 327.976 256.5 327.816 256.5H325.908C325.748 256.5 325.618 256.629 325.618 256.79V257.703C325.618 257.863 325.748 257.993 325.908 257.993Z" fill="#012447"/>
<path d="M320.931 257.993H322.839C322.999 257.993 323.129 257.863 323.129 257.703V256.79C323.129 256.629 322.999 256.5 322.839 256.5H320.931C320.77 256.5 320.641 256.629 320.641 256.79V257.703C320.641 257.863 320.77 257.993 320.931 257.993Z" fill="#012447"/>
<path d="M315.954 257.993H317.862C318.022 257.993 318.152 257.863 318.152 257.703V256.79C318.152 256.629 318.022 256.5 317.862 256.5H315.954C315.793 256.5 315.664 256.629 315.664 256.79V257.703C315.664 257.863 315.793 257.993 315.954 257.993Z" fill="#012447"/>
<path d="M310.977 257.993H312.885C313.045 257.993 313.175 257.863 313.175 257.703V256.79C313.175 256.629 313.045 256.5 312.885 256.5H310.977C310.816 256.5 310.687 256.629 310.687 256.79V257.703C310.687 257.863 310.816 257.993 310.977 257.993Z" fill="#012447"/>
<path d="M305.999 257.993H307.908C308.068 257.993 308.198 257.863 308.198 257.703V256.79C308.198 256.629 308.068 256.5 307.908 256.5H305.999C305.839 256.5 305.709 256.629 305.709 256.79V257.703C305.709 257.863 305.839 257.993 305.999 257.993Z" fill="#012447"/>
<path d="M301.022 257.993H302.931C303.091 257.993 303.221 257.863 303.221 257.703V256.79C303.221 256.629 303.091 256.5 302.931 256.5H301.022C300.862 256.5 300.732 256.629 300.732 256.79V257.703C300.732 257.863 300.862 257.993 301.022 257.993Z" fill="#012447"/>
<path d="M296.045 257.993H297.954C298.114 257.993 298.244 257.863 298.244 257.703V256.79C298.244 256.629 298.114 256.5 297.954 256.5H296.045C295.885 256.5 295.755 256.629 295.755 256.79V257.703C295.755 257.863 295.885 257.993 296.045 257.993Z" fill="#012447"/>
<path d="M370.76 260.481H372.669C372.829 260.481 372.959 260.351 372.959 260.191V259.278C372.959 259.118 372.829 258.988 372.669 258.988H370.76C370.6 258.988 370.47 259.118 370.47 259.278V260.191C370.47 260.351 370.6 260.481 370.76 260.481Z" fill="#012447"/>
<path d="M365.783 260.481H367.692C367.852 260.481 367.982 260.351 367.982 260.191V259.278C367.982 259.118 367.852 258.988 367.692 258.988H365.783C365.623 258.988 365.493 259.118 365.493 259.278V260.191C365.493 260.351 365.623 260.481 365.783 260.481Z" fill="#012447"/>
<path d="M360.806 260.481H362.715C362.875 260.481 363.005 260.351 363.005 260.191V259.278C363.005 259.118 362.875 258.988 362.715 258.988H360.806C360.646 258.988 360.516 259.118 360.516 259.278V260.191C360.516 260.351 360.646 260.481 360.806 260.481Z" fill="#012447"/>
<path d="M355.829 260.481H357.738C357.898 260.481 358.028 260.351 358.028 260.191V259.278C358.028 259.118 357.898 258.988 357.738 258.988H355.829C355.669 258.988 355.539 259.118 355.539 259.278V260.191C355.539 260.351 355.669 260.481 355.829 260.481Z" fill="#012447"/>
<path d="M350.852 260.481H352.76C352.921 260.481 353.05 260.351 353.05 260.191V259.278C353.05 259.118 352.921 258.988 352.76 258.988H350.852C350.692 258.988 350.562 259.118 350.562 259.278V260.191C350.562 260.351 350.692 260.481 350.852 260.481Z" fill="#012447"/>
<path d="M345.875 260.481H347.783C347.943 260.481 348.073 260.351 348.073 260.191V259.278C348.073 259.118 347.943 258.988 347.783 258.988H345.875C345.715 258.988 345.585 259.118 345.585 259.278V260.191C345.585 260.351 345.715 260.481 345.875 260.481Z" fill="#012447"/>
<path d="M340.898 260.481H342.806C342.966 260.481 343.096 260.351 343.096 260.191V259.278C343.096 259.118 342.966 258.988 342.806 258.988H340.898C340.738 258.988 340.608 259.118 340.608 259.278V260.191C340.608 260.351 340.738 260.481 340.898 260.481Z" fill="#012447"/>
<path d="M335.921 260.481H337.829C337.989 260.481 338.119 260.351 338.119 260.191V259.278C338.119 259.118 337.989 258.988 337.829 258.988H335.921C335.761 258.988 335.631 259.118 335.631 259.278V260.191C335.631 260.351 335.761 260.481 335.921 260.481Z" fill="#012447"/>
<path d="M330.944 260.481H332.852C333.012 260.481 333.142 260.351 333.142 260.191V259.278C333.142 259.118 333.012 258.988 332.852 258.988H330.944C330.784 258.988 330.654 259.118 330.654 259.278V260.191C330.654 260.351 330.784 260.481 330.944 260.481Z" fill="#012447"/>
<path d="M325.967 260.481H327.875C328.035 260.481 328.165 260.351 328.165 260.191V259.278C328.165 259.118 328.035 258.988 327.875 258.988H325.967C325.806 258.988 325.677 259.118 325.677 259.278V260.191C325.677 260.351 325.806 260.481 325.967 260.481Z" fill="#012447"/>
<path d="M320.99 260.481H322.898C323.058 260.481 323.188 260.351 323.188 260.191V259.278C323.188 259.118 323.058 258.988 322.898 258.988H320.99C320.829 258.988 320.699 259.118 320.699 259.278V260.191C320.699 260.351 320.829 260.481 320.99 260.481Z" fill="#012447"/>
<path d="M316.012 260.481H317.921C318.081 260.481 318.211 260.351 318.211 260.191V259.278C318.211 259.118 318.081 258.988 317.921 258.988H316.012C315.852 258.988 315.722 259.118 315.722 259.278V260.191C315.722 260.351 315.852 260.481 316.012 260.481Z" fill="#012447"/>
<path d="M311.035 260.481H312.944C313.104 260.481 313.234 260.351 313.234 260.191V259.278C313.234 259.118 313.104 258.988 312.944 258.988H311.035C310.875 258.988 310.745 259.118 310.745 259.278V260.191C310.745 260.351 310.875 260.481 311.035 260.481Z" fill="#012447"/>
<path d="M306.058 260.481H307.967C308.127 260.481 308.257 260.351 308.257 260.191V259.278C308.257 259.118 308.127 258.988 307.967 258.988H306.058C305.898 258.988 305.768 259.118 305.768 259.278V260.191C305.768 260.351 305.898 260.481 306.058 260.481Z" fill="#012447"/>
<path d="M301.081 260.481H302.99C303.15 260.481 303.28 260.351 303.28 260.191V259.278C303.28 259.118 303.15 258.988 302.99 258.988H301.081C300.921 258.988 300.791 259.118 300.791 259.278V260.191C300.791 260.351 300.921 260.481 301.081 260.481Z" fill="#012447"/>
<path d="M296.104 260.481H298.013C298.173 260.481 298.303 260.351 298.303 260.191V259.278C298.303 259.118 298.173 258.988 298.013 258.988H296.104C295.944 258.988 295.814 259.118 295.814 259.278V260.191C295.814 260.351 295.944 260.481 296.104 260.481Z" fill="#012447"/>
<path d="M329.451 263.467H348.779C348.939 263.467 349.069 263.338 349.069 263.177V262.264C349.069 262.104 348.939 261.974 348.779 261.974H329.451C329.29 261.974 329.161 262.104 329.161 262.264V263.177C329.161 263.338 329.29 263.467 329.451 263.467Z" fill="#012447"/>
<path d="M308.973 213.139H307.283C306.771 213.139 306.356 213.555 306.356 214.067C306.356 214.579 306.771 214.994 307.283 214.994H308.973C309.485 214.994 309.901 214.579 309.901 214.067C309.901 213.555 309.485 213.139 308.973 213.139Z" fill="white"/>
<path d="M328.296 213.139H326.607C326.094 213.139 325.679 213.555 325.679 214.067C325.679 214.579 326.094 214.994 326.607 214.994H328.296C328.808 214.994 329.224 214.579 329.224 214.067C329.224 213.555 328.808 213.139 328.296 213.139Z" fill="white"/>
<path d="M333.771 213.139H332.081C331.569 213.139 331.154 213.555 331.154 214.067C331.154 214.579 331.569 214.994 332.081 214.994H333.771C334.283 214.994 334.698 214.579 334.698 214.067C334.698 213.555 334.283 213.139 333.771 213.139Z" fill="white"/>
<path d="M323.04 212.985H312.539C312.027 212.985 311.612 213.4 311.612 213.912C311.612 214.424 312.027 214.84 312.539 214.84H323.04C323.552 214.84 323.968 214.424 323.968 213.912C323.968 213.4 323.552 212.985 323.04 212.985Z" fill="white"/>
<path d="M348.804 212.985H338.303C337.791 212.985 337.376 213.4 337.376 213.912C337.376 214.424 337.791 214.84 338.303 214.84H348.804C349.316 214.84 349.732 214.424 349.732 213.912C349.732 213.4 349.316 212.985 348.804 212.985Z" fill="white"/>
<path d="M314.126 217.326H312.436C311.924 217.326 311.509 217.741 311.509 218.253C311.509 218.766 311.924 219.181 312.436 219.181H314.126C314.638 219.181 315.053 218.766 315.053 218.253C315.053 217.741 314.638 217.326 314.126 217.326Z" fill="white"/>
<path d="M333.449 217.326H331.76C331.247 217.326 330.832 217.741 330.832 218.253C330.832 218.766 331.247 219.181 331.76 219.181H333.449C333.961 219.181 334.377 218.766 334.377 218.253C334.377 217.741 333.961 217.326 333.449 217.326Z" fill="white"/>
<path d="M338.924 217.326H337.234C336.722 217.326 336.307 217.741 336.307 218.253C336.307 218.766 336.722 219.181 337.234 219.181H338.924C339.436 219.181 339.851 218.766 339.851 218.253C339.851 217.741 339.436 217.326 338.924 217.326Z" fill="white"/>
<path d="M328.193 217.171H317.692C317.18 217.171 316.765 217.587 316.765 218.099C316.765 218.611 317.18 219.026 317.692 219.026H328.193C328.705 219.026 329.12 218.611 329.12 218.099C329.12 217.587 328.705 217.171 328.193 217.171Z" fill="white"/>
<path d="M353.957 217.171H343.456C342.944 217.171 342.529 217.587 342.529 218.099C342.529 218.611 342.944 219.026 343.456 219.026H353.957C354.469 219.026 354.885 218.611 354.885 218.099C354.885 217.587 354.469 217.171 353.957 217.171Z" fill="white"/>
<path d="M319.279 221.513H317.589C317.077 221.513 316.661 221.928 316.661 222.44C316.661 222.952 317.077 223.368 317.589 223.368H319.279C319.791 223.368 320.206 222.952 320.206 222.44C320.206 221.928 319.791 221.513 319.279 221.513Z" fill="white"/>
<path d="M338.602 221.513H336.912C336.4 221.513 335.985 221.928 335.985 222.44C335.985 222.952 336.4 223.368 336.912 223.368H338.602C339.114 223.368 339.529 222.952 339.529 222.44C339.529 221.928 339.114 221.513 338.602 221.513Z" fill="white"/>
<path d="M344.077 221.513H342.387C341.875 221.513 341.46 221.928 341.46 222.44C341.46 222.952 341.875 223.368 342.387 223.368H344.077C344.589 223.368 345.004 222.952 345.004 222.44C345.004 221.928 344.589 221.513 344.077 221.513Z" fill="white"/>
<path d="M333.346 221.358H322.845C322.333 221.358 321.917 221.773 321.917 222.286C321.917 222.798 322.333 223.213 322.845 223.213H333.346C333.858 223.213 334.273 222.798 334.273 222.286C334.273 221.773 333.858 221.358 333.346 221.358Z" fill="white"/>
<path d="M359.11 221.358H348.609C348.097 221.358 347.682 221.773 347.682 222.286C347.682 222.798 348.097 223.213 348.609 223.213H359.11C359.622 223.213 360.038 222.798 360.038 222.286C360.038 221.773 359.622 221.358 359.11 221.358Z" fill="white"/>
<path d="M324.432 225.699H322.742C322.23 225.699 321.814 226.115 321.814 226.627C321.814 227.139 322.23 227.554 322.742 227.554H324.432C324.944 227.554 325.359 227.139 325.359 226.627C325.359 226.115 324.944 225.699 324.432 225.699Z" fill="white"/>
<path d="M343.755 225.699H342.065C341.553 225.699 341.137 226.115 341.137 226.627C341.137 227.139 341.553 227.554 342.065 227.554H343.755C344.267 227.554 344.682 227.139 344.682 226.627C344.682 226.115 344.267 225.699 343.755 225.699Z" fill="white"/>
<path d="M349.229 225.699H347.54C347.028 225.699 346.612 226.115 346.612 226.627C346.612 227.139 347.028 227.554 347.54 227.554H349.229C349.742 227.554 350.157 227.139 350.157 226.627C350.157 226.115 349.742 225.699 349.229 225.699Z" fill="white"/>
<path d="M338.499 225.545H327.998C327.486 225.545 327.07 225.96 327.07 226.472C327.07 226.984 327.486 227.4 327.998 227.4H338.499C339.011 227.4 339.426 226.984 339.426 226.472C339.426 225.96 339.011 225.545 338.499 225.545Z" fill="white"/>
<path d="M328.296 242.347H326.607C326.094 242.347 325.679 242.763 325.679 243.275C325.679 243.787 326.094 244.202 326.607 244.202H328.296C328.808 244.202 329.224 243.787 329.224 243.275C329.224 242.763 328.808 242.347 328.296 242.347Z" fill="white"/>
<path d="M333.771 242.347H332.081C331.569 242.347 331.154 242.763 331.154 243.275C331.154 243.787 331.569 244.202 332.081 244.202H333.771C334.283 244.202 334.698 243.787 334.698 243.275C334.698 242.763 334.283 242.347 333.771 242.347Z" fill="white"/>
<path d="M348.804 242.502H338.303C337.791 242.502 337.376 242.917 337.376 243.43C337.376 243.942 337.791 244.357 338.303 244.357H348.804C349.316 244.357 349.732 243.942 349.732 243.43C349.732 242.917 349.316 242.502 348.804 242.502Z" fill="white"/>
<path d="M308.973 242.347H307.283C306.771 242.347 306.356 242.763 306.356 243.275C306.356 243.787 306.771 244.202 307.283 244.202H308.973C309.485 244.202 309.901 243.787 309.901 243.275C309.901 242.763 309.485 242.347 308.973 242.347Z" fill="white"/>
<path d="M323.04 242.502H312.539C312.027 242.502 311.612 242.917 311.612 243.43C311.612 243.942 312.027 244.357 312.539 244.357H323.04C323.552 244.357 323.968 243.942 323.968 243.43C323.968 242.917 323.552 242.502 323.04 242.502Z" fill="white"/>
<path d="M314.126 238.161H312.436C311.924 238.161 311.509 238.576 311.509 239.088C311.509 239.6 311.924 240.016 312.436 240.016H314.126C314.638 240.016 315.053 239.6 315.053 239.088C315.053 238.576 314.638 238.161 314.126 238.161Z" fill="white"/>
<path d="M333.449 238.161H331.76C331.247 238.161 330.832 238.576 330.832 239.088C330.832 239.6 331.247 240.016 331.76 240.016H333.449C333.961 240.016 334.377 239.6 334.377 239.088C334.377 238.576 333.961 238.161 333.449 238.161Z" fill="white"/>
<path d="M338.924 238.161H337.234C336.722 238.161 336.307 238.576 336.307 239.088C336.307 239.6 336.722 240.016 337.234 240.016H338.924C339.436 240.016 339.851 239.6 339.851 239.088C339.851 238.576 339.436 238.161 338.924 238.161Z" fill="white"/>
<path d="M328.193 238.315H317.692C317.18 238.315 316.765 238.731 316.765 239.243C316.765 239.755 317.18 240.17 317.692 240.17H328.193C328.705 240.17 329.12 239.755 329.12 239.243C329.12 238.731 328.705 238.315 328.193 238.315Z" fill="white"/>
<path d="M319.279 233.974H317.589C317.077 233.974 316.661 234.389 316.661 234.902C316.661 235.414 317.077 235.829 317.589 235.829H319.279C319.791 235.829 320.206 235.414 320.206 234.902C320.206 234.389 319.791 233.974 319.279 233.974Z" fill="white"/>
<path d="M338.602 233.974H336.912C336.4 233.974 335.985 234.389 335.985 234.902C335.985 235.414 336.4 235.829 336.912 235.829H338.602C339.114 235.829 339.529 235.414 339.529 234.902C339.529 234.389 339.114 233.974 338.602 233.974Z" fill="white"/>
<path d="M344.077 233.974H342.387C341.875 233.974 341.46 234.389 341.46 234.902C341.46 235.414 341.875 235.829 342.387 235.829H344.077C344.589 235.829 345.004 235.414 345.004 234.902C345.004 234.389 344.589 233.974 344.077 233.974Z" fill="white"/>
<path d="M333.346 234.129H322.845C322.333 234.129 321.917 234.544 321.917 235.056C321.917 235.568 322.333 235.984 322.845 235.984H333.346C333.858 235.984 334.273 235.568 334.273 235.056C334.273 234.544 333.858 234.129 333.346 234.129Z" fill="white"/>
<path d="M324.432 229.787H322.742C322.23 229.787 321.814 230.203 321.814 230.715C321.814 231.227 322.23 231.642 322.742 231.642H324.432C324.944 231.642 325.359 231.227 325.359 230.715C325.359 230.203 324.944 229.787 324.432 229.787Z" fill="white"/>
<path d="M343.755 229.787H342.065C341.553 229.787 341.137 230.203 341.137 230.715C341.137 231.227 341.553 231.642 342.065 231.642H343.755C344.267 231.642 344.682 231.227 344.682 230.715C344.682 230.203 344.267 229.787 343.755 229.787Z" fill="white"/>
<path d="M349.229 229.787H347.54C347.028 229.787 346.612 230.203 346.612 230.715C346.612 231.227 347.028 231.642 347.54 231.642H349.229C349.742 231.642 350.157 231.227 350.157 230.715C350.157 230.203 349.742 229.787 349.229 229.787Z" fill="white"/>
<path d="M338.499 229.942H327.998C327.486 229.942 327.07 230.357 327.07 230.869C327.07 231.382 327.486 231.797 327.998 231.797H338.499C339.011 231.797 339.426 231.382 339.426 230.869C339.426 230.357 339.011 229.942 338.499 229.942Z" fill="white"/>
<path d="M299.99 291.414L292.059 278.876L316.954 259.031L327.23 247.646C328.565 246.167 330.265 245.064 332.16 244.448C334.055 243.832 336.078 243.724 338.027 244.134C339.977 244.545 341.785 245.46 343.27 246.788C344.755 248.116 345.866 249.811 346.491 251.703C347.417 254.506 347.218 257.56 345.935 260.22C344.653 262.879 342.387 264.936 339.617 265.957L323.368 271.943L299.99 291.414Z" fill="#FFB6B6"/>
<path d="M113.89 200.51V261.445H156.579V200.51C156.58 200.072 156.44 199.645 156.18 199.292C155.92 198.939 155.554 198.679 155.135 198.549C154.938 198.484 154.731 198.452 154.523 198.454H115.952C115.681 198.454 115.414 198.507 115.164 198.61C114.914 198.713 114.686 198.864 114.495 199.055C114.303 199.246 114.151 199.473 114.048 199.722C113.944 199.972 113.89 200.24 113.89 200.51ZM130.55 221.448C130.561 220.246 131.046 219.098 131.899 218.252C132.753 217.407 133.905 216.933 135.107 216.933C136.308 216.933 137.461 217.407 138.314 218.252C139.168 219.098 139.653 220.246 139.664 221.448V228.518C139.658 229.722 139.175 230.876 138.321 231.725C137.467 232.575 136.311 233.052 135.107 233.052C133.902 233.052 132.747 232.575 131.893 231.725C131.039 230.876 130.556 229.722 130.55 228.518V221.448Z" fill="#0D0147"/>
<path d="M113.76 259.496V265.372C113.76 265.677 113.881 265.968 114.096 266.184C114.311 266.4 114.602 266.522 114.906 266.525H155.563C155.868 266.523 156.159 266.401 156.374 266.185C156.589 265.969 156.71 265.677 156.71 265.372V259.496H113.76Z" fill="#012447"/>
<path d="M46.7348 108.704V219.962C46.7359 221.38 47.2997 222.739 48.3022 223.742C49.3048 224.745 50.6642 225.308 52.082 225.309H216.955C218.373 225.308 219.733 224.745 220.735 223.742C221.738 222.739 222.301 221.38 222.303 219.962V108.704C222.299 107.287 221.734 105.93 220.732 104.929C219.73 103.928 218.372 103.365 216.955 103.363H52.082C50.6654 103.365 49.3073 103.928 48.3051 104.929C47.3028 105.93 46.7382 107.287 46.7348 108.704Z" fill="#012447"/>
<path d="M50.6028 110.088V218.59C50.6041 219.347 50.9056 220.073 51.4412 220.609C51.9769 221.145 52.703 221.446 53.4606 221.448H215.583C216.34 221.446 217.067 221.145 217.602 220.609C218.138 220.073 218.439 219.347 218.441 218.59V110.088C218.441 109.33 218.14 108.602 217.604 108.066C217.068 107.529 216.341 107.226 215.583 107.225H53.4606C52.7021 107.226 51.9753 107.529 51.4395 108.066C50.9038 108.602 50.6029 109.33 50.6028 110.088Z" fill="white"/>
<path d="M80.6899 266.127C80.8549 266.334 81.0646 266.5 81.3034 266.615C81.5421 266.729 81.8036 266.788 82.0683 266.786H178.521C178.784 266.786 179.045 266.727 179.283 266.613C179.521 266.5 179.731 266.334 179.897 266.129C180.063 265.925 180.181 265.685 180.243 265.429C180.306 265.172 180.31 264.905 180.256 264.647L178.758 257.535C178.696 257.245 178.563 256.976 178.37 256.75C178.177 256.525 177.93 256.352 177.653 256.246C177.453 256.167 177.239 256.127 177.023 256.127H83.5596C83.3441 256.127 83.1304 256.167 82.9298 256.246C82.6527 256.352 82.4064 256.525 82.2134 256.75C82.0203 256.976 81.8867 257.245 81.8247 257.535L80.3275 264.647C80.2742 264.905 80.2791 265.172 80.3418 265.428C80.4045 265.684 80.5234 265.923 80.6899 266.127Z" fill="#0D0147"/>
<path d="M210.321 122.171H58.6242C58.4665 122.168 58.3165 122.103 58.2062 121.99C58.0959 121.877 58.0342 121.726 58.0342 121.568C58.0342 121.41 58.0959 121.259 58.2062 121.146C58.3165 121.033 58.4665 120.968 58.6242 120.965H210.321C210.479 120.968 210.629 121.033 210.739 121.146C210.85 121.259 210.911 121.41 210.911 121.568C210.911 121.726 210.85 121.877 210.739 121.99C210.629 122.103 210.479 122.168 210.321 122.171Z" fill="#012447"/>
<path d="M68.9504 117.885C70.9029 117.885 72.4858 116.266 72.4858 114.27C72.4858 112.274 70.9029 110.656 68.9504 110.656C66.9979 110.656 65.415 112.274 65.415 114.27C65.415 116.266 66.9979 117.885 68.9504 117.885Z" fill="#012447"/>
<path d="M81.1636 117.885C83.1161 117.885 84.699 116.266 84.699 114.27C84.699 112.274 83.1161 110.656 81.1636 110.656C79.2111 110.656 77.6282 112.274 77.6282 114.27C77.6282 116.266 79.2111 117.885 81.1636 117.885Z" fill="#012447"/>
<path d="M93.3767 117.885C95.3292 117.885 96.9121 116.266 96.9121 114.27C96.9121 112.274 95.3292 110.656 93.3767 110.656C91.4241 110.656 89.8413 112.274 89.8413 114.27C89.8413 116.266 91.4241 117.885 93.3767 117.885Z" fill="#012447"/>
<path d="M202.967 111.55H194.293C194.121 111.554 193.958 111.625 193.838 111.748C193.718 111.87 193.651 112.035 193.651 112.206C193.651 112.378 193.718 112.543 193.838 112.665C193.958 112.788 194.121 112.859 194.293 112.863H202.967C203.14 112.861 203.304 112.79 203.425 112.667C203.547 112.545 203.615 112.379 203.615 112.206C203.615 112.034 203.547 111.868 203.425 111.745C203.304 111.623 203.14 111.552 202.967 111.55Z" fill="#012447"/>
<path d="M202.967 114.016H194.293C194.121 114.019 193.958 114.09 193.838 114.213C193.718 114.336 193.651 114.5 193.651 114.672C193.651 114.844 193.718 115.009 193.838 115.131C193.958 115.254 194.121 115.325 194.293 115.329H202.967C203.14 115.327 203.305 115.256 203.426 115.134C203.548 115.011 203.616 114.845 203.616 114.672C203.616 114.499 203.548 114.334 203.426 114.211C203.305 114.088 203.14 114.018 202.967 114.016Z" fill="#012447"/>
<path d="M202.967 116.481H194.293C194.121 116.485 193.958 116.556 193.838 116.679C193.718 116.802 193.651 116.966 193.651 117.138C193.651 117.309 193.718 117.474 193.838 117.597C193.958 117.719 194.121 117.79 194.293 117.794H202.967C203.14 117.792 203.304 117.722 203.425 117.599C203.547 117.476 203.615 117.31 203.615 117.138C203.615 116.965 203.547 116.8 203.425 116.677C203.304 116.554 203.14 116.484 202.967 116.481Z" fill="#012447"/>
<path d="M412.091 262.075C412.353 262.837 412.85 263.497 413.51 263.959C414.17 264.421 414.959 264.663 415.765 264.648L431.505 264.243C432.316 264.227 433.101 263.949 433.742 263.451C434.382 262.952 434.844 262.259 435.058 261.476L437.286 237.659C438.076 238.017 438.936 238.194 439.804 238.176C440.557 238.157 441.3 237.99 441.989 237.684C442.677 237.378 443.299 236.94 443.819 236.394C444.338 235.847 444.745 235.204 445.016 234.501C445.287 233.797 445.417 233.047 445.398 232.294C445.379 231.54 445.212 230.798 444.906 230.109C444.6 229.42 444.161 228.798 443.615 228.278C443.069 227.759 442.426 227.352 441.722 227.081C441.019 226.81 440.269 226.681 439.515 226.7C439.169 226.698 438.823 226.734 438.484 226.807C438.115 226.408 437.667 226.091 437.168 225.875C436.67 225.66 436.131 225.552 435.588 225.557L411.377 226.183C411.176 226.19 410.976 226.215 410.779 226.257C410.248 226.356 409.745 226.567 409.303 226.877C408.86 227.187 408.489 227.588 408.215 228.053C407.941 228.519 407.769 229.037 407.712 229.574C407.655 230.111 407.714 230.655 407.884 231.167L412.091 262.075ZM437.742 236.042L439.327 230.366C439.508 229.71 439.512 229.019 439.339 228.361C439.416 228.361 439.484 228.324 439.561 228.324C440.648 228.302 441.699 228.711 442.484 229.463C443.27 230.214 443.725 231.246 443.751 232.333C443.776 233.42 443.37 234.472 442.62 235.26C441.871 236.047 440.84 236.505 439.753 236.534C439.051 236.556 438.355 236.385 437.742 236.042Z" fill="#0D0147"/>
<path d="M410.779 226.257C411.295 229.206 417.094 231.279 424.068 230.919C430.48 230.624 435.723 228.372 436.684 225.703C436.328 225.598 435.959 225.549 435.588 225.557L411.377 226.183C411.176 226.19 410.976 226.215 410.779 226.257Z" fill="#012447"/>
<path d="M425.346 248.987C425.378 248.979 425.408 248.966 425.436 248.948L428.854 246.71C428.895 246.683 428.929 246.647 428.952 246.603C428.976 246.56 428.988 246.511 428.988 246.462C428.988 246.413 428.976 246.364 428.953 246.321C428.929 246.277 428.895 246.241 428.854 246.214L425.301 243.887C425.268 243.865 425.232 243.85 425.194 243.843C425.155 243.835 425.116 243.835 425.077 243.843C425.039 243.851 425.003 243.867 424.97 243.889C424.938 243.911 424.91 243.939 424.889 243.971C424.867 244.004 424.853 244.041 424.845 244.079C424.838 244.117 424.839 244.157 424.847 244.195C424.855 244.233 424.87 244.27 424.892 244.302C424.914 244.334 424.943 244.362 424.976 244.383L428.149 246.462L425.11 248.451C425.052 248.489 425.008 248.547 424.988 248.615C424.968 248.682 424.973 248.754 425.001 248.819C425.029 248.883 425.079 248.935 425.143 248.966C425.206 248.997 425.278 249.004 425.346 248.987H425.346Z" fill="#54A8FC"/>
<path d="M419.947 249.236C420.004 249.222 420.056 249.19 420.096 249.146C420.135 249.102 420.16 249.047 420.168 248.989C420.177 248.93 420.167 248.87 420.141 248.817C420.115 248.764 420.073 248.72 420.022 248.69L416.871 246.884L419.917 244.622C419.948 244.599 419.974 244.57 419.994 244.536C420.014 244.503 420.028 244.466 420.033 244.427C420.039 244.389 420.037 244.349 420.027 244.311C420.018 244.274 420.001 244.238 419.978 244.207C419.955 244.175 419.925 244.149 419.892 244.129C419.858 244.109 419.821 244.096 419.783 244.09C419.744 244.084 419.705 244.086 419.667 244.096C419.629 244.105 419.594 244.122 419.562 244.145L416.153 246.678C416.113 246.707 416.082 246.746 416.061 246.791C416.04 246.836 416.03 246.885 416.033 246.934C416.036 246.983 416.051 247.031 416.077 247.073C416.103 247.115 416.139 247.15 416.182 247.174L419.726 249.206C419.793 249.244 419.872 249.255 419.947 249.236Z" fill="#54A8FC"/>
<path d="M425.006 250.948C425.035 250.941 425.062 250.929 425.087 250.913C425.121 250.893 425.15 250.867 425.173 250.835C425.196 250.804 425.212 250.768 425.222 250.73C425.231 250.692 425.233 250.653 425.227 250.614C425.221 250.576 425.207 250.538 425.187 250.505L420.341 242.539C420.3 242.472 420.234 242.423 420.158 242.405C420.081 242.386 420 242.399 419.933 242.44C419.866 242.481 419.818 242.547 419.799 242.623C419.78 242.7 419.793 242.781 419.834 242.848L424.679 250.814C424.712 250.869 424.762 250.911 424.821 250.935C424.879 250.959 424.944 250.963 425.006 250.948Z" fill="#54A8FC"/>
<path d="M152.598 154.967H126.343C125.272 154.967 124.403 155.836 124.403 156.907V159.472C124.403 160.543 125.272 161.411 126.343 161.411H152.598C153.669 161.411 154.537 160.543 154.537 159.472V156.907C154.537 155.836 153.669 154.967 152.598 154.967Z" fill="#54A8FC"/>
<path d="M167.902 167.855H111.038C109.967 167.855 109.099 168.723 109.099 169.794V172.359C109.099 173.431 109.967 174.299 111.038 174.299H167.902C168.973 174.299 169.842 173.431 169.842 172.359V169.794C169.842 168.723 168.973 167.855 167.902 167.855Z" fill="#E6E6E6"/>
<path d="M167.902 180.743H111.038C109.967 180.743 109.099 181.611 109.099 182.682V185.247C109.099 186.318 109.967 187.186 111.038 187.186H167.902C168.973 187.186 169.842 186.318 169.842 185.247V182.682C169.842 181.611 168.973 180.743 167.902 180.743Z" fill="#E6E6E6"/>
<path d="M172.723 223.898L172.851 224.305L172.858 224.319L176.735 236.105L181.195 249.688L189.586 275.213L189.667 279.178V279.191L190.29 311.087L188.562 315.411L190.507 322.501C190.507 322.501 189.613 311.784 184.814 317.938C182.096 321.436 178.917 325.014 176.308 328.369C180.11 329.908 183.974 331.3 187.898 332.545C188.745 332.816 189.599 333.073 190.453 333.331C190.636 333.385 190.819 333.439 191.002 333.493C204.011 337.34 217.459 339.502 231.018 339.925C231.723 339.946 232.414 339.959 233.085 339.973C233.322 339.98 233.553 339.986 233.783 339.986C234.542 339.993 235.295 340 236.054 340C237.585 340 239.11 339.977 240.629 339.932C251.866 339.616 263.037 338.105 273.955 335.425C273.88 330.918 273.677 325.652 273.385 320.026C273.25 317.268 270.207 314.279 270.024 311.391C269.895 309.222 272.626 307.182 272.484 304.979C271.562 291.417 270.41 296.623 269.556 287.019C269.468 286.077 269.386 285.176 269.312 284.315C268.763 278.147 268.383 274.291 268.383 274.291L272.03 251.308L277.757 215.223L277.316 214.498L276.822 214.254L246.613 199.302L244.973 195.1C244.495 193.889 243.666 192.849 242.592 192.114C241.519 191.378 240.249 190.981 238.948 190.972L219.048 190.891C218.016 190.886 216.997 191.128 216.076 191.596C215.155 192.064 214.36 192.745 213.755 193.582L208.367 201.044L172.723 223.898Z" fill="#012447"/>
<path d="M194.174 269.533L189.667 279.178L186.59 285.766L181.296 313.48L178.646 316.292L176.376 306.335L152.612 311.612C151.832 307.281 152.403 311.758 151.922 307.007C152.057 306.871 152.2 306.736 152.342 306.6C152.721 306.248 153.04 305.916 153.033 305.597C152.762 289.209 153.575 261.318 160.367 244.421C161.43 241.663 162.833 239.047 164.542 236.634C164.677 236.451 164.806 236.268 164.935 236.085C168.066 231.7 170.045 227.382 172.851 224.312V224.305C172.869 224.291 172.885 224.275 172.899 224.258C172.909 224.253 172.918 224.246 172.926 224.237L192.202 214.016L193.029 237.251L193.618 253.951L194.174 269.533Z" fill="#012447"/>
<path d="M263.679 272.272L269.309 284.318L271.274 288.514L276.566 316.225L279.207 319.031L281.483 309.076L282.553 308.857L301.837 304.863L307.458 322.714C308.725 320.603 309.224 318.12 308.871 315.683C308.518 313.247 307.335 311.007 305.521 309.343C305.137 308.996 304.817 308.657 304.826 308.338C305.146 289.062 303.967 253.865 293.319 239.378C289.937 234.781 287.908 230.202 284.956 227.003C284.947 226.994 284.947 226.985 284.938 226.985L277.754 215.222L277.315 214.5L276.822 214.253L263.679 272.272Z" fill="#012447"/>
<path d="M229.573 185.228C244.194 185.228 256.047 173.375 256.047 158.754C256.047 144.133 244.194 132.28 229.573 132.28C214.952 132.28 203.099 144.133 203.099 158.754C203.099 173.375 214.952 185.228 229.573 185.228Z" fill="#FFB6B6"/>
<path d="M265.355 140.262C265.15 140.043 264.903 139.867 264.628 139.746C264.353 139.624 264.057 139.56 263.757 139.555L264.155 138.45C264.285 138.102 264.32 137.726 264.257 137.359C264.193 136.993 264.034 136.651 263.794 136.367C263.555 136.082 263.244 135.867 262.894 135.742C262.544 135.618 262.167 135.589 261.802 135.658L260.352 135.937L260.489 134.968C260.542 134.608 260.499 134.24 260.366 133.9C260.233 133.561 260.014 133.262 259.731 133.033C259.447 132.804 259.109 132.653 258.749 132.594C258.389 132.536 258.02 132.572 257.679 132.699C257.368 132.821 257.034 132.872 256.701 132.849C256.368 132.825 256.044 132.727 255.754 132.562C255.462 132.402 255.209 132.181 255.012 131.913C254.815 131.645 254.679 131.337 254.613 131.011L254.108 128.575L254.055 128.445C251.595 124.345 246.866 121.363 241.079 120.269C235.927 119.289 230.646 119.788 225.554 120.258C223.534 120.448 221.252 120.662 219.351 121.826C217.735 122.824 216.368 124.82 216.648 126.835C211.627 125.296 206.244 128.367 203.577 132.241C200.416 136.852 199.899 142.627 199.816 147.142C199.59 157.825 201.794 166.565 206.351 173.124C206.684 173.599 206.767 174.591 207.427 174.924L207.29 174.704C208.027 175.073 208.775 175.667 208.496 176.303C207.694 178.132 213.023 182.179 216.778 183.515C223.629 185.957 232.737 185.749 239.142 184.87L239.368 183.355C241.679 183.04 243.307 182.44 243.764 181.501C244.572 180.812 245.261 180.194 245.861 179.624L245.867 179.618C245.879 179.606 245.903 179.588 245.915 179.576C248.808 176.802 249.48 175.221 249.783 172.815C250.074 170.456 249.557 168.062 249.028 165.905C260.162 167.628 244.643 154.046 255.017 151.42C255.136 151.383 255.257 151.354 255.38 151.331C255.683 151.26 255.986 151.188 256.277 151.105C257.68 150.724 259.024 150.15 260.269 149.4C263.169 147.635 264.125 145.295 265.622 142.657C265.839 142.281 265.929 141.846 265.881 141.416C265.833 140.985 265.649 140.581 265.355 140.262Z" fill="#0D0147"/>
<path d="M323.206 274.157C323.2 275.197 323.189 276.652 323.141 278.453C323.135 278.702 323.129 278.958 323.123 279.219C323.046 282.528 322.969 285.303 322.844 288.387C322.838 288.601 322.832 288.808 322.82 289.022C322.654 293.324 322.392 298.333 321.941 306.264C321.103 320.916 319.641 308.278 318.174 313.418C318.103 313.673 318.025 313.976 317.954 314.333C317.732 315.626 317.357 316.889 316.837 318.094C316.059 318.557 315.257 319.003 314.467 319.448C312.215 320.702 309.927 321.908 307.622 323.055C306.327 323.696 305.026 324.326 303.719 324.932C303.511 325.027 303.309 325.122 303.107 325.211C296.413 328.307 289.515 330.94 282.46 333.09C281.082 333.506 279.71 333.909 278.319 334.284C276.87 334.688 275.42 335.068 273.952 335.425C263.035 338.105 251.864 339.616 240.627 339.934C239.112 339.982 237.585 339.999 236.052 339.999C235.292 339.999 234.543 339.993 233.783 339.988C233.551 339.988 233.319 339.982 233.088 339.976C232.416 339.958 231.721 339.946 231.02 339.928C217.461 339.505 204.013 337.343 191.005 333.494L190.452 333.333C189.597 333.072 188.747 332.816 187.897 332.543C183.976 331.301 180.112 329.911 176.306 328.372C173.4 327.202 170.529 325.946 167.691 324.605C167.665 324.598 167.641 324.586 167.619 324.57C167.025 324.296 166.425 324.011 165.831 323.72C165.754 323.678 165.671 323.637 165.588 323.595C163.371 322.514 161.179 321.381 159.01 320.197C157.186 316.008 154.62 315.206 153.027 311.522C152.564 310.428 152.229 309.284 152.029 308.112C152.029 308.1 152.023 308.088 152.023 308.07C152.19 310.281 151.316 304.149 152.017 308.047C152.011 307.975 152.006 307.898 152 307.809C151.982 307.595 151.958 307.334 151.922 307.007C149.884 287.109 150.015 264.354 149.13 245.603C149.07 244.391 149.009 243.23 148.946 242.121C148.928 241.753 148.904 241.39 148.88 241.034C148.922 240.927 148.969 240.814 149.023 240.707C149.034 240.676 149.048 240.646 149.065 240.618C149.082 240.581 149.102 240.545 149.124 240.511C149.136 240.493 149.154 240.469 149.166 240.452C149.174 240.431 149.184 240.411 149.195 240.392C149.249 240.309 149.308 240.22 149.373 240.137C149.403 240.101 149.427 240.071 149.457 240.042C149.477 240.011 149.501 239.983 149.528 239.959C149.546 239.93 149.568 239.904 149.593 239.881C149.617 239.857 149.641 239.828 149.671 239.798C149.683 239.779 149.699 239.763 149.718 239.751C149.765 239.697 149.817 239.647 149.873 239.602C150.085 239.407 150.311 239.228 150.55 239.067C150.633 239.014 150.722 238.96 150.805 238.901C151.404 238.543 152.035 238.24 152.689 237.998C152.915 237.915 153.14 237.837 153.384 237.754C153.473 237.731 153.556 237.701 153.645 237.671C153.776 237.629 153.907 237.588 154.043 237.558C154.721 237.356 155.452 237.184 156.242 237.023C156.337 237.006 156.438 236.988 156.539 236.964C156.681 236.934 156.83 236.911 156.978 236.887C157.18 236.851 157.388 236.816 157.596 236.78C159.361 236.501 161.363 236.293 163.573 236.156C163.781 236.144 163.989 236.132 164.197 236.12C164.441 236.109 164.684 236.097 164.934 236.085C165.142 236.073 165.356 236.067 165.57 236.061C165.778 236.049 165.992 236.043 166.211 236.037C166.811 236.019 167.429 236.002 168.059 235.99C169.853 235.954 171.743 235.966 173.727 236.008C174.648 236.031 175.587 236.055 176.549 236.097C176.615 236.097 176.674 236.103 176.734 236.103C177.571 236.132 178.415 236.168 179.282 236.215C179.888 236.245 180.5 236.275 181.112 236.311C181.689 236.346 182.271 236.382 182.859 236.423C183.317 236.447 183.774 236.483 184.237 236.513C184.63 236.542 185.022 236.572 185.414 236.596L185.949 236.631C186.24 236.655 186.531 236.673 186.828 236.703C187.481 236.756 188.135 236.81 188.8 236.863C189.46 236.922 190.131 236.982 190.803 237.041C191.474 237.101 192.151 237.166 192.829 237.231C192.9 237.237 192.965 237.243 193.031 237.249C193.649 237.315 194.267 237.374 194.89 237.439C195.033 237.451 195.182 237.463 195.324 237.481C195.919 237.541 196.525 237.611 197.126 237.674C197.31 237.694 197.493 237.714 197.678 237.734C198.148 237.785 198.611 237.829 199.085 237.885C199.709 237.956 200.345 238.022 200.962 238.105C201.444 238.158 201.925 238.212 202.406 238.271C203.161 238.36 203.927 238.455 204.694 238.556C204.985 238.592 205.276 238.628 205.567 238.669C207.753 238.943 209.964 239.246 212.209 239.56C215.614 240.042 219.072 240.565 222.553 241.129C226.041 241.693 229.548 242.29 233.076 242.917C233.967 243.078 234.858 243.238 235.755 243.404C236.159 243.482 236.563 243.559 236.967 243.636C237.656 243.761 238.346 243.892 239.035 244.022C239.724 244.153 240.413 244.284 241.102 244.42C241.922 244.581 242.748 244.741 243.568 244.902C248.969 245.971 254.34 247.112 259.58 248.306C260.442 248.502 261.303 248.704 262.159 248.9C263.87 249.298 265.565 249.702 267.244 250.112C267.708 250.219 268.165 250.332 268.623 250.445C269.764 250.73 270.904 251.015 272.027 251.307L272.223 251.36C273.049 251.562 273.857 251.77 274.665 251.984C276.572 252.483 278.448 252.988 280.292 253.499C281.516 253.838 282.726 254.18 283.922 254.527C285.71 255.044 287.463 255.566 289.168 256.095C289.59 256.226 290.012 256.357 290.428 256.481C291.675 256.868 292.905 257.26 294.099 257.652C295.05 257.961 295.977 258.276 296.892 258.591C297.807 258.906 298.704 259.22 299.583 259.535C300.148 259.737 300.706 259.951 301.265 260.153C302.067 260.45 302.857 260.747 303.629 261.044C303.867 261.134 304.099 261.229 304.331 261.318C304.479 261.383 304.622 261.437 304.764 261.496C305.043 261.609 305.329 261.716 305.602 261.829C305.881 261.936 306.154 262.049 306.428 262.167C306.695 262.274 306.968 262.387 307.23 262.5C307.497 262.607 307.759 262.72 308.02 262.839C308.24 262.928 308.454 263.023 308.662 263.118C309.084 263.302 309.505 263.486 309.915 263.676C310.117 263.772 310.319 263.861 310.521 263.956L310.985 264.17C311.05 264.205 311.116 264.235 311.181 264.265C311.329 264.336 311.484 264.413 311.632 264.484C311.977 264.645 312.316 264.817 312.648 264.978C313.094 265.203 313.528 265.429 313.944 265.649C314.365 265.875 314.775 266.101 315.168 266.32C315.233 266.356 315.292 266.392 315.358 266.427C315.447 266.475 315.536 266.528 315.625 266.576C315.928 266.748 316.219 266.926 316.51 267.099C317.081 267.449 317.621 267.794 318.126 268.138C318.239 268.216 318.346 268.293 318.459 268.364C318.833 268.632 319.19 268.893 319.523 269.16C319.523 269.166 319.523 269.166 319.529 269.166C319.641 269.249 319.748 269.339 319.855 269.422C319.944 269.505 320.04 269.576 320.129 269.659C320.438 269.927 320.723 270.182 320.984 270.444C321.072 270.524 321.155 270.61 321.234 270.699C321.268 270.728 321.3 270.76 321.329 270.794C321.448 270.913 321.555 271.032 321.656 271.151C321.671 271.167 321.685 271.185 321.697 271.204C321.84 271.371 321.97 271.537 322.095 271.703C322.155 271.786 322.22 271.87 322.273 271.953C322.345 272.054 322.416 272.161 322.475 272.262C322.529 272.345 322.576 272.434 322.624 272.517C322.75 272.731 322.857 272.956 322.945 273.189C323.012 273.346 323.065 273.509 323.105 273.676C323.15 273.834 323.184 273.994 323.206 274.157Z" fill="#0D0147"/>
<path opacity="0.2" d="M323.206 274.157C323.2 275.197 323.189 276.652 323.141 278.453C323.135 278.702 323.123 278.958 323.117 279.219C323.058 281.744 322.969 284.863 322.844 288.387C322.838 288.601 322.832 288.809 322.82 289.022C322.654 293.324 322.392 298.333 321.941 306.264C321.103 320.916 319.642 308.278 318.174 313.418C314.098 310.91 309.63 308.284 304.854 305.587C303.992 305.1 303.123 304.611 302.245 304.119C292.691 298.79 282.021 293.205 270.881 287.674C270.441 287.454 269.995 287.234 269.556 287.02C244.038 274.407 216.184 262.138 193.619 253.95C189.264 252.37 185.105 250.944 181.196 249.69C172.961 247.058 165.843 245.217 160.365 244.42C154.661 243.589 150.722 243.886 149.13 245.603C149.071 244.391 149.009 243.23 148.946 242.121C148.922 241.753 148.898 241.39 148.875 241.034C148.911 240.936 148.959 240.843 149.005 240.749C149.012 240.735 149.016 240.721 149.023 240.707C149.034 240.676 149.048 240.646 149.065 240.618C149.082 240.581 149.102 240.545 149.124 240.511C149.143 240.469 149.167 240.429 149.195 240.392C149.249 240.309 149.308 240.22 149.374 240.137C149.422 240.074 149.473 240.015 149.528 239.958C149.546 239.93 149.568 239.904 149.593 239.881C149.617 239.857 149.641 239.828 149.671 239.798C149.683 239.779 149.699 239.763 149.718 239.751C149.765 239.697 149.817 239.647 149.873 239.602C150.085 239.407 150.311 239.228 150.55 239.067C150.633 239.014 150.722 238.96 150.805 238.901C151.404 238.543 152.035 238.24 152.689 237.998C152.915 237.915 153.14 237.837 153.384 237.754C153.473 237.73 153.556 237.701 153.645 237.671C153.776 237.629 153.907 237.588 154.044 237.558C154.721 237.356 155.452 237.184 156.242 237.023C156.479 236.976 156.729 236.928 156.979 236.887C157.181 236.851 157.389 236.816 157.596 236.78C159.361 236.501 161.363 236.293 163.573 236.156C163.781 236.144 163.989 236.132 164.197 236.12C164.441 236.108 164.685 236.097 164.934 236.085C165.142 236.073 165.356 236.067 165.57 236.061C165.778 236.049 165.992 236.043 166.211 236.037C166.812 236.019 167.429 236.002 168.059 235.99C169.854 235.96 171.743 235.972 173.727 236.013C174.648 236.031 175.587 236.061 176.549 236.103C176.609 236.103 176.674 236.108 176.734 236.108C177.571 236.132 178.421 236.174 179.282 236.215C179.889 236.245 180.5 236.275 181.112 236.31C181.689 236.346 182.271 236.382 182.859 236.423C183.317 236.447 183.774 236.483 184.238 236.512C184.63 236.542 185.022 236.572 185.414 236.596C185.883 236.631 186.353 236.667 186.828 236.703C187.482 236.756 188.135 236.81 188.801 236.863C189.46 236.922 190.131 236.982 190.803 237.041C191.474 237.101 192.151 237.166 192.829 237.231C192.9 237.237 192.965 237.243 193.031 237.249C193.649 237.315 194.267 237.374 194.89 237.439C198.348 237.79 201.907 238.2 205.567 238.669C207.754 238.948 209.968 239.247 212.21 239.566C215.614 240.048 219.072 240.57 222.554 241.129C226.041 241.693 229.549 242.289 233.076 242.917C233.967 243.078 234.858 243.238 235.755 243.404C236.848 243.606 237.942 243.812 239.035 244.022C239.724 244.153 240.413 244.284 241.102 244.42C241.922 244.581 242.748 244.741 243.568 244.902C248.969 245.971 254.34 247.112 259.58 248.306C260.442 248.502 261.303 248.704 262.159 248.9C263.87 249.298 265.565 249.702 267.245 250.112C267.708 250.225 268.165 250.338 268.623 250.451C269.77 250.736 270.904 251.021 272.027 251.307V251.312C272.093 251.324 272.158 251.342 272.223 251.36C273.043 251.568 273.857 251.776 274.665 251.99C276.573 252.489 278.448 252.992 280.292 253.499C281.516 253.843 282.728 254.182 283.922 254.527C285.71 255.05 287.463 255.572 289.168 256.095C289.59 256.226 290.012 256.357 290.428 256.481C291.676 256.874 292.899 257.264 294.1 257.652C295.05 257.961 295.977 258.276 296.892 258.591C297.807 258.906 298.704 259.22 299.583 259.535C300.154 259.737 300.712 259.945 301.265 260.147C302.073 260.444 302.857 260.741 303.63 261.044C303.867 261.134 304.099 261.229 304.331 261.318C304.764 261.484 305.186 261.656 305.602 261.829C305.881 261.936 306.155 262.049 306.428 262.167C306.695 262.274 306.969 262.387 307.23 262.5C307.497 262.607 307.759 262.72 308.02 262.839C308.24 262.928 308.454 263.023 308.662 263.118C309.084 263.302 309.506 263.486 309.916 263.676C310.118 263.772 310.32 263.861 310.522 263.956L310.985 264.17C311.05 264.205 311.116 264.235 311.181 264.265C311.686 264.502 312.173 264.74 312.649 264.978C313.094 265.203 313.528 265.429 313.944 265.649C314.437 265.91 314.906 266.166 315.358 266.427C315.447 266.475 315.536 266.528 315.625 266.576C315.928 266.748 316.219 266.926 316.51 267.099C317.081 267.449 317.622 267.794 318.127 268.138C318.626 268.483 319.089 268.822 319.523 269.16C319.523 269.166 319.523 269.166 319.529 269.166C319.737 269.333 319.939 269.499 320.129 269.659C320.438 269.927 320.723 270.182 320.984 270.444C321.072 270.524 321.155 270.61 321.234 270.699C321.268 270.728 321.3 270.76 321.329 270.794C321.454 270.931 321.578 271.068 321.697 271.204C321.84 271.371 321.971 271.537 322.095 271.703C322.155 271.786 322.22 271.87 322.274 271.953C322.345 272.054 322.416 272.161 322.476 272.262C322.529 272.345 322.577 272.434 322.624 272.517C322.75 272.731 322.858 272.956 322.945 273.189C323.01 273.347 323.064 273.51 323.105 273.676C323.15 273.834 323.184 273.994 323.206 274.157Z" fill="black"/>
</svg>
