<svg width="424" height="281" viewBox="0 0 424 281" fill="none" xmlns="http://www.w3.org/2000/svg">
<path d="M91.0252 164.095C71.2015 144.58 62.8289 124.221 67.4491 106.768C73.3782 84.372 99.7186 68.8869 139.716 64.2834L139.864 65.5681C100.423 70.1072 74.4846 85.2448 68.699 107.099C64.2026 124.084 72.4537 143.998 91.9325 163.174L91.0252 164.095Z" fill="#A5A9B2"/>
<path d="M282.291 233.367C257.55 233.367 230.664 229.69 203.959 222.621C170.934 213.878 140.654 200.681 116.392 184.458L117.111 183.383C141.256 199.528 171.402 212.664 204.289 221.371C234.01 229.239 263.953 232.885 290.871 231.923L290.918 233.214C288.075 233.317 285.199 233.368 282.291 233.367Z" fill="#A5A9B2"/>
<path d="M339.051 225.237L338.636 224.012C360.764 216.53 374.604 204.479 378.66 189.158C383.816 169.682 372.615 147.082 347.12 125.52C321.495 103.848 284.543 85.8662 243.07 74.8869L243.4 73.637C285.055 84.6645 322.187 102.74 347.954 124.533C373.852 146.435 385.201 169.504 379.91 189.489C375.738 205.249 361.609 217.61 339.051 225.237Z" fill="#A5A9B2"/>
<path d="M135.867 233.907C87.2516 212.346 49.79 184.373 30.3832 155.14L31.4602 154.425C50.7328 183.455 87.9978 211.263 136.391 232.726L135.867 233.907Z" fill="#A5A9B2"/>
<path d="M306.794 271.261C301.779 271.261 296.679 271.149 291.494 270.925L291.549 269.633C330.248 271.309 364.394 266.678 390.3 256.238L390.783 257.437C368.184 266.543 339.381 271.261 306.794 271.261Z" fill="#A5A9B2"/>
<path d="M278.586 65.4426C270.551 62.8265 262.286 60.3906 254.021 58.2025C206.46 45.6113 159.706 41.1407 118.813 45.2767L118.683 43.9901C159.728 39.8405 206.642 44.3218 254.352 56.9526C262.641 59.147 270.929 61.5898 278.987 64.2135L278.586 65.4426Z" fill="#A5A9B2"/>
<path d="M60.642 166.034C40.8183 146.519 32.4456 126.16 37.0658 108.708C42.995 86.3112 69.3354 70.8261 109.333 66.2227L109.481 67.5074C70.0399 72.0464 44.1013 87.184 38.3158 109.038C33.8194 126.023 42.0704 145.937 61.5492 165.113L60.642 166.034Z" fill="#A5A9B2"/>
<path d="M251.908 235.307C227.167 235.307 200.281 231.63 173.576 224.56C140.551 215.817 110.271 202.621 86.0093 186.397L86.7277 185.323C110.873 201.468 141.019 214.604 173.906 223.31C203.627 231.179 233.57 234.824 260.488 233.862L260.535 235.154C257.692 235.256 254.816 235.307 251.908 235.307Z" fill="#A5A9B2"/>
<path d="M308.667 227.176L308.253 225.951C330.381 218.47 344.221 206.418 348.277 191.098C353.433 171.622 342.232 149.021 316.737 127.459C291.112 105.788 254.16 87.8056 212.687 76.8264L213.017 75.5764C254.672 86.604 291.804 104.679 317.571 126.472C343.469 148.374 354.818 171.443 349.527 191.428C345.355 207.188 331.226 219.549 308.667 227.176Z" fill="#A5A9B2"/>
<path d="M105.484 235.847C56.8684 214.285 19.4068 186.312 0 157.08L1.07701 156.364C20.3496 185.395 57.6146 213.202 106.008 234.665L105.484 235.847Z" fill="#A5A9B2"/>
<path d="M276.411 273.2C271.396 273.2 266.296 273.088 261.11 272.864L261.166 271.573C299.865 273.248 334.01 268.617 359.916 258.177L360.4 259.377C337.801 268.483 308.998 273.2 276.411 273.2Z" fill="#A5A9B2"/>
<path d="M248.203 67.3821C240.168 64.766 231.903 62.3301 223.638 60.142C176.076 47.5507 129.323 43.0802 88.4296 47.2161L88.2996 45.9295C129.345 41.78 176.259 46.2613 223.969 58.892C232.257 61.0864 240.546 63.5292 248.604 66.1529L248.203 67.3821Z" fill="#A5A9B2"/>
<path d="M284.249 260.839C287.106 260.839 289.421 258.524 289.421 255.668C289.421 252.812 287.106 250.496 284.249 250.496C281.393 250.496 279.078 252.812 279.078 255.668C279.078 258.524 281.393 260.839 284.249 260.839Z" fill="#C954FC"/>
<path d="M302.568 172.755C305.425 172.755 307.74 170.44 307.74 167.583C307.74 164.727 305.425 162.412 302.568 162.412C299.712 162.412 297.397 164.727 297.397 167.583C297.397 170.44 299.712 172.755 302.568 172.755Z" fill="#04C8A7"/>
<path d="M206.337 29.3046C209.193 29.3046 211.509 26.9892 211.509 24.133C211.509 21.2768 209.193 18.9614 206.337 18.9614C203.481 18.9614 201.165 21.2768 201.165 24.133C201.165 26.9892 203.481 29.3046 206.337 29.3046Z" fill="#94C8FD"/>
<path d="M97.9632 222.515C97.9632 223.832 98.0065 225.148 98.0986 226.454C98.1961 228.014 98.3641 229.564 98.5916 231.102C99.3563 236.283 100.818 241.336 102.937 246.125C103.045 246.363 103.153 246.602 103.262 246.84L103.424 247.198C103.478 247.317 103.538 247.436 103.592 247.55C103.668 247.707 103.738 247.859 103.814 248.01C103.906 248.2 103.998 248.39 104.096 248.579C104.107 248.601 104.118 248.628 104.134 248.655C104.215 248.818 104.291 248.975 104.378 249.137C104.394 249.173 104.412 249.207 104.432 249.24C104.524 249.424 104.621 249.614 104.719 249.798C104.827 249.993 104.93 250.194 105.039 250.389C105.299 250.871 105.569 251.348 105.846 251.824C105.927 251.965 106.008 252.106 106.095 252.247C106.171 252.377 106.247 252.507 106.328 252.637C106.382 252.724 106.436 252.816 106.49 252.902C106.577 253.049 106.664 253.19 106.756 253.336C106.956 253.655 107.162 253.975 107.363 254.295H107.368C107.46 254.441 107.558 254.587 107.655 254.728V254.734C107.942 255.167 108.24 255.6 108.538 256.028C108.539 256.028 108.54 256.028 108.54 256.029C108.541 256.029 108.542 256.029 108.542 256.03C108.543 256.03 108.543 256.031 108.543 256.032C108.544 256.032 108.544 256.033 108.544 256.034C108.782 256.38 109.031 256.716 109.275 257.052V257.058C109.438 257.269 109.595 257.486 109.757 257.697C109.887 257.87 110.023 258.049 110.158 258.222C110.185 258.26 110.218 258.293 110.245 258.331V258.336C110.283 258.385 110.321 258.428 110.359 258.477C110.933 259.214 111.525 259.934 112.136 260.639L112.233 260.752C112.266 260.79 112.303 260.828 112.336 260.872C112.39 260.931 112.439 260.991 112.493 261.05C112.542 261.11 112.596 261.17 112.65 261.229C115.832 264.813 119.44 267.995 123.393 270.704C123.919 271.067 124.455 271.42 124.991 271.761C125.127 271.848 125.262 271.934 125.398 272.016C125.436 272.043 125.479 272.07 125.517 272.097C125.593 272.14 125.663 272.183 125.739 272.232C125.809 272.276 125.88 272.319 125.956 272.362C126.243 272.541 126.535 272.714 126.828 272.888C126.898 272.931 126.974 272.974 127.05 273.018C127.12 273.056 127.196 273.099 127.272 273.142C127.272 273.148 127.272 273.148 127.278 273.148H127.283V273.153H127.288C127.651 273.364 128.02 273.57 128.394 273.771C128.594 273.879 128.8 273.993 129.006 274.096C129.472 274.35 129.943 274.594 130.414 274.827C130.582 274.908 130.756 274.99 130.924 275.076C131.064 275.141 131.205 275.212 131.346 275.277C131.389 275.299 131.427 275.315 131.465 275.336C131.585 275.391 131.698 275.445 131.817 275.499C131.947 275.559 132.078 275.618 132.202 275.678C132.348 275.743 132.489 275.808 132.636 275.867C133.177 276.111 133.724 276.344 134.272 276.566C136.233 277.37 138.236 278.065 140.274 278.647C140.366 278.674 140.464 278.701 140.561 278.728C141.434 278.972 142.311 279.194 143.194 279.394C144.738 279.752 146.297 280.044 147.87 280.272H147.881C148.07 280.299 148.254 280.326 148.444 280.353C148.46 280.353 148.476 280.359 148.498 280.359C148.498 280.364 148.498 280.364 148.504 280.359C148.709 280.386 148.921 280.413 149.127 280.44C149.141 280.444 149.155 280.446 149.17 280.445C149.365 280.472 149.565 280.494 149.76 280.516C149.972 280.537 150.183 280.559 150.394 280.581C150.557 280.597 150.719 280.613 150.882 280.629C150.896 280.634 150.911 280.636 150.925 280.635C151.071 280.646 151.218 280.662 151.364 280.673H151.386C151.51 280.684 151.64 280.694 151.765 280.705C153.276 280.824 154.793 280.879 156.332 280.879C157.995 280.879 159.647 280.814 161.278 280.673H161.294C161.647 280.64 161.993 280.608 162.34 280.575C162.432 280.564 162.519 280.559 162.611 280.548C162.627 280.548 162.649 280.543 162.665 280.543C162.692 280.537 162.719 280.537 162.752 280.532C162.766 280.532 162.781 280.531 162.795 280.526C162.914 280.516 163.033 280.499 163.158 280.489L163.564 280.44C163.7 280.424 163.835 280.402 163.971 280.386C164.003 280.38 164.03 280.38 164.063 280.375C164.16 280.364 164.258 280.348 164.355 280.331C164.404 280.326 164.453 280.321 164.496 280.315C164.594 280.299 164.686 280.288 164.783 280.272H164.789C167.762 279.844 170.696 279.183 173.565 278.294C173.717 278.246 173.869 278.202 174.02 278.154C174.026 278.154 174.031 278.148 174.036 278.148C174.08 278.132 174.129 278.121 174.172 278.105C174.578 277.975 174.979 277.839 175.38 277.699C175.933 277.514 176.48 277.314 177.027 277.108C177.173 277.048 177.32 276.994 177.466 276.935C177.764 276.821 178.056 276.702 178.349 276.583C178.847 276.382 179.346 276.171 179.839 275.954C180.299 275.748 180.754 275.542 181.209 275.326C181.22 275.32 181.236 275.32 181.247 275.309C181.35 275.261 181.453 275.212 181.551 275.163H181.556C184.051 273.966 186.457 272.592 188.756 271.051C189.493 270.558 190.219 270.049 190.934 269.523C191.508 269.095 192.072 268.662 192.635 268.218C195.415 266.007 197.988 263.548 200.322 260.872V260.866C200.49 260.682 200.648 260.492 200.81 260.303C200.837 260.276 200.859 260.249 200.88 260.227C200.983 260.102 201.081 259.983 201.184 259.864V259.859C201.319 259.701 201.455 259.539 201.585 259.376C201.617 259.338 201.644 259.306 201.671 259.273V259.268C201.78 259.138 201.883 259.008 201.991 258.873C202.045 258.808 202.094 258.743 202.148 258.678V258.672C202.468 258.271 202.777 257.87 203.085 257.459C203.167 257.35 203.248 257.236 203.335 257.123C203.725 256.597 204.104 256.061 204.472 255.524V255.519C204.613 255.319 204.749 255.113 204.889 254.912C205.025 254.706 205.16 254.501 205.296 254.295C205.431 254.078 205.572 253.867 205.708 253.65L205.724 253.618C205.859 253.412 205.995 253.195 206.125 252.984C206.228 252.81 206.331 252.642 206.433 252.474C206.498 252.361 206.569 252.247 206.634 252.128C206.659 252.091 206.683 252.053 206.704 252.014C206.856 251.749 207.008 251.483 207.159 251.218C207.338 250.909 207.512 250.595 207.685 250.28C207.75 250.15 207.82 250.02 207.891 249.89C207.918 249.847 207.94 249.804 207.961 249.76C208.042 249.609 208.124 249.452 208.2 249.294C208.281 249.143 208.362 248.986 208.443 248.828C208.519 248.677 208.6 248.52 208.676 248.363C208.736 248.243 208.79 248.124 208.85 248.005C208.854 247.995 208.859 247.986 208.866 247.978C208.893 247.918 208.92 247.864 208.942 247.81C208.948 247.802 208.954 247.793 208.958 247.783C209.018 247.664 209.072 247.539 209.131 247.42C209.207 247.263 209.278 247.1 209.354 246.943C209.402 246.835 209.456 246.721 209.505 246.607C209.576 246.45 209.652 246.293 209.717 246.131C209.792 245.968 209.863 245.805 209.933 245.638C209.954 245.597 209.972 245.555 209.987 245.513C210.025 245.437 210.052 245.361 210.085 245.285C210.172 245.085 210.258 244.879 210.34 244.679C210.437 244.451 210.529 244.218 210.616 243.991C210.702 243.779 210.784 243.563 210.865 243.346L210.898 243.27C212.16 239.945 213.117 236.513 213.758 233.015V233.009C214.119 231.012 214.378 228.998 214.533 226.974C214.538 226.86 214.549 226.752 214.554 226.644C214.652 225.273 214.695 223.897 214.695 222.515C214.695 221.903 214.684 221.296 214.668 220.69C214.29 208 209.765 195.783 201.785 185.909C201.612 185.692 201.438 185.476 201.26 185.259C201.081 185.042 200.897 184.831 200.718 184.62C194.779 177.665 187.289 172.202 178.852 168.673C170.415 165.144 161.266 163.647 152.144 164.302C143.022 164.957 134.181 167.747 126.335 172.446C118.489 177.145 111.856 183.621 106.973 191.354C106.707 191.776 106.442 192.204 106.187 192.632C105.927 193.066 105.678 193.499 105.429 193.938C100.521 202.662 97.9491 212.506 97.9632 222.515Z" fill="#DBDDE0"/>
<path d="M154.012 184.34C163.61 186.803 173.445 188.222 183.347 188.574C184.845 188.655 186.345 188.645 187.842 188.543C191.13 188.267 193.946 187.233 197.082 186.669C198.59 186.398 200.27 186.2 201.788 185.907C201.437 185.472 201.08 185.042 200.717 184.618C197.443 184.894 194.119 185.8 190.806 186.22C185.175 186.936 178.866 186.137 174.597 184.167C172.526 183.21 170.939 182.017 168.875 181.056C168.595 180.912 168.291 180.819 167.977 180.781C167.382 180.763 166.794 180.916 166.283 181.221C162.821 182.969 157.793 184.389 153.127 183.608C152.779 183.88 153.44 184.19 154.012 184.34Z" fill="white"/>
<path d="M133.363 190.491C133.321 190.483 133.278 190.477 133.235 190.47C133.414 190.359 133.583 190.232 133.74 190.09L133.363 190.491Z" fill="white"/>
<path d="M105.43 193.94C107.379 194.096 109.338 194.212 111.307 194.288C112.804 194.369 114.305 194.359 115.801 194.257C119.089 193.979 121.906 192.947 125.042 192.383C127.917 191.866 131.41 191.617 133.235 190.47C128.518 189.654 123.63 191.316 118.766 191.934C114.832 192.418 110.843 192.221 106.975 191.352C106.437 192.199 105.922 193.062 105.43 193.94Z" fill="white"/>
<path d="M129.006 274.096C129.472 274.35 129.943 274.594 130.414 274.827C130.582 274.908 130.756 274.99 130.924 275.076C131.064 275.141 131.205 275.212 131.346 275.277C131.389 275.298 131.427 275.315 131.465 275.336C131.584 275.39 131.698 275.445 131.817 275.499C131.947 275.558 132.078 275.618 132.202 275.678C132.348 275.743 132.489 275.808 132.636 275.867C133.177 276.111 133.724 276.344 134.272 276.566C136.233 277.37 138.236 278.064 140.274 278.646C140.366 278.673 140.464 278.701 140.561 278.728C141.434 278.971 142.311 279.194 143.194 279.394C144.738 279.752 146.297 280.044 147.87 280.272H147.881C148.07 280.299 148.254 280.326 148.444 280.353C148.46 280.353 148.476 280.358 148.498 280.358C148.498 280.364 148.498 280.364 148.504 280.358C148.709 280.385 148.921 280.413 149.127 280.44C149.141 280.444 149.155 280.446 149.17 280.445C149.365 280.472 149.565 280.494 149.76 280.515C149.972 280.537 150.183 280.559 150.394 280.58C150.557 280.597 150.719 280.613 150.882 280.629C150.896 280.634 150.911 280.636 150.925 280.635C151.071 280.645 151.218 280.662 151.364 280.673H151.386C151.51 280.683 151.64 280.694 151.765 280.705C153.276 280.824 154.793 280.878 156.332 280.878C157.995 280.878 159.647 280.813 161.278 280.673H161.294C161.647 280.64 161.993 280.608 162.34 280.575C162.432 280.564 162.519 280.559 162.611 280.548C162.627 280.548 162.649 280.543 162.665 280.543C162.692 280.537 162.719 280.537 162.752 280.532C162.766 280.532 162.781 280.53 162.795 280.526C162.914 280.515 163.033 280.499 163.158 280.488L163.564 280.44C163.7 280.423 163.835 280.402 163.971 280.385C164.003 280.38 164.03 280.38 164.063 280.375C164.16 280.364 164.258 280.347 164.355 280.331C164.404 280.326 164.453 280.32 164.496 280.315C164.594 280.299 164.686 280.288 164.783 280.272H164.789C167.762 279.844 170.696 279.183 173.565 278.294C173.717 278.246 173.869 278.202 174.02 278.153C173.321 274.891 171.881 271.833 169.811 269.216C167.742 266.599 165.098 264.493 162.085 263.06C162.831 262.35 163.346 261.433 163.564 260.427C163.705 259.779 163.716 259.109 163.597 258.456C163.478 257.804 163.231 257.181 162.871 256.624C162.168 255.545 161.065 254.788 159.805 254.522L151.776 252.843C150.483 252.591 149.144 252.859 148.048 253.589C146.952 254.32 146.189 255.453 145.925 256.743C145.843 257.139 145.807 257.542 145.816 257.946C138.086 263.093 132.522 268.429 129.006 274.096Z" fill="#54A8FC"/>
<path d="M152.712 249.672C161.95 249.672 169.439 242.183 169.439 232.945C169.439 223.707 161.95 216.218 152.712 216.218C143.474 216.218 135.985 223.707 135.985 232.945C135.985 242.183 143.474 249.672 152.712 249.672Z" fill="#FFB8B8"/>
<path d="M142.286 247.366C140.503 246.147 138.681 243.806 137.465 242.051C135.854 239.745 134.745 237.125 134.21 234.362C133.676 231.6 133.728 228.756 134.364 226.015C134.566 224.919 135.064 223.899 135.803 223.065C136.591 222.285 137.878 221.915 138.84 222.467C138.577 221.764 138.462 221.015 138.5 220.266C138.538 219.517 138.73 218.783 139.062 218.111C139.738 216.769 140.718 215.603 141.923 214.705C144.227 212.93 146.969 211.812 149.858 211.47C152.746 211.129 155.674 211.575 158.329 212.762C159.374 213.247 157.657 209.507 158.751 209.868C159.838 210.289 161.045 210.267 162.116 209.809C163.145 209.291 166.554 212.367 166.16 211.285C166.94 211.64 167.619 212.186 168.131 212.873C168.644 213.56 168.974 214.366 169.092 215.215C169.209 216.064 169.11 216.929 168.803 217.73C168.496 218.53 167.991 219.24 167.336 219.793C166.473 220.522 165.395 220.941 164.45 221.56C162.794 222.725 161.622 224.456 161.155 226.426C160.688 228.397 160.958 230.47 161.915 232.254C160.921 231.615 159.829 231.141 158.684 230.85C158.109 230.71 157.509 230.709 156.934 230.847C156.358 230.986 155.825 231.259 155.376 231.646C155.002 232.074 154.719 232.575 154.545 233.116C154.371 233.658 154.31 234.23 154.365 234.796C154.402 235.931 154.672 237.05 154.703 238.185C154.792 241.516 156.576 247.85 153.993 249.621C151.955 251.018 144.722 249.03 142.286 247.366Z" fill="#222428"/>
<path d="M164.214 149.221C163.861 149.221 163.513 149.15 163.188 149.014C162.703 148.819 162.288 148.482 161.998 148.048C161.707 147.613 161.555 147.101 161.56 146.579V143.931C161.56 143.376 161.339 142.843 160.946 142.45C160.554 142.058 160.021 141.837 159.466 141.836C158.767 141.835 158.097 141.557 157.602 141.063C157.108 140.569 156.83 139.899 156.829 139.2V102.926C156.83 102.227 157.108 101.557 157.602 101.063C158.096 100.569 158.767 100.291 159.466 100.29H279.641C280.34 100.291 281.01 100.569 281.505 101.063C281.999 101.557 282.277 102.227 282.278 102.926V139.2C282.277 139.899 281.999 140.569 281.505 141.063C281.01 141.557 280.34 141.835 279.641 141.836H173.536C173.26 141.835 172.988 141.889 172.733 141.995C172.479 142.1 172.248 142.255 172.054 142.45L166.061 148.443C165.82 148.688 165.533 148.884 165.216 149.017C164.898 149.151 164.558 149.22 164.214 149.221Z" fill="white"/>
<path d="M164.213 149.763C163.79 149.763 163.371 149.678 162.98 149.514C162.395 149.279 161.896 148.873 161.546 148.35C161.196 147.826 161.012 147.209 161.018 146.579V143.931C161.018 143.52 160.854 143.125 160.563 142.833C160.272 142.542 159.877 142.378 159.466 142.378C158.623 142.377 157.815 142.042 157.219 141.446C156.623 140.85 156.288 140.042 156.287 139.199V102.926C156.288 102.084 156.623 101.276 157.219 100.68C157.815 100.084 158.623 99.749 159.465 99.748H279.641C280.484 99.749 281.292 100.084 281.888 100.68C282.483 101.276 282.819 102.084 282.819 102.926V139.199C282.819 140.042 282.483 140.85 281.888 141.446C281.292 142.042 280.484 142.377 279.641 142.378H173.535C173.331 142.377 173.129 142.417 172.941 142.495C172.752 142.573 172.581 142.688 172.437 142.833L166.444 148.826C166.153 149.122 165.806 149.357 165.423 149.518C165.04 149.679 164.629 149.762 164.213 149.763ZM159.465 100.832C158.91 100.832 158.378 101.053 157.985 101.446C157.592 101.839 157.371 102.371 157.371 102.926V139.199C157.371 139.755 157.592 140.287 157.985 140.68C158.378 141.073 158.91 141.294 159.466 141.294C160.165 141.295 160.835 141.573 161.329 142.068C161.823 142.562 162.101 143.232 162.102 143.931V146.579C162.102 146.993 162.225 147.398 162.455 147.742C162.685 148.087 163.013 148.355 163.395 148.514C163.778 148.672 164.199 148.714 164.605 148.633C165.012 148.552 165.385 148.352 165.678 148.06L171.671 142.067C171.915 141.821 172.206 141.626 172.526 141.494C172.846 141.361 173.189 141.293 173.535 141.294H279.641C280.197 141.294 280.729 141.073 281.122 140.68C281.515 140.287 281.735 139.755 281.736 139.199V102.926C281.735 102.371 281.514 101.838 281.122 101.446C280.729 101.053 280.197 100.832 279.641 100.832L159.465 100.832Z" fill="#41454C"/>
<path d="M269.314 116.712H171.864C171.492 116.712 171.135 116.564 170.872 116.301C170.609 116.037 170.461 115.68 170.461 115.308C170.461 114.936 170.609 114.579 170.872 114.316C171.135 114.052 171.492 113.905 171.864 113.905H269.314C269.687 113.905 270.044 114.052 270.307 114.316C270.57 114.579 270.718 114.936 270.718 115.308C270.718 115.68 270.57 116.037 270.307 116.301C270.044 116.564 269.687 116.712 269.314 116.712Z" fill="#54A8FC"/>
<path d="M269.135 122.675H171.864C171.492 122.675 171.135 122.527 170.872 122.264C170.609 122.001 170.461 121.644 170.461 121.271C170.461 120.899 170.609 120.542 170.872 120.279C171.135 120.016 171.492 119.868 171.864 119.868H269.135C269.508 119.868 269.865 120.016 270.128 120.279C270.391 120.542 270.539 120.899 270.539 121.271C270.539 121.644 270.391 122.001 270.128 122.264C269.865 122.527 269.508 122.675 269.135 122.675Z" fill="#6F7683"/>
<path d="M269.038 128.638H171.864C171.492 128.638 171.135 128.49 170.872 128.226C170.609 127.963 170.461 127.606 170.461 127.234C170.461 126.862 170.609 126.505 170.872 126.241C171.135 125.978 171.492 125.83 171.864 125.83H269.038C269.411 125.83 269.768 125.978 270.031 126.241C270.294 126.505 270.442 126.862 270.442 127.234C270.442 127.606 270.294 127.963 270.031 128.226C269.768 128.49 269.411 128.638 269.038 128.638Z" fill="#6F7683"/>
<path d="M422.778 94.6609C422.778 95.9773 422.735 97.2938 422.643 98.5994C422.545 100.16 422.377 101.709 422.15 103.248C421.385 108.428 419.923 113.482 417.805 118.271C417.696 118.509 417.588 118.747 417.48 118.986L417.317 119.343C417.263 119.462 417.203 119.582 417.149 119.695C417.073 119.853 417.003 120.004 416.927 120.156C416.835 120.346 416.743 120.535 416.645 120.725C416.634 120.746 416.624 120.773 416.607 120.801C416.526 120.963 416.45 121.12 416.364 121.283C416.348 121.318 416.33 121.353 416.309 121.386C416.217 121.57 416.12 121.759 416.022 121.944C415.914 122.139 415.811 122.339 415.703 122.534C415.443 123.016 415.172 123.493 414.895 123.97C414.814 124.111 414.733 124.252 414.646 124.392C414.57 124.522 414.495 124.652 414.413 124.782C414.359 124.869 414.305 124.961 414.251 125.048C414.164 125.194 414.077 125.335 413.985 125.481C413.785 125.801 413.579 126.121 413.378 126.44H413.373C413.281 126.587 413.183 126.733 413.086 126.874V126.879C412.799 127.312 412.501 127.746 412.203 128.174C412.202 128.174 412.201 128.174 412.201 128.174C412.2 128.174 412.2 128.175 412.199 128.175C412.199 128.176 412.198 128.177 412.198 128.177C412.198 128.178 412.197 128.179 412.197 128.179C411.959 128.526 411.71 128.862 411.466 129.198V129.203C411.304 129.414 411.146 129.631 410.984 129.842C410.854 130.016 410.718 130.195 410.583 130.368C410.556 130.406 410.523 130.438 410.496 130.476V130.482C410.458 130.53 410.42 130.574 410.383 130.623C409.808 131.359 409.216 132.08 408.606 132.784L408.508 132.898C408.476 132.936 408.438 132.974 408.405 133.017C408.351 133.077 408.302 133.136 408.248 133.196C408.199 133.256 408.145 133.315 408.091 133.375C404.909 136.959 401.301 140.141 397.348 142.85C396.822 143.213 396.286 143.565 395.75 143.906C395.614 143.993 395.479 144.08 395.343 144.161C395.306 144.188 395.262 144.215 395.224 144.242C395.148 144.286 395.078 144.329 395.002 144.378C394.932 144.421 394.861 144.464 394.785 144.508C394.498 144.687 394.206 144.86 393.913 145.033C393.843 145.077 393.767 145.12 393.691 145.163C393.621 145.201 393.545 145.245 393.469 145.288C393.469 145.293 393.469 145.293 393.464 145.293H393.458V145.299H393.453C393.09 145.51 392.721 145.716 392.348 145.916C392.147 146.025 391.941 146.138 391.735 146.241C391.269 146.496 390.798 146.74 390.327 146.973C390.159 147.054 389.985 147.135 389.818 147.222C389.677 147.287 389.536 147.357 389.395 147.422C389.352 147.444 389.314 147.46 389.276 147.482C389.157 147.536 389.043 147.59 388.924 147.645C388.794 147.704 388.664 147.764 388.539 147.823C388.393 147.888 388.252 147.953 388.106 148.013C387.564 148.257 387.017 148.49 386.47 148.712C384.509 149.516 382.505 150.21 380.467 150.792C380.375 150.819 380.277 150.846 380.18 150.873C379.307 151.117 378.43 151.339 377.547 151.54C376.003 151.897 374.444 152.19 372.871 152.417H372.861C372.671 152.445 372.487 152.472 372.297 152.499C372.281 152.499 372.265 152.504 372.243 152.504C372.243 152.509 372.243 152.509 372.238 152.504C372.032 152.531 371.82 152.558 371.615 152.585C371.6 152.59 371.586 152.591 371.571 152.591C371.376 152.618 371.176 152.64 370.981 152.661C370.769 152.683 370.558 152.705 370.347 152.726C370.184 152.742 370.022 152.759 369.859 152.775C369.845 152.78 369.831 152.782 369.816 152.78C369.67 152.791 369.523 152.807 369.377 152.818H369.355C369.231 152.829 369.101 152.84 368.976 152.851C367.465 152.97 365.948 153.024 364.409 153.024C362.746 153.024 361.094 152.959 359.463 152.818H359.447C359.095 152.786 358.748 152.753 358.401 152.721C358.309 152.71 358.222 152.705 358.13 152.694C358.114 152.694 358.092 152.688 358.076 152.688C358.049 152.683 358.022 152.683 357.989 152.677C357.975 152.678 357.96 152.676 357.946 152.672C357.827 152.661 357.708 152.645 357.583 152.634L357.177 152.585C357.041 152.569 356.906 152.547 356.77 152.531C356.738 152.526 356.711 152.526 356.678 152.52C356.581 152.509 356.483 152.493 356.386 152.477C356.337 152.472 356.288 152.466 356.245 152.461C356.147 152.445 356.055 152.434 355.958 152.417H355.952C352.98 151.989 350.045 151.328 347.176 150.44C347.024 150.391 346.873 150.348 346.721 150.299C346.715 150.299 346.71 150.294 346.705 150.294C346.661 150.277 346.613 150.267 346.569 150.25C346.163 150.12 345.762 149.985 345.361 149.844C344.808 149.66 344.261 149.459 343.714 149.254C343.568 149.194 343.422 149.14 343.275 149.08C342.977 148.966 342.685 148.847 342.392 148.728C341.894 148.528 341.395 148.316 340.902 148.1C340.442 147.894 339.987 147.688 339.532 147.471C339.521 147.466 339.505 147.466 339.494 147.455C339.391 147.406 339.288 147.357 339.19 147.309H339.185C336.69 146.111 334.284 144.737 331.985 143.197C331.248 142.704 330.522 142.195 329.807 141.669C329.233 141.241 328.67 140.808 328.106 140.363C325.327 138.152 322.754 135.694 320.419 133.017V133.012C320.251 132.828 320.094 132.638 319.931 132.448C319.904 132.421 319.882 132.394 319.861 132.372C319.758 132.248 319.66 132.129 319.557 132.009V132.004C319.422 131.847 319.286 131.684 319.156 131.522C319.124 131.484 319.097 131.452 319.07 131.419V131.414C318.961 131.284 318.858 131.154 318.75 131.018C318.696 130.953 318.647 130.888 318.593 130.823V130.818C318.273 130.417 317.965 130.016 317.656 129.604C317.574 129.496 317.493 129.382 317.407 129.268C317.016 128.743 316.637 128.206 316.269 127.67V127.665C316.128 127.464 315.993 127.258 315.852 127.058C315.716 126.852 315.581 126.646 315.445 126.44C315.31 126.224 315.169 126.012 315.034 125.796L315.017 125.763C314.882 125.557 314.746 125.341 314.616 125.129C314.514 124.956 314.411 124.788 314.308 124.62C314.243 124.506 314.172 124.392 314.107 124.273C314.082 124.237 314.058 124.199 314.037 124.159C313.885 123.894 313.733 123.629 313.582 123.363C313.403 123.054 313.23 122.74 313.056 122.426C312.991 122.296 312.921 122.166 312.85 122.036C312.823 121.992 312.802 121.949 312.78 121.906C312.699 121.754 312.617 121.597 312.542 121.44C312.46 121.288 312.379 121.131 312.298 120.974C312.222 120.822 312.141 120.665 312.065 120.508C312.005 120.389 311.951 120.27 311.891 120.15C311.887 120.141 311.882 120.132 311.875 120.123C311.848 120.064 311.821 120.01 311.799 119.955C311.793 119.947 311.787 119.938 311.783 119.928C311.723 119.809 311.669 119.685 311.61 119.565C311.534 119.408 311.463 119.246 311.388 119.089C311.339 118.98 311.285 118.867 311.236 118.753C311.165 118.596 311.09 118.439 311.025 118.276C310.949 118.114 310.878 117.951 310.808 117.783C310.788 117.743 310.77 117.701 310.754 117.658C310.716 117.583 310.689 117.507 310.656 117.431C310.57 117.23 310.483 117.025 310.402 116.824C310.304 116.597 310.212 116.364 310.125 116.136C310.039 115.925 309.957 115.708 309.876 115.491L309.844 115.416C308.581 112.091 307.624 108.658 306.983 105.16V105.155C306.622 103.158 306.363 101.143 306.208 99.1195C306.203 99.0058 306.192 98.8974 306.187 98.7891C306.089 97.4184 306.046 96.0424 306.046 94.6609C306.046 94.0487 306.057 93.442 306.073 92.8352C306.451 80.1453 310.976 67.9287 318.956 58.0545C319.129 57.8378 319.303 57.6211 319.481 57.4044C319.66 57.1877 319.844 56.9764 320.023 56.7651C325.962 49.8101 333.452 44.3479 341.889 40.8188C350.327 37.2897 359.475 35.7924 368.597 36.4476C377.719 37.1029 386.56 39.8924 394.406 44.5912C402.252 49.29 408.885 55.7667 413.769 63.4991C414.034 63.9217 414.299 64.3497 414.554 64.7777C414.814 65.2111 415.063 65.6445 415.313 66.0833C420.22 74.8073 422.792 84.6511 422.778 94.6609Z" fill="#DBDDE0"/>
<path d="M366.729 56.4856C357.132 58.9483 347.296 60.3678 337.394 60.7196C335.897 60.8011 334.396 60.7909 332.899 60.689C329.612 60.4124 326.795 59.3791 323.659 58.8143C322.151 58.5436 320.471 58.3457 318.953 58.0531C319.304 57.6179 319.661 57.1881 320.024 56.7636C323.298 57.0401 326.622 57.9454 329.935 58.3661C335.566 59.0821 341.875 58.2831 346.144 56.3124C348.215 55.3561 349.802 54.1626 351.866 53.202C352.146 53.0579 352.451 52.9648 352.764 52.9269C353.359 52.9091 353.947 53.0616 354.458 53.3665C357.921 55.1145 362.948 56.5351 367.614 55.7535C367.962 56.0256 367.301 56.3356 366.729 56.4856Z" fill="white"/>
<path d="M387.378 62.637C387.421 62.6292 387.463 62.6232 387.506 62.6158C387.327 62.5047 387.158 62.3775 387.002 62.2358L387.378 62.637Z" fill="white"/>
<path d="M415.312 66.0858C413.363 66.2415 411.404 66.3574 409.434 66.4336C407.937 66.5145 406.436 66.5043 404.94 66.4031C401.652 66.1251 398.836 65.0931 395.699 64.5284C392.824 64.0117 389.331 63.7628 387.506 62.6159C392.223 61.7994 397.111 63.4615 401.975 64.0801C405.91 64.5639 409.898 64.367 413.766 63.4979C414.304 64.345 414.82 65.2076 415.312 66.0858Z" fill="white"/>
<path d="M357.829 120.2C367.511 120.2 375.36 112.177 375.36 102.279C375.36 92.3814 367.511 84.3579 357.829 84.3579C348.148 84.3579 340.299 92.3814 340.299 102.279C340.299 112.177 348.148 120.2 357.829 120.2Z" fill="#FFB6B6"/>
<path d="M391.735 146.241C391.27 146.496 390.798 146.74 390.327 146.973C390.159 147.054 389.986 147.135 389.818 147.222C389.677 147.287 389.536 147.357 389.395 147.422C389.352 147.444 389.314 147.46 389.276 147.482C389.157 147.536 389.043 147.59 388.924 147.645C388.794 147.704 388.664 147.764 388.539 147.823C388.393 147.888 388.252 147.953 388.106 148.013C387.564 148.257 387.017 148.49 386.47 148.712C384.509 149.516 382.505 150.21 380.467 150.792C380.375 150.819 380.277 150.846 380.18 150.873C379.308 151.117 378.43 151.339 377.547 151.54C376.003 151.897 374.444 152.19 372.871 152.417H372.861C372.671 152.444 372.487 152.472 372.297 152.499C372.281 152.499 372.265 152.504 372.243 152.504C372.243 152.509 372.243 152.509 372.238 152.504C372.032 152.531 371.82 152.558 371.615 152.585C371.601 152.589 371.586 152.591 371.571 152.591C371.376 152.618 371.176 152.639 370.981 152.661C370.769 152.683 370.558 152.705 370.347 152.726C370.184 152.742 370.022 152.759 369.859 152.775C369.845 152.78 369.831 152.782 369.816 152.78C369.67 152.791 369.523 152.807 369.377 152.818H369.355C369.231 152.829 369.101 152.84 368.976 152.851C367.465 152.97 365.948 153.024 364.409 153.024C362.746 153.024 361.094 152.959 359.463 152.818H359.447C359.095 152.786 358.748 152.753 358.401 152.721C358.309 152.71 358.222 152.704 358.13 152.694C358.114 152.694 358.092 152.688 358.076 152.688C358.049 152.683 358.022 152.683 357.989 152.677C357.975 152.678 357.96 152.676 357.946 152.672C357.827 152.661 357.708 152.645 357.583 152.634L357.177 152.585C357.041 152.569 356.906 152.547 356.771 152.531C356.738 152.526 356.711 152.526 356.678 152.52C356.581 152.509 356.483 152.493 356.386 152.477C356.337 152.472 356.288 152.466 356.245 152.461C356.148 152.444 356.055 152.434 355.958 152.417H355.952C352.98 151.989 350.045 151.328 347.176 150.44C347.024 150.391 346.873 150.348 346.721 150.299C347.42 147.037 348.861 143.979 350.93 141.362C352.999 138.745 355.643 136.639 358.656 135.206C357.911 134.496 357.395 133.579 357.177 132.573C357.036 131.925 357.025 131.255 357.144 130.602C357.263 129.949 357.51 129.327 357.87 128.77C358.573 127.69 359.676 126.934 360.937 126.668L368.965 124.988C370.258 124.736 371.598 125.005 372.693 125.735C373.789 126.466 374.552 127.599 374.816 128.889C374.898 129.284 374.935 129.688 374.925 130.092C382.656 135.238 388.219 140.575 391.735 146.241Z" fill="#54A8FC"/>
<path d="M404.739 94.5067C401.759 91.0318 400.342 86.4215 397.96 82.4755C395.578 78.5296 391.433 74.9979 387.053 75.9162C384.035 76.5492 381.702 79.2131 380.52 82.1831C379.34 85.153 379.118 88.4282 378.911 91.6367C378.984 85.043 374.64 78.6507 368.656 76.5467C362.672 74.4427 355.511 76.7896 351.75 82.087C350.109 80.5661 347.968 79.7001 345.731 79.6531C343.494 79.6061 341.318 80.3815 339.614 81.8322C336.251 84.8383 335.507 90.5598 337.98 94.3941C340.454 98.2284 345.81 99.6568 349.741 97.5302L351.131 98.8086C350.349 101.545 351.866 104.776 354.416 105.806C356.484 106.641 359.403 106.502 360.177 108.672C360.717 110.189 359.707 111.807 358.632 112.972C357.557 114.137 356.28 115.341 356.151 116.953C355.956 119.386 358.47 121.09 360.755 121.603C366.266 122.841 372.38 120.289 375.556 115.426C375.617 115.332 375.684 115.238 375.756 115.144C377.538 112.865 378.836 110.247 379.572 107.45C380.308 104.652 380.466 101.734 380.036 98.8733C379.857 97.7494 380.037 96.9134 380.812 96.6472C384.162 95.4967 393.546 97.9114 396.386 100.094C399.226 102.276 401.5 105.164 404.236 107.488C406.972 109.811 410.458 111.603 413.931 110.97C416.713 110.464 419.08 108.444 420.672 106.008C422.263 103.572 423.179 100.732 424 97.91C417.848 101.464 409.429 99.9761 404.739 94.5067Z" fill="#222428"/>
<path d="M44.8712 58.3633C44.8712 59.6797 44.9145 60.9962 45.0066 62.3018C45.1041 63.8621 45.2721 65.4115 45.4996 66.9501C46.2643 72.1306 47.7258 77.184 49.8445 81.9729C49.9528 82.2113 50.0611 82.4497 50.1695 82.6881L50.332 83.0456C50.3862 83.1648 50.4458 83.284 50.5 83.3978C50.5758 83.5549 50.6463 83.7066 50.7221 83.8583C50.8142 84.0479 50.9063 84.2375 51.0038 84.4271C51.0146 84.4488 51.0255 84.4759 51.0417 84.503C51.123 84.6655 51.1989 84.8226 51.2855 84.9851C51.3015 85.0205 51.3196 85.0549 51.3397 85.088C51.4318 85.2722 51.5293 85.4619 51.6268 85.646C51.7352 85.8411 51.8381 86.0415 51.9465 86.2366C52.2065 86.7187 52.4774 87.1955 52.7537 87.6722C52.8349 87.8131 52.9162 87.9539 53.0029 88.0948C53.0787 88.2248 53.1546 88.3548 53.2359 88.4849C53.29 88.5715 53.3442 88.6636 53.3984 88.7503C53.4851 88.8966 53.5717 89.0374 53.6638 89.1837C53.8643 89.5033 54.0701 89.823 54.2706 90.1426H54.276C54.3681 90.2889 54.4656 90.4352 54.5631 90.576V90.5815C54.8503 91.0149 55.1482 91.4483 55.4462 91.8762C55.4469 91.8762 55.4476 91.8763 55.4483 91.8766C55.449 91.8769 55.4496 91.8773 55.4501 91.8778C55.4506 91.8783 55.451 91.8789 55.4513 91.8795C55.4515 91.8802 55.4516 91.8809 55.4516 91.8816C55.69 92.2283 55.9392 92.5642 56.183 92.9001V92.9055C56.3455 93.1168 56.5026 93.3335 56.6652 93.5448C56.7952 93.7182 56.9306 93.897 57.0661 94.0703C57.0931 94.1082 57.1256 94.1407 57.1527 94.1787V94.1841C57.1907 94.2328 57.2286 94.2762 57.2665 94.3249C57.8408 95.0617 58.4331 95.7823 59.0435 96.4865L59.141 96.6003C59.1735 96.6383 59.2114 96.6762 59.2439 96.7195C59.2981 96.7791 59.3468 96.8387 59.401 96.8983C59.4498 96.9579 59.504 97.0175 59.5581 97.0771C62.7399 100.661 66.3476 103.843 70.3011 106.552C70.8267 106.915 71.363 107.267 71.8993 107.609C72.0348 107.695 72.1702 107.782 72.3056 107.863C72.3436 107.89 72.3869 107.918 72.4248 107.945C72.5007 107.988 72.5711 108.031 72.6469 108.08C72.7174 108.123 72.7878 108.167 72.8636 108.21C73.1508 108.389 73.4433 108.562 73.7359 108.736C73.8063 108.779 73.8822 108.822 73.958 108.866C74.0284 108.904 74.1043 108.947 74.1801 108.99C74.1801 108.996 74.1801 108.996 74.1855 108.996H74.1909V109.001H74.1964C74.5594 109.212 74.9277 109.418 75.3015 109.619C75.502 109.727 75.7079 109.841 75.9137 109.944C76.3796 110.198 76.851 110.442 77.3223 110.675C77.4902 110.756 77.6636 110.838 77.8315 110.924C77.9724 110.989 78.1133 111.06 78.2541 111.125C78.2975 111.146 78.3354 111.163 78.3733 111.184C78.4925 111.239 78.6063 111.293 78.7254 111.347C78.8555 111.407 78.9855 111.466 79.1101 111.526C79.2564 111.591 79.3972 111.656 79.5435 111.715C80.0852 111.959 80.6324 112.192 81.1796 112.414C83.1405 113.218 85.1445 113.912 87.1822 114.495C87.2743 114.522 87.3718 114.549 87.4694 114.576C88.3416 114.82 89.2193 115.042 90.1023 115.242C91.6463 115.6 93.2048 115.892 94.7777 116.12H94.7885C94.9781 116.147 95.1623 116.174 95.3519 116.201C95.3682 116.201 95.3844 116.206 95.4061 116.206C95.4061 116.212 95.4061 116.212 95.4115 116.206C95.6174 116.234 95.8287 116.261 96.0345 116.288C96.0486 116.292 96.0632 116.294 96.0779 116.293C96.2729 116.32 96.4734 116.342 96.6684 116.364C96.8797 116.385 97.0909 116.407 97.3022 116.429C97.4648 116.445 97.6273 116.461 97.7898 116.477C97.8037 116.482 97.8185 116.484 97.8332 116.483C97.9794 116.494 98.1257 116.51 98.272 116.521H98.2937C98.4183 116.532 98.5483 116.542 98.6729 116.553C100.184 116.672 101.701 116.727 103.24 116.727C104.903 116.727 106.555 116.662 108.186 116.521H108.202C108.555 116.488 108.901 116.456 109.248 116.423C109.34 116.412 109.427 116.407 109.519 116.396C109.535 116.396 109.557 116.391 109.573 116.391C109.6 116.385 109.627 116.385 109.66 116.38C109.674 116.38 109.689 116.379 109.703 116.374C109.822 116.364 109.941 116.347 110.066 116.336L110.472 116.288C110.608 116.271 110.743 116.25 110.879 116.234C110.911 116.228 110.938 116.228 110.971 116.223C111.068 116.212 111.166 116.196 111.263 116.179C111.312 116.174 111.361 116.169 111.404 116.163C111.502 116.147 111.594 116.136 111.691 116.12H111.697C114.669 115.692 117.604 115.031 120.473 114.142C120.625 114.094 120.777 114.05 120.928 114.002C120.934 114.002 120.939 113.996 120.944 113.996C120.988 113.98 121.037 113.969 121.08 113.953C121.486 113.823 121.887 113.687 122.288 113.546C122.841 113.362 123.388 113.162 123.935 112.956C124.081 112.896 124.227 112.842 124.374 112.783C124.672 112.669 124.964 112.55 125.257 112.43C125.755 112.23 126.254 112.019 126.747 111.802C127.207 111.596 127.662 111.39 128.117 111.174C128.128 111.168 128.144 111.168 128.155 111.157C128.258 111.109 128.361 111.06 128.459 111.011H128.464C130.959 109.814 133.365 108.44 135.664 106.899C136.401 106.406 137.127 105.897 137.842 105.371C138.416 104.943 138.979 104.51 139.543 104.066C142.323 101.855 144.896 99.3959 147.23 96.7195V96.7141C147.398 96.5299 147.555 96.3403 147.718 96.1507C147.745 96.1236 147.767 96.0965 147.788 96.0749C147.891 95.9502 147.989 95.8311 148.092 95.7119V95.7065C148.227 95.5493 148.363 95.3868 148.493 95.2243C148.525 95.1864 148.552 95.1539 148.579 95.1214V95.1159C148.688 94.9859 148.791 94.8559 148.899 94.7205C148.953 94.6555 149.002 94.5904 149.056 94.5254V94.52C149.376 94.1191 149.685 93.7182 149.993 93.3065C150.075 93.1981 150.156 93.0844 150.243 92.9706C150.633 92.4451 151.012 91.9087 151.38 91.3724V91.367C151.521 91.1665 151.657 90.9607 151.797 90.7602C151.933 90.5544 152.068 90.3485 152.204 90.1427C152.339 89.926 152.48 89.7147 152.615 89.498L152.632 89.4655C152.767 89.2596 152.903 89.0429 153.033 88.8316C153.136 88.6582 153.238 88.4903 153.341 88.3223C153.406 88.2086 153.477 88.0948 153.542 87.9756C153.567 87.939 153.591 87.901 153.612 87.8619C153.764 87.5964 153.916 87.3309 154.067 87.0655C154.246 86.7567 154.42 86.4425 154.593 86.1283C154.658 85.9982 154.728 85.8682 154.799 85.7382C154.826 85.6948 154.848 85.6515 154.869 85.6082C154.95 85.4565 155.032 85.2994 155.108 85.1423C155.189 84.9906 155.27 84.8335 155.351 84.6764C155.427 84.5247 155.508 84.3675 155.584 84.2104C155.644 84.0912 155.698 83.9721 155.758 83.8529C155.762 83.8432 155.767 83.8341 155.774 83.8258C155.801 83.7662 155.828 83.712 155.85 83.6578C155.856 83.6496 155.862 83.6405 155.866 83.6308C155.926 83.5116 155.98 83.387 156.039 83.2678C156.115 83.1107 156.186 82.9481 156.261 82.791C156.31 82.6827 156.364 82.5689 156.413 82.4551C156.484 82.298 156.559 82.1409 156.624 81.9784C156.7 81.8159 156.771 81.6534 156.841 81.4854C156.861 81.4449 156.88 81.4033 156.895 81.3608C156.933 81.285 156.96 81.2091 156.993 81.1333C157.08 80.9328 157.166 80.727 157.247 80.5265C157.345 80.2989 157.437 80.066 157.524 79.8385C157.61 79.6272 157.692 79.4105 157.773 79.1938L157.805 79.1179C159.068 75.7932 160.025 72.3606 160.666 68.8625V68.8571C161.027 66.86 161.286 64.8456 161.441 62.8219C161.446 62.7082 161.457 62.5998 161.462 62.4915C161.56 61.1208 161.603 59.7448 161.603 58.3633C161.603 57.7511 161.592 57.1443 161.576 56.5376C161.198 43.8477 156.673 31.6311 148.693 21.7569C148.52 21.5402 148.346 21.3235 148.168 21.1068C147.989 20.8901 147.805 20.6788 147.626 20.4675C141.687 13.5125 134.197 8.0503 125.76 4.52117C117.322 0.992041 108.174 -0.505235 99.0519 0.150034C89.9298 0.805303 81.0893 3.59478 73.2431 8.2936C65.3968 12.9924 58.7644 19.4691 53.8806 27.2015C53.6151 27.6241 53.3497 28.0521 53.095 28.4801C52.835 28.9135 52.5858 29.3469 52.3366 29.7857C47.4286 38.5097 44.8571 48.3535 44.8712 58.3633Z" fill="#DBDDE0"/>
<path d="M100.92 20.1877C110.518 22.6504 120.353 24.07 130.255 24.4217C131.752 24.5033 133.253 24.4931 134.75 24.3911C138.037 24.1146 140.854 23.0812 143.99 22.5165C145.498 22.2458 147.178 22.0478 148.696 21.7553C148.345 21.3201 147.988 20.8902 147.625 20.4657C144.351 20.7423 141.027 21.6476 137.714 22.0682C132.083 22.7843 125.774 21.9852 121.505 20.0145C119.434 19.0583 117.847 17.8648 115.783 16.9042C115.503 16.7601 115.199 16.6669 114.885 16.6291C114.29 16.6112 113.702 16.7637 113.191 17.0686C109.729 18.8167 104.701 20.2372 100.035 19.4556C99.6872 19.7278 100.348 20.0378 100.92 20.1877Z" fill="white"/>
<path d="M80.271 26.3394C80.2284 26.3316 80.1857 26.3255 80.1431 26.3182C80.3223 26.2071 80.4911 26.0799 80.6473 25.9382L80.271 26.3394Z" fill="white"/>
<path d="M52.3378 29.7879C54.2866 29.9437 56.2457 30.0596 58.215 30.1358C59.7124 30.2166 61.2133 30.2064 62.7095 30.1052C65.9974 29.8272 68.8137 28.7953 71.9503 28.2305C74.8249 27.7138 78.318 27.465 80.1432 26.3181C75.426 25.5015 70.5385 27.1637 65.6743 27.7823C61.7397 28.2661 57.7512 28.0691 53.8835 27.2001C53.345 28.0472 52.8297 28.9098 52.3378 29.7879Z" fill="white"/>
<path d="M75.9137 109.944C76.3796 110.198 76.8509 110.442 77.3223 110.675C77.4902 110.756 77.6636 110.838 77.8315 110.924C77.9724 110.989 78.1132 111.06 78.2541 111.125C78.2974 111.146 78.3353 111.163 78.3733 111.184C78.4925 111.239 78.6062 111.293 78.7254 111.347C78.8554 111.407 78.9855 111.466 79.1101 111.526C79.2563 111.591 79.3972 111.656 79.5435 111.715C80.0852 111.959 80.6324 112.192 81.1796 112.414C83.1405 113.218 85.1444 113.912 87.1822 114.495C87.2743 114.522 87.3718 114.549 87.4693 114.576C88.3416 114.82 89.2193 115.042 90.1023 115.242C91.6463 115.6 93.2048 115.892 94.7777 116.12H94.7885C94.9781 116.147 95.1623 116.174 95.3519 116.201C95.3682 116.201 95.3844 116.206 95.4061 116.206C95.4061 116.212 95.4061 116.212 95.4115 116.206C95.6174 116.234 95.8286 116.261 96.0345 116.288C96.0486 116.292 96.0632 116.294 96.0779 116.293C96.2729 116.32 96.4733 116.342 96.6684 116.364C96.8796 116.385 97.0909 116.407 97.3022 116.429C97.4648 116.445 97.6273 116.461 97.7898 116.477C97.8037 116.482 97.8185 116.484 97.8331 116.483C97.9794 116.494 98.1257 116.51 98.272 116.521H98.2936C98.4182 116.532 98.5483 116.542 98.6729 116.553C100.184 116.672 101.701 116.727 103.24 116.727C104.903 116.727 106.555 116.662 108.186 116.521H108.202C108.554 116.488 108.901 116.456 109.248 116.423C109.34 116.412 109.427 116.407 109.519 116.396C109.535 116.396 109.557 116.391 109.573 116.391C109.6 116.385 109.627 116.385 109.66 116.38C109.674 116.38 109.689 116.379 109.703 116.374C109.822 116.364 109.941 116.347 110.066 116.336L110.472 116.288C110.608 116.271 110.743 116.25 110.879 116.234C110.911 116.228 110.938 116.228 110.971 116.223C111.068 116.212 111.166 116.196 111.263 116.179C111.312 116.174 111.361 116.169 111.404 116.163C111.502 116.147 111.594 116.136 111.691 116.12H111.697C114.669 115.692 117.604 115.031 120.473 114.142C120.625 114.094 120.776 114.05 120.928 114.002C120.229 110.739 118.789 107.682 116.719 105.064C114.65 102.447 112.006 100.341 108.993 98.9083C109.739 98.1983 110.254 97.2811 110.472 96.2753C110.613 95.6269 110.624 94.9572 110.505 94.3045C110.386 93.6519 110.139 93.0292 109.779 92.4722C109.076 91.3927 107.973 90.6366 106.713 90.3702L98.6837 88.6907C97.3912 88.4388 96.0516 88.7072 94.9559 89.4376C93.8603 90.168 93.0973 91.3014 92.8328 92.5914C92.7508 92.9868 92.7145 93.3904 92.7244 93.7941C84.9935 98.9407 79.4297 104.277 75.9137 109.944Z" fill="#54A8FC"/>
<path d="M107.676 83.2712C118.469 83.2712 127.219 74.5216 127.219 63.7284C127.219 52.9352 118.469 44.1855 107.676 44.1855C96.8829 44.1855 88.1333 52.9352 88.1333 63.7284C88.1333 74.5216 96.8829 83.2712 107.676 83.2712Z" fill="#9E616A"/>
<path d="M104.899 82.2265C100.006 83.5479 94.6125 81.7911 90.7944 78.4587C86.9762 75.1264 84.5878 70.4044 83.2117 65.527C82.2038 61.9549 81.7259 57.9897 83.3164 54.6362C84.9069 51.2827 89.1875 49.0202 92.4899 50.7141C90.4527 48.3405 91.4704 44.4147 93.8498 42.3842C96.2292 40.3537 99.4964 39.7715 102.608 39.4533C107.124 38.9915 111.789 38.9398 116.086 40.4029C120.384 41.8659 124.288 45.0646 125.633 49.4004C127.007 50.0399 128.554 50.2059 130.032 49.8722C131.51 49.5385 132.836 48.724 133.801 47.5563C134.05 48.8974 133.85 50.2832 133.232 51.4992C132.614 52.7152 131.613 53.6937 130.383 54.2833L136.967 52.1486C138.099 54.5455 136.115 57.512 133.578 58.2796C131.041 59.0471 128.302 58.2082 125.894 57.0992C123.486 55.9903 121.153 54.5883 118.537 54.1559C115.922 53.7234 112.85 54.5638 111.64 56.9225C111.006 58.158 110.973 59.6049 110.605 60.9437C110.237 62.2825 109.306 63.6706 107.921 63.7802C107.047 63.8494 106.191 63.3836 105.319 63.4789C104.784 63.5842 104.291 63.8434 103.901 64.2246C103.51 64.6057 103.24 65.0924 103.122 65.625C102.905 66.6937 102.902 67.7949 103.114 68.8647L104.787 81.649L104.899 82.2265Z" fill="#222428"/>
</svg>
