<svg width="32" height="32" viewBox="0 0 32 32" fill="none" xmlns="http://www.w3.org/2000/svg">
<path d="M12 19.25C12.6904 19.25 13.25 18.6904 13.25 18C13.25 17.3096 12.6904 16.75 12 16.75C11.3096 16.75 10.75 17.3096 10.75 18C10.75 18.6904 11.3096 19.25 12 19.25Z" fill="white"/>
<path d="M20 19.25C20.6904 19.25 21.25 18.6904 21.25 18C21.25 17.3096 20.6904 16.75 20 16.75C19.3096 16.75 18.75 17.3096 18.75 18C18.75 18.6904 19.3096 19.25 20 19.25Z" fill="white"/>
<path fill-rule="evenodd" clip-rule="evenodd" d="M15.9945 9.75009C13.8007 9.73387 11.6178 10.0597 9.52431 10.7158C9.12905 10.8397 8.70821 10.6197 8.58433 10.2244C8.46045 9.82915 8.68045 9.40831 9.07571 9.28444C11.3161 8.58227 13.6522 8.2333 16 8.25009C18.3478 8.2333 20.6839 8.58227 22.9243 9.28444C23.3196 9.40831 23.5396 9.82915 23.4157 10.2244C23.2918 10.6197 22.871 10.8397 22.4757 10.7158C20.3823 10.0597 18.1993 9.73387 16.0056 9.75009L15.9945 9.75017L15.9945 9.75009Z" fill="white"/>
<path fill-rule="evenodd" clip-rule="evenodd" d="M8.58433 21.7759C8.70821 21.3806 9.12905 21.1606 9.52431 21.2845C11.6178 21.9406 13.8007 22.2664 15.9945 22.2502L16.0056 22.2501L16.0056 22.2502C18.1993 22.2664 20.3823 21.9406 22.4757 21.2845C22.871 21.1606 23.2918 21.3806 23.4157 21.7759C23.5396 22.1712 23.3196 22.592 22.9243 22.7159C20.6839 23.418 18.3478 23.767 16 23.7502C13.6522 23.767 11.3161 23.418 9.07571 22.7159C8.68045 22.592 8.46045 22.1712 8.58433 21.7759Z" fill="white"/>
<path fill-rule="evenodd" clip-rule="evenodd" d="M20.3428 5.02849C20.7198 4.81594 21.1618 4.74952 21.5846 4.84188C22.8888 5.12452 24.1657 5.52112 25.4006 6.02711C25.6466 6.12154 25.8675 6.27148 26.0461 6.46531C26.2264 6.66089 26.3586 6.89573 26.4323 7.15122L30.6684 21.2968C30.6685 21.2969 30.6684 21.2968 30.6684 21.2968C30.7651 21.6195 30.7674 21.9633 30.6749 22.2872C30.5823 22.6111 30.3988 22.9017 30.1462 23.1246L30.1424 23.128C28.1105 24.896 25.3471 26.2422 22.1951 27.0147C21.8087 27.1134 21.4 27.0752 21.0385 26.9065C20.6783 26.7384 20.3872 26.4511 20.2145 26.0933L18.7053 23.0999C18.5189 22.73 18.6675 22.279 19.0374 22.0925C19.4073 21.906 19.8583 22.0547 20.0447 22.4246L21.5572 25.4246L21.5648 25.44C21.5873 25.4872 21.6255 25.5252 21.6728 25.5473C21.7202 25.5694 21.7738 25.5743 21.8244 25.5612L21.8341 25.5587C24.804 24.8314 27.3381 23.5789 29.1552 21.9986C29.1921 21.9656 29.219 21.9228 29.2326 21.8751C29.2464 21.8268 29.246 21.7757 29.2316 21.7276L24.9911 7.56766C24.982 7.53569 24.9656 7.50628 24.9431 7.48184C24.9206 7.45739 24.8926 7.43857 24.8615 7.42689C24.8544 7.42423 24.8474 7.42146 24.8404 7.41859C23.6839 6.94414 22.4879 6.57241 21.2662 6.30771L21.2646 6.30735C21.2016 6.29355 21.1357 6.30343 21.0795 6.33512C21.024 6.36641 20.9818 6.41683 20.9607 6.47692L19.9746 9.4601C19.8446 9.85338 19.4204 10.0668 19.0272 9.93682C18.6339 9.80682 18.4204 9.38262 18.5504 8.98933L19.5401 5.99531C19.6798 5.58536 19.9655 5.24121 20.3428 5.02849Z" fill="white"/>
<path fill-rule="evenodd" clip-rule="evenodd" d="M10.9205 6.33511C10.8643 6.30343 10.7984 6.29355 10.7354 6.30735L10.7338 6.30771C9.51212 6.57241 8.31612 6.94414 7.15964 7.41859C7.15263 7.42146 7.14559 7.42423 7.1385 7.42689C7.10737 7.43857 7.07943 7.45739 7.0569 7.48183C7.03437 7.50628 7.01789 7.53567 7.00879 7.56764L7.00601 7.5774L2.76844 21.7274C2.75404 21.7754 2.75364 21.8268 2.76742 21.8751C2.78105 21.9228 2.80789 21.9656 2.84482 21.9986C4.66194 23.5789 7.19597 24.8314 10.1659 25.5587L10.1756 25.5611C10.2262 25.5742 10.2798 25.5694 10.3272 25.5473C10.3745 25.5252 10.4127 25.4872 10.4352 25.44L10.4428 25.4246L11.9553 22.4246C12.1417 22.0547 12.5927 21.906 12.9626 22.0925C13.3325 22.279 13.4811 22.73 13.2947 23.0999L11.7855 26.0933C11.6128 26.4511 11.3217 26.7384 10.9615 26.9065C10.6 27.0752 10.1913 27.1134 9.8049 27.0147C6.65292 26.2422 3.88947 24.896 1.85765 23.128L1.85378 23.1246C1.60115 22.9017 1.41769 22.6111 1.32514 22.2872C1.2326 21.9633 1.23481 21.6197 1.3315 21.2971C1.33152 21.297 1.33147 21.2971 1.3315 21.2971L5.56775 7.15122C5.64144 6.89573 5.77363 6.66089 5.95387 6.46531C6.1325 6.27148 6.35342 6.12154 6.5994 6.02711C7.83449 5.52102 9.11165 5.12437 10.4162 4.84172C10.8387 4.7496 11.2804 4.81606 11.6572 5.02849C12.0345 5.2412 12.3202 5.58537 12.4599 5.99532L12.4621 6.00182L13.4496 8.98933C13.5796 9.38262 13.3661 9.80682 12.9729 9.93682C12.5796 10.0668 12.1554 9.85338 12.0254 9.4601L11.0393 6.47693C11.0182 6.41683 10.976 6.36642 10.9205 6.33511Z" fill="white"/>
</svg>
