<svg width="24" height="24" viewBox="0 0 24 24" fill="#5865F2" xmlns="http://www.w3.org/2000/svg">
<path d="M9 14.4375C9.51777 14.4375 9.9375 14.0178 9.9375 13.5C9.9375 12.9822 9.51777 12.5625 9 12.5625C8.48223 12.5625 8.0625 12.9822 8.0625 13.5C8.0625 14.0178 8.48223 14.4375 9 14.4375Z"/>
<path d="M15 14.4375C15.5178 14.4375 15.9375 14.0178 15.9375 13.5C15.9375 12.9822 15.5178 12.5625 15 12.5625C14.4822 12.5625 14.0625 12.9822 14.0625 13.5C14.0625 14.0178 14.4822 14.4375 15 14.4375Z"/>
<path fill-rule="evenodd" clip-rule="evenodd" d="M11.9956 7.31293C10.3503 7.30077 8.71307 7.54512 7.14298 8.0372C6.84654 8.13011 6.53091 7.96512 6.438 7.66867C6.3451 7.37223 6.51009 7.0566 6.80653 6.96369C8.48685 6.43706 10.2389 6.17534 11.9998 6.18793C13.7606 6.17534 15.5127 6.43706 17.193 6.96369C17.4894 7.0566 17.6544 7.37223 17.5615 7.66867C17.4686 7.96512 17.153 8.13011 16.8565 8.0372C15.2865 7.54512 13.6493 7.30077 12.0039 7.31293L11.9956 7.31299L11.9956 7.31293Z"/>
<path fill-rule="evenodd" clip-rule="evenodd" d="M6.438 16.3319C6.53091 16.0355 6.84654 15.8705 7.14298 15.9634C8.71307 16.4555 10.3503 16.6998 11.9956 16.6877L12.0039 16.6876L12.0039 16.6877C13.6493 16.6998 15.2865 16.4555 16.8565 15.9634C17.153 15.8705 17.4686 16.0355 17.5615 16.3319C17.6544 16.6284 17.4894 16.944 17.193 17.0369C15.5127 17.5635 13.7606 17.8253 11.9998 17.8127C10.2389 17.8253 8.48685 17.5635 6.80653 17.0369C6.51009 16.944 6.3451 16.6284 6.438 16.3319Z"/>
<path fill-rule="evenodd" clip-rule="evenodd" d="M15.2571 3.77198C15.5399 3.61256 15.8714 3.56275 16.1885 3.63202C17.1666 3.844 18.1243 4.14145 19.0505 4.52094C19.235 4.59177 19.4007 4.70422 19.5346 4.8496C19.6698 4.99628 19.7689 5.17241 19.8242 5.36403L23.0014 15.9732C23.0014 15.9733 23.0013 15.9732 23.0014 15.9732C23.0739 16.2152 23.0756 16.4731 23.0062 16.716C22.9368 16.9589 22.7992 17.1769 22.6097 17.3441L22.6068 17.3466C21.0829 18.6726 19.0103 19.6822 16.6464 20.2616C16.3566 20.3357 16.05 20.307 15.7789 20.1805C15.5087 20.0544 15.2905 19.8389 15.1609 19.5706L14.029 17.3255C13.8892 17.0481 14.0007 16.7099 14.2781 16.57C14.5555 16.4301 14.8937 16.5416 15.0336 16.819L16.168 19.069L16.1736 19.0806C16.1905 19.116 16.2191 19.1445 16.2547 19.1611C16.2902 19.1776 16.3304 19.1813 16.3683 19.1715L16.3756 19.1696C18.6031 18.6241 20.5036 17.6848 21.8664 16.4996C21.8941 16.4748 21.9143 16.4427 21.9245 16.4069C21.9348 16.3707 21.9346 16.3324 21.9237 16.2963L18.7434 5.67635C18.7366 5.65238 18.7243 5.63032 18.7074 5.61199C18.6905 5.59365 18.6695 5.57954 18.6462 5.57078C18.6408 5.56878 18.6356 5.56671 18.6303 5.56455C17.7629 5.20871 16.8659 4.92992 15.9497 4.73139L15.9485 4.73112C15.9012 4.72077 15.8518 4.72819 15.8097 4.75195C15.768 4.77542 15.7364 4.81323 15.7206 4.8583L14.981 7.09568C14.8835 7.39065 14.5654 7.55072 14.2704 7.45323C13.9754 7.35573 13.8154 7.03757 13.9129 6.74261L14.6551 4.49709C14.7599 4.18963 14.9742 3.93151 15.2571 3.77198Z"/>
<path fill-rule="evenodd" clip-rule="evenodd" d="M8.19026 4.75195C8.14811 4.72819 8.0987 4.72077 8.05144 4.73112L8.05022 4.73139C7.13397 4.92991 6.23697 5.20871 5.36961 5.56455C5.36435 5.56671 5.35907 5.56878 5.35375 5.57078C5.33041 5.57954 5.30945 5.59365 5.29255 5.61199C5.27566 5.63032 5.2633 5.65236 5.25647 5.67634L5.25439 5.68366L2.07621 16.2961C2.0654 16.3322 2.06511 16.3707 2.07545 16.4069C2.08566 16.4427 2.10579 16.4748 2.1335 16.4996C3.49633 17.6848 5.39685 18.6242 7.62428 19.1697L7.63158 19.1715C7.66953 19.1813 7.70972 19.1776 7.74525 19.1611C7.78078 19.1445 7.80943 19.116 7.82628 19.0806L7.83196 19.069L8.96633 16.819C9.10619 16.5416 9.44444 16.4301 9.72184 16.57C9.99924 16.7099 10.1107 17.0481 9.97088 17.3255L8.83899 19.5706C8.70944 19.8389 8.49118 20.0544 8.221 20.1805C7.94988 20.307 7.64334 20.3357 7.35356 20.2616C4.98957 19.6822 2.91698 18.6726 1.39312 17.3466L1.39021 17.3441C1.20074 17.1769 1.06315 16.9589 0.993732 16.716C0.924332 16.4731 0.925987 16.2154 0.9985 15.9734C0.998516 15.9733 0.998484 15.9735 0.9985 15.9734L4.17569 5.36403C4.23096 5.17241 4.3301 4.99628 4.46528 4.8496C4.59925 4.70422 4.76494 4.59177 4.94942 4.52094C5.87575 4.14138 6.83361 3.84389 7.81199 3.6319C8.12892 3.56281 8.46021 3.61265 8.74279 3.77198C9.02573 3.93151 9.24003 4.18964 9.3448 4.4971L9.34646 4.50198L10.0871 6.74261C10.1846 7.03757 10.0245 7.35573 9.72952 7.45323C9.43455 7.55072 9.1164 7.39065 9.0189 7.09568L8.27935 4.85831C8.26355 4.81323 8.23189 4.77542 8.19026 4.75195Z"/>
</svg>
