<svg width="24" height="24" viewBox="0 0 24 24" fill="#0969DA" xmlns="http://www.w3.org/2000/svg">
<path fill-rule="evenodd" clip-rule="evenodd" d="M10.125 15.1875C10.4357 15.1875 10.6875 15.4393 10.6875 15.75V20.2488C10.6889 20.6185 10.6171 20.9848 10.4764 21.3267C10.3355 21.6689 10.1282 21.9798 9.8665 22.2415C9.60481 22.5032 9.29389 22.7105 8.95167 22.8514C8.60946 22.9923 8.24273 23.064 7.87264 23.0625C7.56198 23.0612 7.3112 22.8083 7.31251 22.4976C7.31381 22.187 7.5667 21.9362 7.87736 21.9375C8.09892 21.9384 8.31846 21.8955 8.52333 21.8111C8.7282 21.7268 8.91434 21.6027 9.07101 21.446C9.22767 21.2893 9.35177 21.1032 9.43612 20.8983C9.52048 20.6935 9.56343 20.4739 9.5625 20.2524L9.5625 20.25V15.75C9.5625 15.4393 9.81434 15.1875 10.125 15.1875Z"/>
<path fill-rule="evenodd" clip-rule="evenodd" d="M13.875 15.1875C14.1856 15.1875 14.4375 15.4393 14.4375 15.75V20.25L14.4375 20.2524C14.4366 20.4739 14.4795 20.6935 14.5639 20.8983C14.6482 21.1032 14.7723 21.2893 14.929 21.446C15.0856 21.6027 15.2718 21.7268 15.4767 21.8111C15.6815 21.8955 15.9011 21.9384 16.1226 21.9375C16.4333 21.9362 16.6862 22.187 16.6875 22.4976C16.6888 22.8083 16.438 23.0612 16.1273 23.0625C15.7573 23.064 15.3905 22.9923 15.0483 22.8514C14.7061 22.7105 14.3952 22.5032 14.1335 22.2415C13.8718 21.9798 13.6645 21.6689 13.5236 21.3267C13.3828 20.9848 13.3111 20.6186 13.3125 20.2489V15.75C13.3125 15.4393 13.5643 15.1875 13.875 15.1875Z"/>
<path fill-rule="evenodd" clip-rule="evenodd" d="M16.3983 16.4389C16.1935 16.3545 15.9739 16.3116 15.7524 16.3125L15.75 16.3125H14.25C13.9393 16.3125 13.6875 16.0607 13.6875 15.75C13.6875 15.4394 13.9393 15.1875 14.25 15.1875H15.7489C16.1186 15.1861 16.4848 15.2579 16.8267 15.3986C17.1689 15.5395 17.4798 15.7468 17.7415 16.0085C18.0032 16.2702 18.2105 16.5811 18.3514 16.9233C18.4921 17.2652 18.5639 17.6315 18.5625 18.0012V18.75L18.5625 18.7524C18.5616 18.9739 18.6045 19.1935 18.6889 19.3984C18.7732 19.6032 18.8973 19.7894 19.054 19.946C19.2107 20.1027 19.3968 20.2268 19.6017 20.3111C19.8065 20.3955 20.0261 20.4385 20.2476 20.4375C20.5583 20.4362 20.8112 20.687 20.8125 20.9977C20.8138 21.3083 20.563 21.5612 20.2524 21.5625C19.8823 21.5641 19.5155 21.4923 19.1733 21.3514C18.8311 21.2105 18.5202 21.0032 18.2585 20.7415C17.9968 20.4798 17.7895 20.1689 17.6486 19.8267C17.5079 19.4849 17.4361 19.1186 17.4375 18.7489V18L17.4375 17.9977C17.4384 17.7761 17.3955 17.5566 17.3111 17.3517C17.2268 17.1468 17.1027 16.9607 16.946 16.804C16.7893 16.6473 16.6032 16.5233 16.3983 16.4389Z"/>
<path fill-rule="evenodd" clip-rule="evenodd" d="M7.17333 15.3986C7.51516 15.2579 7.88145 15.1861 8.25111 15.1875H9.75C10.0607 15.1875 10.3125 15.4394 10.3125 15.75C10.3125 16.0607 10.0607 16.3125 9.75 16.3125H8.25L8.24764 16.3125C8.02608 16.3116 7.80654 16.3545 7.60167 16.4389C7.3968 16.5233 7.21066 16.6473 7.05399 16.804C6.89733 16.9607 6.77323 17.1468 6.68888 17.3517C6.60452 17.5566 6.56157 17.7761 6.56249 17.9977L6.5625 18V18.7489C6.56388 19.1186 6.49214 19.4849 6.35139 19.8267C6.21048 20.1689 6.0032 20.4798 5.7415 20.7415C5.47981 21.0032 5.16889 21.2105 4.82667 21.3514C4.48446 21.4923 4.11773 21.5641 3.74764 21.5625C3.43698 21.5612 3.1862 21.3083 3.18751 20.9977C3.18881 20.687 3.4417 20.4362 3.75236 20.4375C3.97392 20.4385 4.19346 20.3955 4.39833 20.3111C4.6032 20.2268 4.78934 20.1027 4.94601 19.946C5.10267 19.7894 5.22677 19.6032 5.31112 19.3984C5.39548 19.1935 5.43843 18.9739 5.43751 18.7524L5.4375 18.75V18.0011C5.43611 17.6315 5.50786 17.2652 5.64861 16.9233C5.78952 16.5811 5.9968 16.2702 6.2585 16.0085C6.52019 15.7468 6.83111 15.5395 7.17333 15.3986Z"/>
<path fill-rule="evenodd" clip-rule="evenodd" d="M5.88794 3.46861C5.98848 3.29459 6.17422 3.18743 6.37519 3.1875C7.28789 3.18781 8.18582 3.41786 8.98624 3.85644C9.69469 4.24464 10.3066 4.78514 10.7786 5.4375H13.2214C13.6934 4.78514 14.3053 4.24464 15.0138 3.85644C15.8142 3.41786 16.7121 3.18781 17.6248 3.1875C17.8258 3.18743 18.0115 3.29459 18.1121 3.46861C18.5179 4.17107 18.7614 4.95544 18.8247 5.76422C18.8805 6.47659 18.7953 7.192 18.5749 7.86974C19.0498 8.66201 19.3054 9.56851 19.3125 10.4957L19.3125 10.5V11.25C19.3125 12.5927 18.7791 13.8803 17.8297 14.8297C16.8803 15.7791 15.5927 16.3125 14.25 16.3125H9.75C8.40734 16.3125 7.11968 15.7791 6.17027 14.8297C5.22087 13.8803 4.6875 12.5927 4.6875 11.25V10.5L4.68752 10.4957C4.69459 9.56851 4.95015 8.66201 5.42508 7.86974C5.20475 7.192 5.11951 6.47659 5.17529 5.76422C5.23861 4.95544 5.48211 4.17107 5.88794 3.46861ZM6.70698 4.32543C6.47779 4.80382 6.33841 5.3213 6.29685 5.85204C6.24663 6.49349 6.34057 7.13805 6.5718 7.73848C6.63802 7.91043 6.61582 8.10391 6.51238 8.2564C6.06253 8.91953 5.81902 9.70096 5.8125 10.5022V11.25C5.8125 12.2943 6.22734 13.2958 6.96577 14.0342C7.70419 14.7727 8.70571 15.1875 9.75 15.1875H14.25C15.2943 15.1875 16.2958 14.7727 17.0342 14.0342C17.7727 13.2958 18.1875 12.2943 18.1875 11.25V10.5022C18.181 9.70097 17.9375 8.91954 17.4876 8.2564C17.3842 8.10391 17.362 7.91043 17.4282 7.73848C17.6594 7.13805 17.7534 6.49349 17.7031 5.85204C17.6616 5.3213 17.5222 4.80382 17.293 4.32543C16.6846 4.37264 16.0918 4.54858 15.5544 4.84304C14.9196 5.19088 14.3825 5.69292 13.9927 6.30288C13.8894 6.46463 13.7107 6.5625 13.5187 6.5625H10.4813C10.2893 6.5625 10.1106 6.46463 10.0073 6.30288C9.61749 5.69292 9.08045 5.19088 8.44564 4.84304C7.90824 4.54858 7.31542 4.37264 6.70698 4.32543Z"/>
</svg>
