<svg width="504" height="389" viewBox="0 0 504 389" fill="none" xmlns="http://www.w3.org/2000/svg">
<g opacity="0.5">
<path d="M207.413 131.704H146.859V146.282H207.413V131.704Z" fill="#54A8FC"/>
<path d="M417.111 131.704H395.805V146.282H417.111V131.704Z" fill="#54A8FC"/>
<path d="M459.724 131.704H438.417V146.282H459.724V131.704Z" fill="#54A8FC"/>
<path d="M373.377 131.704H228.719V146.282H373.377V131.704Z" fill="#54A8FC"/>
<path d="M131.159 225.9H70.6049V240.478H131.159V225.9Z" fill="#54A8FC"/>
<path d="M340.857 225.9H319.551V240.478H340.857V225.9Z" fill="#54A8FC"/>
<path d="M383.47 225.9H362.163V240.478H383.47V225.9Z" fill="#54A8FC"/>
<path d="M297.123 225.9H152.466V240.478H297.123V225.9Z" fill="#54A8FC"/>
<path d="M381.227 164.224H320.672V178.802H381.227V164.224Z" fill="#54A8FC"/>
<path d="M463.088 164.224H402.533V178.802H463.088V164.224Z" fill="#54A8FC"/>
<path d="M505.7 164.224H484.394V178.802H505.7V164.224Z" fill="#54A8FC"/>
<path d="M134.524 164.224H113.217V178.802H134.524V164.224Z" fill="#54A8FC"/>
<path d="M300.488 164.224H155.83V178.802H300.488V164.224Z" fill="#54A8FC"/>
<path d="M255.633 195.623H195.078V210.2H255.633V195.623Z" fill="#54A8FC"/>
<path d="M173.772 195.623H113.217V210.2H173.772V195.623Z" fill="#54A8FC"/>
<path d="M505.7 195.623H484.394V210.2H505.7V195.623Z" fill="#54A8FC"/>
<path d="M463.088 195.623H441.781V210.2H463.088V195.623Z" fill="#54A8FC"/>
<path d="M420.475 195.623H275.817V210.2H420.475V195.623Z" fill="#54A8FC"/>
<path d="M368.892 256.478H429.446V271.056H368.892V256.478Z" fill="#54A8FC"/>
<path d="M159.194 256.478H180.5V271.056H159.194V256.478Z" fill="#54A8FC"/>
<path d="M116.582 256.478H137.888V271.056H116.582V256.478Z" fill="#54A8FC"/>
<path d="M202.928 256.478H347.585V271.056H202.928V256.478Z" fill="#54A8FC"/>
<path d="M445.145 350.674H505.7V365.252H445.145V350.674Z" fill="#54A8FC"/>
<path d="M235.448 350.674H256.754V365.252H235.448V350.674Z" fill="#54A8FC"/>
<path d="M192.835 350.674H214.141V365.252H192.835V350.674Z" fill="#54A8FC"/>
<path d="M279.181 350.674H423.839V365.252H279.181V350.674Z" fill="#54A8FC"/>
<path d="M195.078 288.998H255.632V303.576H195.078V288.998Z" fill="#54A8FC"/>
<path d="M113.217 288.998H173.772V303.576H113.217V288.998Z" fill="#54A8FC"/>
<path d="M70.6048 288.998H91.911V303.576H70.6048V288.998Z" fill="#54A8FC"/>
<path d="M441.781 288.998H463.087V303.576H441.781V288.998Z" fill="#54A8FC"/>
<path d="M275.817 288.998H420.475V303.576H275.817V288.998Z" fill="#54A8FC"/>
<path d="M320.673 320.396H381.227V334.974H320.673V320.396Z" fill="#54A8FC"/>
<path d="M402.533 320.396H463.087V334.974H402.533V320.396Z" fill="#54A8FC"/>
<path d="M70.6048 320.396H91.911V334.974H70.6048V320.396Z" fill="#54A8FC"/>
<path d="M113.217 320.396H134.523V334.974H113.217V320.396Z" fill="#54A8FC"/>
<path d="M155.83 320.396H300.487V334.974H155.83V320.396Z" fill="#54A8FC"/>
</g>
<path d="M460.229 196.727L458.818 197.255C457.845 194.645 456.854 192.077 455.845 189.552C434.915 137.12 406.907 103.121 372.448 88.3022C371.927 88.0756 371.407 87.8568 370.879 87.6456C370.177 87.3513 369.468 87.0647 368.758 86.8005C367.611 86.3477 366.449 85.9251 365.287 85.5253C363.733 84.9897 362.177 84.4941 360.617 84.0388C360.24 83.9257 359.855 83.8126 359.478 83.7146C358.127 83.3296 356.784 82.9751 355.434 82.6657C323.193 74.9469 290.175 82.9902 259.118 93.8855C259.111 93.8855 259.103 93.8929 259.096 93.8929C249.612 97.2205 240.301 100.82 231.261 104.313C197.836 117.23 168.447 128.586 147.962 118.77C147.177 118.4 146.408 117.992 145.653 117.555C144.838 117.079 144.031 116.567 143.246 116.023C143.148 115.955 143.05 115.887 142.96 115.812C142.115 115.208 141.285 114.559 140.477 113.865C139.278 112.832 138.151 111.718 137.104 110.53C136.901 110.304 136.697 110.078 136.501 109.844C136.463 109.791 136.418 109.738 136.38 109.693C134.834 107.826 133.479 105.809 132.336 103.671C125.259 90.5429 125.591 73.1888 125.915 56.2875C126.262 37.9977 126.602 20.6061 117.351 10.4878C116.027 9.02825 114.521 7.74506 112.869 6.66988C111.221 5.58926 109.451 4.70786 107.595 4.04414C87.6983 -3.16915 53.4883 11.0235 5.70427 46.3354C4.11969 47.5048 2.52772 48.697 0.912967 49.9117L0 48.7043C1.61479 47.4897 3.21446 46.2901 4.79904 45.1204C27.3968 28.4306 47.1426 16.328 63.5763 9.09186C82.3639 0.814938 97.3564 -1.32778 108.267 2.68614C110.176 3.38037 111.998 4.29181 113.699 5.4025C115.4 6.51389 116.96 7.82607 118.347 9.3107C128.126 19.8136 127.779 37.6053 127.424 56.31C127.122 72.208 126.805 88.5132 132.743 101.106C134.058 103.931 135.738 106.572 137.738 108.961C137.859 109.104 137.987 109.247 138.108 109.391C139.149 110.579 140.271 111.693 141.466 112.726C142.167 113.337 142.892 113.903 143.631 114.438C144.493 115.067 145.387 115.648 146.31 116.181C147.344 116.786 148.412 117.33 149.509 117.811C169.421 126.594 198.13 115.495 230.718 102.902C243.636 97.9068 257.081 92.7157 270.844 88.3772C293.713 81.1639 317.458 76.3126 341.06 78.7117C342.946 78.893 344.84 79.1343 346.727 79.4287C350.129 79.9419 353.525 80.6131 356.913 81.466C357.705 81.662 358.489 81.8731 359.274 82.092C359.584 82.1675 359.885 82.2581 360.194 82.3488C360.497 82.4317 360.806 82.5145 361.107 82.6052C362.662 83.0653 364.224 83.5634 365.778 84.0991C367.099 84.5593 368.419 85.0423 369.724 85.5478C370.2 85.7364 370.683 85.925 371.165 86.1287C371.596 86.3023 372.033 86.4835 372.463 86.6644C374.878 87.6909 377.27 88.7998 379.623 90.0145C403.157 102.079 423.529 123.38 440.529 153.644C441.283 154.987 442.038 156.353 442.777 157.741C444.52 160.978 446.223 164.313 447.885 167.746C451.183 174.521 454.329 181.674 457.325 189.204C458.011 190.91 458.685 192.637 459.347 194.388C459.641 195.165 459.935 195.942 460.229 196.727Z" fill="#DBDDE0"/>
<path fill-rule="evenodd" clip-rule="evenodd" d="M492.725 288.597C480.677 259.628 471.097 229.724 461.533 199.867C461.087 198.477 458.962 199.258 459.406 200.642C464.776 217.408 470.149 234.176 475.962 250.795C481.138 265.589 486.663 280.268 492.837 294.676C498.932 308.903 505.714 322.821 512.698 336.63C521.548 354.126 530.511 371.566 539.484 389V384L533.629 372.587C531.471 368.381 529.302 364.179 527.131 359.976C515.01 336.502 502.872 312.997 492.725 288.597Z" fill="#DBDDE0"/>
<path d="M113.284 12.0724C116.617 12.0724 119.32 9.36989 119.32 6.03619C119.32 2.70249 116.617 0 113.284 0C109.95 0 107.248 2.70249 107.248 6.03619C107.248 9.36989 109.95 12.0724 113.284 12.0724Z" fill="#8C04C7"/>
<path d="M111.133 86.4399L110.111 87.5498L173.218 145.686L174.24 144.576L111.133 86.4399Z" fill="#320147"/>
<path d="M110.621 90.7664C112.705 90.7664 114.394 89.0774 114.394 86.9938C114.394 84.9103 112.705 83.2212 110.621 83.2212C108.538 83.2212 106.849 84.9103 106.849 86.9938C106.849 89.0774 108.538 90.7664 110.621 90.7664Z" fill="#8C04C7"/>
<path d="M172.809 44.2607L162.637 52.002L148.717 62.6033C141.499 68.075 136.685 76.132 135.286 85.0802L132.743 101.106L132.336 103.672L132.019 105.679L131.74 107.475L130.902 112.734C130.842 113.099 130.901 113.475 131.07 113.805C131.239 114.134 131.51 114.401 131.842 114.566C132.174 114.73 132.55 114.784 132.915 114.719C133.28 114.653 133.614 114.473 133.869 114.203C133.792 112.64 134.328 111.109 135.363 109.934C136.398 108.76 137.849 108.035 139.41 107.914C139.806 96.1117 146.21 90.836 155.915 89.1471L156.013 89.034L155.945 89.17C157.497 102.148 153.587 108.861 145.442 110.719L145.239 111.137C145.305 111.263 145.372 111.388 145.429 111.521C145.785 112.337 145.956 113.222 145.93 114.112C145.903 115.002 145.68 115.874 145.275 116.668C144.871 117.461 144.296 118.155 143.592 118.699C142.887 119.244 142.071 119.626 141.202 119.817C141.198 119.975 141.215 120.133 141.254 120.286C141.326 120.547 141.458 120.787 141.639 120.989C141.82 121.19 142.045 121.346 142.296 121.446C142.548 121.545 142.819 121.585 143.089 121.562C143.358 121.539 143.619 121.454 143.85 121.313L145.593 120.234L146.928 119.411L147.962 118.77L149.509 117.812L167.972 106.395C175.536 101.733 180.985 94.3062 183.161 85.6914L187.537 68.4806L190.691 56.0914L172.809 44.2607Z" fill="#DBDDE0"/>
<path d="M172.736 148.511C174.819 148.511 176.508 146.822 176.508 144.738C176.508 142.655 174.819 140.966 172.736 140.966C170.652 140.966 168.963 142.655 168.963 144.738C168.963 146.822 170.652 148.511 172.736 148.511Z" fill="#8C04C7"/>
<path d="M498.137 249.318L497.269 237.706V237.698L496.832 231.865C496.173 222.835 492.041 214.41 485.302 208.362L485.212 208.287L485.204 208.279L464.5 189.62C464.223 189.362 463.868 189.203 463.491 189.169C463.114 189.135 462.737 189.227 462.418 189.431C462.257 189.527 462.114 189.65 461.995 189.793C461.853 189.963 461.747 190.159 461.681 190.37C462.971 191.207 463.891 192.506 464.253 194C464.616 195.494 464.393 197.07 463.631 198.406L464.296 200.772V200.779C471.204 205.937 472.888 213.705 470.642 223.437L470.687 223.589L470.612 223.46C461.738 218.183 456.431 211.232 457.333 201.368C456.536 201.228 455.775 200.928 455.097 200.487C454.418 200.045 453.835 199.472 453.383 198.801C452.931 198.13 452.619 197.374 452.465 196.58C452.311 195.785 452.319 194.968 452.489 194.176C452.33 194.127 452.164 194.102 451.997 194.102C451.844 194.099 451.692 194.12 451.545 194.162C451.179 194.253 450.853 194.464 450.62 194.76C450.386 195.056 450.258 195.422 450.255 195.799L449.621 224.154C449.404 233.036 452.661 241.653 458.698 248.171L461.037 250.698L470.747 261.217L479.417 270.61L496.017 263.405L496.024 263.397L499.087 262.069L498.137 249.318Z" fill="#DBDDE0"/>
<path d="M139.826 117.881C142.228 117.881 144.174 115.934 144.174 113.532C144.174 111.13 142.228 109.184 139.826 109.184C137.424 109.184 135.478 111.13 135.478 113.532C135.478 115.934 137.424 117.881 139.826 117.881Z" fill="#8C04C7"/>
<path d="M157.283 89.4795C158.95 89.4795 160.301 88.1283 160.301 86.4615C160.301 84.7946 158.95 83.4434 157.283 83.4434C155.616 83.4434 154.265 84.7946 154.265 86.4615C154.265 88.1283 155.616 89.4795 157.283 89.4795Z" fill="#320147"/>
<path d="M459.709 194.252L459.347 194.388L458.298 194.795L456.23 189.423L447.9 167.776L447.885 167.746L444.158 158.043H444.151L442.958 154.934L444.369 154.391L445.667 157.756L457.755 189.182L459.709 194.252Z" fill="#320147"/>
<path d="M445.75 157.726C445.724 157.739 445.696 157.749 445.667 157.756C445.189 157.953 444.675 158.051 444.158 158.043H444.15C443.678 158.027 443.213 157.925 442.777 157.741C441.888 157.363 441.178 156.658 440.793 155.772C440.498 155.104 440.406 154.364 440.529 153.644C440.656 152.889 441.009 152.191 441.541 151.642C442.073 151.093 442.76 150.718 443.51 150.567C444.26 150.417 445.038 150.498 445.741 150.799C446.444 151.101 447.039 151.609 447.448 152.256C447.549 152.417 447.637 152.586 447.712 152.761C447.909 153.216 448.015 153.705 448.023 154.201C448.032 154.697 447.942 155.189 447.76 155.65C447.578 156.111 447.306 156.532 446.962 156.888C446.617 157.244 446.205 157.529 445.75 157.726Z" fill="#8C04C7"/>
<path d="M462.924 197.12C462.918 197.143 462.908 197.165 462.895 197.184V197.19C462.733 197.542 462.526 197.87 462.278 198.167C461.811 198.738 461.215 199.188 460.539 199.482C459.789 199.809 458.966 199.933 458.153 199.843V199.837C457.342 199.744 456.57 199.44 455.914 198.954C455.259 198.467 454.743 197.817 454.419 197.068C454.042 196.217 453.935 195.271 454.11 194.357C454.248 193.609 454.569 192.907 455.043 192.313C455.516 191.718 456.129 191.25 456.827 190.948C456.909 190.913 456.996 190.878 457.077 190.849C457.176 190.814 457.275 190.779 457.374 190.75C457.65 190.669 457.932 190.612 458.218 190.581C458.328 190.57 458.438 190.564 458.549 190.564C459.216 190.541 459.879 190.666 460.492 190.93C460.87 191.089 461.226 191.296 461.551 191.547V191.553C461.707 191.67 461.855 191.798 461.993 191.937V191.943C462.397 192.353 462.722 192.834 462.953 193.362C463.212 193.955 463.343 194.597 463.338 195.244C463.333 195.892 463.192 196.531 462.924 197.12Z" fill="#8C04C7"/>
<path d="M472.155 229.072C473.822 229.072 475.173 227.721 475.173 226.054C475.173 224.387 473.822 223.036 472.155 223.036C470.488 223.036 469.137 224.387 469.137 226.054C469.137 227.721 470.488 229.072 472.155 229.072Z" fill="#320147"/>
<path d="M411.608 98.7295L411.148 100.163L407.307 98.9257L386.98 92.384L379.624 90.0148L372.463 87.7135L370.992 87.2381L368.917 86.5666L360.663 83.9107L359.538 83.5561L355.819 82.3564L347.157 79.5646L346.727 79.4288L280.343 58.0607L276.284 56.7554L276.745 55.3218L280.585 56.5592L357.214 81.2246L360.285 82.213L361.146 82.4846L363.334 83.1939L370.056 85.3518L371.173 85.714L372.245 86.0611L407.549 97.4242L411.608 98.7295Z" fill="#320147"/>
<path d="M372.463 86.6648C372.435 86.4606 372.368 86.2635 372.267 86.0838L372.244 86.0613C372.032 85.6959 371.69 85.4238 371.286 85.2991C371.243 85.282 371.197 85.2719 371.15 85.2689H371.148C371.223 86.0858 371.13 86.9094 370.875 87.6891C370.621 88.4689 370.209 89.1883 369.666 89.8033C369.123 90.4183 368.461 90.9159 367.718 91.2656C366.976 91.6153 366.171 91.8096 365.351 91.8367L365.348 91.8411C365.751 102.993 362.105 111.155 350.665 113.564L350.574 113.692L350.619 113.549C344.351 102.87 350.878 95.0405 359.392 87.6537C359.02 86.4922 359.009 85.2454 359.36 84.0775C359.71 82.9095 360.407 81.8751 361.357 81.1105L361.356 81.1043C361.26 80.6801 361.006 80.3081 360.647 80.0627C360.342 79.8413 359.971 79.7278 359.594 79.7402C359.217 79.7525 358.855 79.89 358.565 80.1309L357.214 81.2247L356.913 81.4664L356.875 81.504L355.818 82.3565L355.434 82.666L336.518 97.9827C329.605 103.56 325.139 111.612 324.068 120.43L321.902 138.063L320.341 150.754L339.573 160.231L348.688 151.26L361.153 138.984C367.622 132.644 371.382 124.044 371.64 114.99L372.448 88.3024L372.463 87.7137L372.486 87.0044C372.486 86.8908 372.479 86.7773 372.463 86.6648Z" fill="#DBDDE0"/>
<path d="M276.815 60.5023C278.899 60.5023 280.588 58.8132 280.588 56.7296C280.588 54.6461 278.899 52.957 276.815 52.957C274.732 52.957 273.043 54.6461 273.043 56.7296C273.043 58.8132 274.732 60.5023 276.815 60.5023Z" fill="#8C04C7"/>
<path d="M411.076 102.526C413.16 102.526 414.849 100.837 414.849 98.7531C414.849 96.6695 413.16 94.9805 411.076 94.9805C408.993 94.9805 407.304 96.6695 407.304 98.7531C407.304 100.837 408.993 102.526 411.076 102.526Z" fill="#8C04C7"/>
<path d="M349.64 119.419C351.307 119.419 352.658 118.068 352.658 116.401C352.658 114.735 351.307 113.383 349.64 113.383C347.973 113.383 346.622 114.735 346.622 116.401C346.622 118.068 347.973 119.419 349.64 119.419Z" fill="#320147"/>
<path d="M193.613 71.3175C191.989 71.3166 190.403 70.8359 189.052 69.9359C174.57 68.7824 165.086 62.5837 160.736 51.1988C159.791 50.5708 158.983 49.7561 158.364 48.8048C157.744 47.8534 157.326 46.7856 157.134 45.6667C156.939 44.5454 156.98 43.396 157.252 42.291C157.524 41.186 158.022 40.1494 158.714 39.2466C160.042 37.566 161.958 36.4517 164.076 36.1285C166.193 35.8054 168.354 36.2974 170.123 37.5054L171.651 38.5164C171.655 36.9076 172.133 35.3357 173.025 33.9966L173.133 33.8367C173.655 33.0526 174.415 32.4566 175.301 32.1364C176.187 31.8161 177.152 31.7883 178.055 32.0572C179.02 32.3242 179.876 32.8893 180.5 33.6718C181.124 34.4543 181.485 35.4142 181.531 36.4142C181.554 36.8 181.601 37.1839 181.673 37.5636C181.936 38.9151 182.518 40.1845 183.369 41.2668C184.22 42.3491 185.317 43.2131 186.568 43.7875C187.819 44.3618 189.19 44.6299 190.565 44.5696C191.941 44.5093 193.282 44.1223 194.478 43.4407C195.198 43.0298 196.011 42.8101 196.84 42.8027C197.668 42.7952 198.485 43.0001 199.212 43.3979C199.872 43.7529 200.427 44.2758 200.82 44.9137C201.214 45.5517 201.432 46.2821 201.453 47.0313C201.513 48.6981 201.068 50.3442 200.177 51.754C199.286 53.1638 197.99 54.2717 196.458 54.9324L197.993 55.9485C199.846 57.1464 201.159 59.0196 201.653 61.1702C202.147 63.3207 201.783 65.5791 200.638 67.4653C200.049 68.3986 199.278 69.204 198.372 69.8338C197.465 70.4637 196.442 70.9051 195.362 71.1318C194.787 71.255 194.201 71.3173 193.613 71.3175Z" fill="#320147"/>
<path d="M336.111 173.783C335.666 173.783 335.224 173.716 334.799 173.585C333.951 173.329 333.196 172.832 332.625 172.154C332.055 171.477 331.694 170.648 331.587 169.769L331.573 169.667C331.351 168.186 330.75 166.788 329.828 165.608C328.906 164.429 327.695 163.508 326.311 162.935C324.928 162.362 323.42 162.157 321.934 162.34C320.448 162.523 319.034 163.087 317.831 163.978C317.217 164.421 316.501 164.7 315.75 164.79C314.998 164.881 314.236 164.779 313.535 164.494C312.834 164.209 312.216 163.752 311.74 163.163C311.264 162.575 310.945 161.875 310.813 161.13C310.536 159.48 310.765 157.785 311.47 156.267C312.175 154.75 313.324 153.481 314.764 152.629L312.877 151.699C311.86 151.196 310.956 150.49 310.221 149.625C309.486 148.76 308.936 147.754 308.605 146.668C308.27 145.58 308.164 144.435 308.295 143.304C308.425 142.173 308.788 141.082 309.361 140.098C310.466 138.263 312.226 136.916 314.285 136.327C316.345 135.739 318.551 135.955 320.458 136.93C333.575 135.109 343.596 140.182 350.671 151.819C351.689 152.322 352.592 153.028 353.327 153.893C354.062 154.758 354.612 155.764 354.944 156.85C355.278 157.938 355.384 159.083 355.254 160.214C355.123 161.344 354.76 162.436 354.187 163.419C353.082 165.254 351.323 166.602 349.263 167.19C347.204 167.778 344.997 167.563 343.09 166.588L341.447 165.778C341.646 167.374 341.371 168.994 340.655 170.435C340.329 171.1 339.914 171.718 339.423 172.273C339.01 172.746 338.501 173.125 337.93 173.386C337.359 173.646 336.739 173.781 336.111 173.783Z" fill="#320147"/>
<path d="M482.985 284.173C481.904 284.186 480.842 283.881 479.932 283.297C479.022 282.713 478.303 281.875 477.864 280.887L477.814 280.773C477.167 279.299 476.97 277.667 477.245 276.082L475.316 276.92C474.305 277.36 473.216 277.593 472.113 277.607C471.01 277.621 469.915 277.414 468.893 277C467.871 276.586 466.941 275.972 466.159 275.195C465.376 274.417 464.757 273.492 464.336 272.472C463.537 270.416 463.571 268.129 464.431 266.097C465.291 264.065 466.909 262.448 468.942 261.591C474.346 249.111 484.253 244.155 499.592 248.271C501.544 247.39 503.758 247.282 505.787 247.968C507.815 248.654 509.509 250.084 510.525 251.969C511.05 252.978 511.36 254.086 511.436 255.221C511.512 256.357 511.352 257.495 510.965 258.566C510.582 259.634 509.984 260.613 509.209 261.442C508.434 262.271 507.497 262.933 506.457 263.388L504.528 264.225C505.875 265.106 506.932 266.363 507.569 267.84C507.661 268.053 507.745 268.268 507.818 268.484C508.171 269.511 508.212 270.619 507.936 271.67C507.661 272.721 507.081 273.666 506.27 274.389C505.448 275.16 504.416 275.671 503.304 275.858C502.192 276.044 501.05 275.898 500.021 275.437C498.936 274.957 497.764 274.707 496.578 274.703H496.534C494.939 274.74 493.383 275.208 492.032 276.058C490.681 276.908 489.585 278.107 488.86 279.529C488.689 279.845 488.536 280.171 488.404 280.505C487.993 281.573 487.271 282.493 486.332 283.146C485.393 283.8 484.28 284.157 483.136 284.172C483.085 284.172 483.035 284.173 482.985 284.173Z" fill="#320147"/>
<path d="M364.801 89.4663C367.133 89.4663 369.023 87.5763 369.023 85.2449C369.023 82.9134 367.133 81.0234 364.801 81.0234C362.47 81.0234 360.58 82.9134 360.58 85.2449C360.58 87.5763 362.47 89.4663 364.801 89.4663Z" fill="#8C04C7"/>
</svg>
