<svg width="424" height="370" viewBox="0 0 424 370" fill="none" xmlns="http://www.w3.org/2000/svg">
<path d="M382.295 192.195C382.35 237.893 364.687 281.833 333.017 314.778C331.108 316.777 329.147 318.728 327.135 320.63C324.069 323.546 320.9 326.35 317.628 329.04C287.021 354.257 248.811 368.427 209.163 369.265C207.842 369.295 206.516 369.309 205.185 369.309C173.565 369.309 133.794 352.42 97.7016 329.04C94.7155 327.106 91.7561 325.127 88.8232 323.103C87.4523 322.166 86.088 321.215 84.7304 320.251C70.8102 310.422 57.5972 299.628 45.1888 287.948C37.0645 280.323 29.4461 272.177 22.382 263.561C-5.34998 229.353 -11.4667 198.531 28.07 192.195C32.751 191.447 37.2941 190.648 41.6992 189.797C48.0801 188.57 54.1869 187.246 60.0194 185.824C67.8759 183.914 75.2571 181.844 82.1631 179.612C84.4862 178.864 86.756 178.102 88.9727 177.324C121.745 165.814 143.679 150.803 158.609 134.517C161.142 131.76 163.476 128.97 165.613 126.147C168.883 121.85 171.853 117.333 174.502 112.628C178.158 106.09 181.229 99.2424 183.679 92.1639L183.814 91.7751C195.693 57.5077 192.079 25.7228 205.185 15.0846C261.207 -30.3943 330.954 34.3719 363.691 110.748C365.341 114.597 366.893 118.469 368.347 122.364C369 124.103 369.629 125.846 370.236 127.593C371.831 132.144 373.278 136.707 374.578 141.282C375.076 143.027 375.552 144.77 376.004 146.511C376.487 148.391 376.951 150.265 377.38 152.139C380.565 165.863 382.295 179.398 382.295 192.195Z" fill="#F2F2F2"/>
<path d="M209.163 369.265C207.842 369.294 206.516 369.309 205.185 369.309C173.564 369.309 133.794 352.42 97.7015 329.04C94.7155 327.106 91.756 325.127 88.8231 323.103L91.3954 307.45L169.267 297.11L208.35 326.996L209.163 369.265Z" fill="#41454C"/>
<path d="M212.912 89.7562H201.815C201.471 89.7563 201.142 89.8929 200.899 90.136C200.656 90.379 200.519 90.7086 200.519 91.0522V102.154C200.519 102.324 200.553 102.492 200.618 102.649C200.683 102.806 200.779 102.948 200.899 103.068C201.02 103.188 201.162 103.283 201.32 103.348C201.477 103.413 201.645 103.446 201.815 103.445H212.912C213.255 103.445 213.584 103.309 213.827 103.067C214.07 102.825 214.207 102.497 214.208 102.154V91.0522C214.207 90.7088 214.07 90.3797 213.827 90.1369C213.584 89.894 213.255 89.7572 212.912 89.7562Z" fill="white"/>
<path d="M212.912 108.675H201.815C201.471 108.675 201.142 108.811 200.899 109.054C200.656 109.297 200.519 109.627 200.519 109.971V121.072C200.519 121.242 200.553 121.411 200.618 121.567C200.683 121.724 200.779 121.867 200.899 121.987C201.02 122.107 201.162 122.202 201.32 122.266C201.477 122.331 201.645 122.364 201.815 122.364H212.912C213.255 122.364 213.584 122.228 213.827 121.986C214.07 121.744 214.207 121.415 214.208 121.072V109.971C214.207 109.627 214.07 109.298 213.827 109.055C213.584 108.812 213.255 108.676 212.912 108.675Z" fill="#A5A9B2"/>
<path d="M212.912 127.593H201.815C201.471 127.593 201.142 127.73 200.899 127.973C200.656 128.216 200.519 128.545 200.519 128.889V139.986C200.519 140.156 200.552 140.325 200.617 140.482C200.682 140.64 200.777 140.783 200.898 140.903C201.018 141.023 201.161 141.119 201.319 141.184C201.476 141.249 201.645 141.282 201.815 141.282H212.912C213.255 141.282 213.585 141.145 213.828 140.902C214.071 140.659 214.208 140.33 214.208 139.986V128.889C214.207 128.546 214.07 128.216 213.827 127.974C213.584 127.731 213.255 127.594 212.912 127.593Z" fill="#A5A9B2"/>
<path d="M214.188 147.578C214.133 147.28 213.975 147.01 213.742 146.815C213.509 146.62 213.215 146.513 212.912 146.511H201.815C201.471 146.511 201.142 146.648 200.899 146.891C200.656 147.134 200.519 147.464 200.519 147.807V158.904C200.519 159.074 200.552 159.243 200.617 159.401C200.682 159.558 200.777 159.701 200.898 159.821C201.018 159.942 201.161 160.037 201.319 160.102C201.476 160.167 201.645 160.201 201.815 160.2H212.912C213.255 160.2 213.585 160.064 213.828 159.821C214.071 159.577 214.208 159.248 214.208 158.904V147.807C214.209 147.73 214.202 147.654 214.188 147.578Z" fill="#A5A9B2"/>
<path d="M213.415 165.529C213.256 165.463 213.085 165.429 212.912 165.43H201.815C201.645 165.429 201.476 165.463 201.319 165.528C201.161 165.593 201.018 165.688 200.898 165.809C200.777 165.929 200.682 166.072 200.617 166.229C200.552 166.387 200.519 166.556 200.519 166.726V177.823C200.518 177.993 200.551 178.162 200.616 178.32C200.681 178.477 200.776 178.62 200.897 178.741C201.017 178.861 201.161 178.957 201.318 179.022C201.476 179.087 201.645 179.12 201.815 179.119H212.912C213.256 179.119 213.585 178.982 213.828 178.739C214.071 178.496 214.208 178.166 214.208 177.823V166.726C214.207 166.471 214.132 166.221 213.991 166.009C213.85 165.796 213.65 165.629 213.415 165.529Z" fill="#A5A9B2"/>
<path d="M236.222 89.7562H225.125C224.781 89.7563 224.452 89.8929 224.209 90.136C223.966 90.379 223.829 90.7086 223.829 91.0522V102.154C223.829 102.324 223.863 102.492 223.928 102.649C223.993 102.806 224.089 102.948 224.209 103.068C224.33 103.188 224.473 103.283 224.63 103.348C224.787 103.413 224.955 103.446 225.125 103.445H236.222C236.565 103.445 236.894 103.309 237.137 103.067C237.38 102.825 237.517 102.497 237.518 102.154V91.0522C237.517 90.7088 237.38 90.3797 237.137 90.1369C236.894 89.894 236.565 89.7572 236.222 89.7562Z" fill="#A5A9B2"/>
<path d="M236.222 108.675H225.125C224.781 108.675 224.452 108.811 224.209 109.054C223.966 109.297 223.829 109.627 223.829 109.971V121.072C223.829 121.242 223.863 121.411 223.928 121.567C223.993 121.724 224.089 121.867 224.209 121.987C224.33 122.107 224.473 122.202 224.63 122.266C224.787 122.331 224.955 122.364 225.125 122.364H236.222C236.565 122.364 236.894 122.228 237.137 121.986C237.38 121.744 237.517 121.415 237.518 121.072V109.971C237.517 109.627 237.38 109.298 237.137 109.055C236.894 108.812 236.565 108.676 236.222 108.675Z" fill="#0466C8"/>
<path d="M236.222 127.593H225.125C224.781 127.593 224.452 127.73 224.209 127.973C223.966 128.216 223.829 128.545 223.829 128.889V139.986C223.829 140.156 223.862 140.325 223.927 140.482C223.992 140.64 224.088 140.783 224.208 140.903C224.328 141.023 224.471 141.119 224.629 141.184C224.786 141.249 224.955 141.282 225.125 141.282H236.222C236.566 141.282 236.895 141.145 237.138 140.902C237.381 140.659 237.518 140.33 237.518 139.986V128.889C237.517 128.546 237.38 128.216 237.137 127.974C236.894 127.731 236.565 127.594 236.222 127.593Z" fill="#0466C8"/>
<path d="M236.222 146.511H225.125C224.853 146.511 224.589 146.597 224.369 146.757C224.148 146.916 223.984 147.141 223.899 147.399C223.853 147.53 223.829 147.668 223.829 147.807V158.904C223.829 159.074 223.862 159.243 223.927 159.401C223.992 159.558 224.087 159.701 224.208 159.821C224.328 159.942 224.471 160.037 224.629 160.102C224.786 160.167 224.955 160.201 225.125 160.2H236.222C236.566 160.2 236.895 160.064 237.138 159.821C237.381 159.577 237.518 159.248 237.518 158.904V147.807C237.517 147.464 237.38 147.135 237.137 146.892C236.894 146.649 236.565 146.512 236.222 146.511Z" fill="#0466C8"/>
<path d="M236.222 165.43H225.125C224.955 165.429 224.786 165.463 224.629 165.528C224.471 165.593 224.328 165.688 224.208 165.809C224.088 165.929 223.992 166.072 223.927 166.229C223.862 166.387 223.829 166.556 223.829 166.726V177.823C223.829 177.993 223.862 178.162 223.927 178.319C223.992 178.476 224.088 178.619 224.208 178.74C224.328 178.86 224.471 178.956 224.629 179.021C224.786 179.086 224.955 179.119 225.125 179.119H236.222C236.566 179.119 236.895 178.982 237.138 178.739C237.381 178.496 237.518 178.166 237.518 177.823V166.726C237.518 166.382 237.381 166.053 237.138 165.809C236.895 165.566 236.566 165.43 236.222 165.43Z" fill="#A5A9B2"/>
<path d="M259.532 89.7562H248.435C248.092 89.7563 247.762 89.8929 247.519 90.136C247.276 90.379 247.14 90.7086 247.139 91.0522V102.154C247.14 102.324 247.173 102.492 247.239 102.649C247.304 102.806 247.399 102.948 247.52 103.068C247.64 103.188 247.783 103.283 247.94 103.348C248.097 103.413 248.266 103.446 248.435 103.445H259.532C259.875 103.445 260.204 103.309 260.447 103.067C260.69 102.825 260.827 102.497 260.828 102.154V91.0522C260.827 90.7088 260.69 90.3797 260.448 90.1369C260.205 89.894 259.876 89.7572 259.532 89.7562Z" fill="#0466C8"/>
<path d="M259.532 108.675H248.435C248.092 108.675 247.762 108.811 247.519 109.054C247.276 109.297 247.14 109.627 247.139 109.971V121.072C247.14 121.242 247.173 121.411 247.239 121.567C247.304 121.724 247.399 121.867 247.52 121.987C247.64 122.107 247.783 122.202 247.94 122.266C248.097 122.331 248.266 122.364 248.435 122.364H259.532C259.875 122.364 260.204 122.228 260.447 121.986C260.69 121.744 260.827 121.415 260.828 121.072V109.971C260.827 109.627 260.691 109.298 260.448 109.055C260.205 108.812 259.876 108.676 259.532 108.675Z" fill="#0466C8"/>
<path d="M259.532 127.593H248.435C248.092 127.593 247.762 127.73 247.519 127.973C247.276 128.216 247.14 128.545 247.139 128.889V139.986C247.139 140.156 247.172 140.325 247.237 140.482C247.302 140.64 247.398 140.783 247.518 140.903C247.639 141.023 247.782 141.119 247.939 141.184C248.096 141.249 248.265 141.282 248.435 141.282H259.532C259.876 141.282 260.206 141.145 260.449 140.902C260.692 140.659 260.828 140.33 260.828 139.986V128.889C260.827 128.546 260.691 128.216 260.448 127.974C260.205 127.731 259.876 127.594 259.532 127.593Z" fill="#A5A9B2"/>
<path d="M259.532 146.511H248.435C248.092 146.511 247.762 146.648 247.519 146.891C247.276 147.134 247.14 147.464 247.139 147.807V158.904C247.139 159.074 247.172 159.243 247.237 159.401C247.302 159.558 247.398 159.701 247.518 159.821C247.639 159.942 247.782 160.037 247.939 160.102C248.096 160.167 248.265 160.201 248.435 160.2H259.532C259.876 160.2 260.206 160.064 260.449 159.821C260.692 159.577 260.828 159.248 260.828 158.904V147.807C260.827 147.464 260.691 147.135 260.448 146.892C260.205 146.649 259.876 146.512 259.532 146.511Z" fill="#0466C8"/>
<path d="M259.532 165.43H248.435C248.265 165.429 248.096 165.463 247.939 165.528C247.782 165.593 247.639 165.688 247.518 165.809C247.398 165.929 247.302 166.072 247.237 166.229C247.172 166.387 247.139 166.556 247.139 166.726V177.823C247.139 177.993 247.172 178.162 247.237 178.319C247.302 178.476 247.398 178.619 247.518 178.74C247.639 178.86 247.782 178.956 247.939 179.021C248.096 179.086 248.265 179.119 248.435 179.119H259.532C259.876 179.119 260.206 178.982 260.449 178.739C260.692 178.496 260.828 178.166 260.828 177.823V166.726C260.828 166.382 260.692 166.053 260.449 165.809C260.206 165.566 259.876 165.43 259.532 165.43Z" fill="#0466C8"/>
<path d="M282.843 89.7562H271.746C271.402 89.7563 271.073 89.8929 270.83 90.136C270.586 90.379 270.45 90.7085 270.45 91.0522V102.154C270.45 102.324 270.484 102.492 270.549 102.649C270.614 102.806 270.71 102.948 270.83 103.068C270.95 103.188 271.093 103.283 271.25 103.348C271.408 103.413 271.576 103.446 271.746 103.445H282.843C283.186 103.445 283.515 103.309 283.758 103.067C284 102.825 284.138 102.497 284.139 102.154V91.0522C284.138 90.7088 284.001 90.3797 283.758 90.1369C283.515 89.894 283.186 89.7572 282.843 89.7562Z" fill="#0466C8"/>
<path d="M282.843 108.675H271.746C271.402 108.675 271.073 108.811 270.829 109.054C270.586 109.297 270.45 109.627 270.45 109.971V121.072C270.45 121.242 270.484 121.411 270.549 121.568C270.614 121.724 270.71 121.867 270.83 121.987C270.95 122.107 271.093 122.202 271.25 122.266C271.408 122.331 271.576 122.364 271.746 122.364H282.843C283.186 122.364 283.515 122.228 283.758 121.986C284 121.744 284.138 121.415 284.139 121.072V109.971C284.138 109.627 284.001 109.298 283.758 109.055C283.515 108.812 283.186 108.676 282.843 108.675Z" fill="white"/>
<path d="M282.843 127.593H271.746C271.402 127.593 271.073 127.73 270.829 127.973C270.586 128.216 270.45 128.545 270.45 128.889V139.986C270.449 140.156 270.483 140.325 270.548 140.482C270.613 140.64 270.708 140.783 270.829 140.903C270.949 141.023 271.092 141.119 271.249 141.184C271.407 141.249 271.576 141.282 271.746 141.282H282.843C283.186 141.282 283.516 141.145 283.759 140.902C284.002 140.659 284.139 140.33 284.139 139.986V128.889C284.138 128.546 284.001 128.216 283.758 127.974C283.515 127.731 283.186 127.594 282.843 127.593Z" fill="white"/>
<path d="M282.843 146.511H271.746C271.402 146.511 271.073 146.648 270.829 146.891C270.586 147.134 270.45 147.464 270.45 147.807V158.904C270.449 159.074 270.483 159.243 270.548 159.401C270.613 159.558 270.708 159.701 270.829 159.821C270.949 159.942 271.092 160.037 271.249 160.102C271.407 160.167 271.576 160.201 271.746 160.2H282.843C283.186 160.2 283.516 160.064 283.759 159.821C284.002 159.577 284.139 159.248 284.139 158.904V147.807C284.138 147.464 284.001 147.135 283.758 146.892C283.515 146.649 283.186 146.512 282.843 146.511Z" fill="#A5A9B2"/>
<path d="M282.843 165.43H271.746C271.576 165.429 271.407 165.463 271.249 165.528C271.092 165.593 270.949 165.688 270.829 165.809C270.708 165.929 270.613 166.072 270.548 166.229C270.483 166.387 270.449 166.556 270.45 166.726V177.823C270.449 177.993 270.483 178.162 270.548 178.319C270.613 178.476 270.708 178.619 270.829 178.74C270.949 178.86 271.092 178.956 271.249 179.021C271.407 179.086 271.576 179.119 271.746 179.119H282.843C283.186 179.119 283.516 178.982 283.759 178.739C284.002 178.496 284.139 178.166 284.139 177.823V166.726C284.139 166.382 284.002 166.053 283.759 165.809C283.516 165.566 283.186 165.43 282.843 165.43Z" fill="#0466C8"/>
<path d="M306.153 89.7562H295.051C294.708 89.7574 294.38 89.8945 294.138 90.1374C293.895 90.3803 293.76 90.7093 293.76 91.0522V102.154C293.76 102.496 293.896 102.825 294.138 103.067C294.38 103.309 294.709 103.445 295.051 103.445H306.153C306.496 103.445 306.825 103.309 307.068 103.067C307.311 102.825 307.448 102.497 307.449 102.154V91.0522C307.448 90.7088 307.311 90.3797 307.068 90.1369C306.825 89.894 306.496 89.7572 306.153 89.7562Z" fill="white"/>
<path d="M306.153 108.675H295.051C294.708 108.676 294.38 108.813 294.137 109.056C293.895 109.299 293.76 109.628 293.76 109.971V121.072C293.76 121.415 293.896 121.743 294.138 121.985C294.38 122.227 294.709 122.364 295.051 122.364H306.153C306.496 122.364 306.825 122.228 307.068 121.986C307.311 121.744 307.448 121.415 307.449 121.072V109.971C307.448 109.627 307.311 109.298 307.068 109.055C306.825 108.812 306.496 108.676 306.153 108.675Z" fill="white"/>
<path d="M306.153 127.593H295.051C294.708 127.594 294.38 127.731 294.138 127.974C293.895 128.217 293.76 128.546 293.76 128.889V139.986C293.759 140.156 293.792 140.324 293.857 140.481C293.922 140.638 294.017 140.781 294.137 140.902C294.257 141.022 294.399 141.118 294.556 141.183C294.713 141.248 294.881 141.282 295.051 141.282H306.153C306.496 141.282 306.826 141.145 307.069 140.902C307.312 140.659 307.449 140.33 307.449 139.986V128.889C307.448 128.546 307.311 128.216 307.068 127.974C306.825 127.731 306.496 127.594 306.153 127.593Z" fill="white"/>
<path d="M306.153 146.511H295.051C294.708 146.512 294.38 146.65 294.138 146.893C293.895 147.135 293.76 147.464 293.76 147.807V158.904C293.759 159.074 293.792 159.242 293.857 159.4C293.922 159.557 294.017 159.7 294.137 159.82C294.256 159.94 294.399 160.036 294.556 160.101C294.713 160.166 294.881 160.2 295.051 160.2H306.153C306.496 160.2 306.826 160.064 307.069 159.821C307.312 159.577 307.449 159.248 307.449 158.904V147.807C307.448 147.464 307.311 147.135 307.068 146.892C306.825 146.649 306.496 146.512 306.153 146.511Z" fill="#0466C8"/>
<path d="M306.153 165.43H295.051C294.881 165.43 294.713 165.464 294.556 165.529C294.399 165.594 294.256 165.69 294.137 165.81C294.017 165.93 293.922 166.073 293.857 166.23C293.792 166.388 293.759 166.556 293.76 166.726V177.823C293.759 177.993 293.792 178.161 293.857 178.318C293.922 178.475 294.017 178.618 294.137 178.738C294.256 178.859 294.399 178.954 294.556 179.02C294.713 179.085 294.881 179.119 295.051 179.119H306.153C306.496 179.119 306.826 178.982 307.069 178.739C307.312 178.496 307.449 178.166 307.449 177.823V166.726C307.449 166.382 307.312 166.053 307.069 165.809C306.826 165.566 306.496 165.43 306.153 165.43Z" fill="#A5A9B2"/>
<path d="M329.463 89.7562H318.361C318.018 89.7574 317.69 89.8945 317.448 90.1374C317.206 90.3803 317.07 90.7093 317.07 91.0522V102.154C317.07 102.496 317.206 102.825 317.448 103.067C317.69 103.309 318.019 103.445 318.361 103.445H329.463C329.806 103.445 330.135 103.309 330.378 103.067C330.621 102.825 330.758 102.497 330.759 102.154V91.0522C330.758 90.7088 330.621 90.3797 330.378 90.1369C330.136 89.8941 329.806 89.7572 329.463 89.7562Z" fill="white"/>
<path d="M329.463 108.675H318.361C318.018 108.676 317.69 108.813 317.448 109.056C317.206 109.299 317.07 109.628 317.07 109.971V121.072C317.07 121.415 317.206 121.743 317.448 121.985C317.69 122.227 318.019 122.364 318.361 122.364H329.463C329.806 122.364 330.135 122.228 330.378 121.986C330.621 121.744 330.758 121.415 330.759 121.072V109.971C330.758 109.627 330.621 109.298 330.378 109.055C330.136 108.812 329.806 108.676 329.463 108.675Z" fill="white"/>
<path d="M329.463 127.593H318.361C318.018 127.594 317.69 127.731 317.448 127.974C317.206 128.217 317.07 128.546 317.07 128.889V139.986C317.07 140.156 317.103 140.324 317.167 140.481C317.232 140.638 317.327 140.781 317.447 140.902C317.567 141.022 317.709 141.118 317.866 141.183C318.023 141.248 318.191 141.282 318.361 141.282H329.463C329.807 141.282 330.136 141.145 330.379 140.902C330.622 140.659 330.759 140.33 330.759 139.986V128.889C330.758 128.546 330.621 128.217 330.378 127.974C330.136 127.731 329.806 127.594 329.463 127.593Z" fill="#0466C8"/>
<path d="M329.463 146.511H318.361C318.018 146.512 317.69 146.65 317.448 146.893C317.206 147.135 317.07 147.464 317.07 147.807V158.904C317.07 159.074 317.103 159.242 317.167 159.4C317.232 159.557 317.327 159.7 317.447 159.82C317.567 159.94 317.709 160.036 317.866 160.101C318.023 160.166 318.191 160.2 318.361 160.2H329.463C329.807 160.2 330.136 160.064 330.379 159.821C330.622 159.577 330.759 159.248 330.759 158.904V147.807C330.758 147.464 330.621 147.135 330.378 146.892C330.136 146.649 329.806 146.512 329.463 146.511Z" fill="#A5A9B2"/>
<path d="M329.463 165.43H318.361C318.191 165.43 318.023 165.464 317.866 165.529C317.709 165.594 317.567 165.69 317.447 165.81C317.327 165.93 317.232 166.073 317.167 166.23C317.103 166.388 317.07 166.556 317.07 166.726V177.823C317.07 177.993 317.103 178.161 317.167 178.318C317.232 178.475 317.327 178.618 317.447 178.738C317.567 178.859 317.709 178.954 317.866 179.02C318.023 179.085 318.191 179.119 318.361 179.119H329.463C329.807 179.119 330.136 178.982 330.379 178.739C330.622 178.496 330.759 178.166 330.759 177.823V166.726C330.759 166.382 330.622 166.053 330.379 165.809C330.136 165.566 329.807 165.43 329.463 165.43Z" fill="white"/>
<path d="M352.773 89.7562H341.671C341.328 89.7574 341 89.8945 340.758 90.1374C340.516 90.3803 340.38 90.7093 340.38 91.0522V102.154C340.38 102.496 340.516 102.825 340.758 103.067C341 103.309 341.329 103.445 341.671 103.445H352.773C353.116 103.445 353.445 103.309 353.688 103.067C353.931 102.825 354.068 102.497 354.069 102.154V91.0522C354.068 90.7088 353.931 90.3797 353.688 90.1369C353.446 89.8941 353.116 89.7572 352.773 89.7562Z" fill="#0466C8"/>
<path d="M352.773 108.675H341.671C341.328 108.676 341 108.813 340.758 109.056C340.516 109.299 340.38 109.628 340.38 109.971V121.072C340.38 121.415 340.516 121.743 340.758 121.985C341 122.227 341.329 122.364 341.671 122.364H352.773C353.116 122.364 353.445 122.228 353.688 121.986C353.931 121.744 354.068 121.415 354.069 121.072V109.971C354.068 109.627 353.931 109.298 353.688 109.055C353.446 108.812 353.116 108.676 352.773 108.675Z" fill="#0466C8"/>
<path d="M352.773 127.593H341.671C341.328 127.594 341 127.731 340.758 127.974C340.516 128.217 340.38 128.546 340.38 128.889V139.986C340.38 140.156 340.413 140.324 340.477 140.481C340.542 140.638 340.637 140.781 340.757 140.902C340.877 141.022 341.019 141.118 341.176 141.183C341.333 141.248 341.501 141.282 341.671 141.282H352.773C353.117 141.282 353.446 141.145 353.689 140.902C353.932 140.659 354.069 140.33 354.069 139.986V128.889C354.068 128.546 353.931 128.217 353.688 127.974C353.446 127.731 353.116 127.594 352.773 127.593Z" fill="#A5A9B2"/>
<path d="M352.773 146.511H341.671C341.328 146.512 341 146.65 340.758 146.893C340.516 147.135 340.38 147.464 340.38 147.807V158.904C340.38 159.074 340.413 159.242 340.477 159.4C340.542 159.557 340.637 159.7 340.757 159.82C340.877 159.94 341.019 160.036 341.176 160.101C341.333 160.166 341.501 160.2 341.671 160.2H352.773C353.117 160.2 353.446 160.064 353.689 159.821C353.932 159.577 354.069 159.248 354.069 158.904V147.807C354.068 147.464 353.931 147.135 353.688 146.892C353.446 146.649 353.116 146.512 352.773 146.511Z" fill="white"/>
<path d="M352.773 165.43H341.671C341.501 165.43 341.333 165.464 341.176 165.529C341.019 165.594 340.877 165.69 340.757 165.81C340.637 165.93 340.542 166.073 340.477 166.23C340.413 166.388 340.38 166.556 340.38 166.726V177.823C340.38 177.993 340.413 178.161 340.477 178.318C340.542 178.475 340.637 178.618 340.757 178.738C340.877 178.859 341.019 178.954 341.176 179.02C341.333 179.085 341.501 179.119 341.671 179.119H352.773C353.117 179.119 353.446 178.982 353.689 178.739C353.932 178.496 354.069 178.166 354.069 177.823V166.726C354.069 166.382 353.932 166.053 353.689 165.809C353.446 165.566 353.117 165.43 352.773 165.43Z" fill="#0466C8"/>
<path d="M376.083 89.7562H364.982C364.639 89.7574 364.31 89.8945 364.068 90.1374C363.826 90.3803 363.69 90.7093 363.69 91.0522V102.154C363.69 102.496 363.827 102.825 364.069 103.067C364.311 103.309 364.639 103.445 364.982 103.445H376.083C376.426 103.445 376.755 103.309 376.998 103.067C377.241 102.825 377.378 102.497 377.379 102.154V91.0522C377.378 90.7088 377.242 90.3797 376.999 90.1369C376.756 89.8941 376.427 89.7572 376.083 89.7562Z" fill="#0466C8"/>
<path d="M376.083 108.675H364.982C364.639 108.676 364.31 108.813 364.068 109.056C363.826 109.299 363.69 109.628 363.69 109.971V121.072C363.69 121.415 363.827 121.743 364.069 121.985C364.311 122.227 364.639 122.364 364.982 122.364H376.083C376.426 122.364 376.755 122.228 376.998 121.986C377.241 121.744 377.378 121.415 377.379 121.072V109.971C377.378 109.627 377.242 109.298 376.999 109.055C376.756 108.812 376.427 108.676 376.083 108.675Z" fill="#0466C8"/>
<path d="M376.083 127.593H364.982C364.639 127.594 364.31 127.731 364.068 127.974C363.826 128.217 363.69 128.546 363.69 128.889V139.986C363.69 140.156 363.723 140.324 363.788 140.481C363.852 140.638 363.947 140.781 364.067 140.902C364.187 141.022 364.33 141.118 364.487 141.183C364.643 141.248 364.812 141.282 364.982 141.282H376.083C376.427 141.282 376.757 141.145 377 140.902C377.243 140.659 377.379 140.33 377.379 139.986V128.889C377.378 128.546 377.242 128.217 376.999 127.974C376.756 127.731 376.427 127.594 376.083 127.593Z" fill="#A5A9B2"/>
<path d="M376.083 146.511H364.982C364.639 146.512 364.31 146.65 364.068 146.893C363.826 147.135 363.69 147.464 363.69 147.807V158.904C363.69 159.074 363.723 159.242 363.788 159.4C363.852 159.557 363.947 159.7 364.067 159.82C364.187 159.94 364.33 160.036 364.487 160.101C364.643 160.166 364.812 160.2 364.982 160.2H376.083C376.427 160.2 376.757 160.064 377 159.821C377.243 159.577 377.379 159.248 377.379 158.904V147.807C377.378 147.464 377.242 147.135 376.999 146.892C376.756 146.649 376.427 146.512 376.083 146.511Z" fill="#0466C8"/>
<path d="M376.083 165.43H364.982C364.812 165.43 364.643 165.464 364.487 165.529C364.33 165.594 364.187 165.69 364.067 165.81C363.947 165.93 363.852 166.073 363.788 166.23C363.723 166.388 363.69 166.556 363.69 166.726V177.823C363.69 177.993 363.723 178.161 363.788 178.318C363.852 178.475 363.947 178.618 364.067 178.738C364.187 178.859 364.33 178.954 364.487 179.02C364.643 179.085 364.812 179.119 364.982 179.119H376.083C376.427 179.119 376.757 178.982 377 178.739C377.243 178.496 377.379 178.166 377.379 177.823V166.726C377.379 166.382 377.243 166.053 377 165.809C376.757 165.566 376.427 165.43 376.083 165.43Z" fill="#0466C8"/>
<path d="M399.394 89.7562H388.292C387.949 89.7574 387.62 89.8945 387.378 90.1374C387.136 90.3803 387.001 90.7093 387.001 91.0522V102.154C387.001 102.496 387.137 102.825 387.379 103.067C387.621 103.309 387.949 103.445 388.292 103.445H399.394C399.737 103.445 400.066 103.309 400.308 103.067C400.551 102.825 400.689 102.497 400.69 102.154V91.0522C400.689 90.7088 400.552 90.3797 400.309 90.1369C400.066 89.8941 399.737 89.7572 399.394 89.7562Z" fill="#A5A9B2"/>
<path d="M399.394 108.675H388.292C387.949 108.676 387.62 108.813 387.378 109.056C387.136 109.299 387.001 109.628 387.001 109.971V121.072C387.001 121.415 387.137 121.743 387.379 121.985C387.621 122.227 387.949 122.364 388.292 122.364H399.394C399.737 122.364 400.066 122.228 400.308 121.986C400.551 121.744 400.689 121.415 400.69 121.072V109.971C400.689 109.627 400.552 109.298 400.309 109.055C400.066 108.812 399.737 108.676 399.394 108.675Z" fill="#0466C8"/>
<path d="M399.394 127.593H388.292C387.949 127.594 387.62 127.731 387.378 127.974C387.136 128.217 387.001 128.546 387.001 128.889V139.986C387 140.156 387.033 140.324 387.098 140.481C387.163 140.638 387.258 140.781 387.378 140.902C387.497 141.022 387.64 141.118 387.797 141.183C387.954 141.248 388.122 141.282 388.292 141.282H399.394C399.737 141.282 400.067 141.145 400.31 140.902C400.553 140.659 400.69 140.33 400.69 139.986V128.889C400.689 128.546 400.552 128.217 400.309 127.974C400.066 127.731 399.737 127.594 399.394 127.593Z" fill="#0466C8"/>
<path d="M399.394 146.511H388.292C387.949 146.512 387.62 146.65 387.378 146.893C387.136 147.135 387.001 147.464 387.001 147.807V158.904C387 159.074 387.033 159.242 387.098 159.4C387.163 159.557 387.258 159.7 387.378 159.82C387.497 159.94 387.64 160.036 387.797 160.101C387.954 160.166 388.122 160.2 388.292 160.2H399.394C399.737 160.2 400.067 160.064 400.31 159.821C400.553 159.577 400.69 159.248 400.69 158.904V147.807C400.689 147.464 400.552 147.135 400.309 146.892C400.066 146.649 399.737 146.512 399.394 146.511Z" fill="#0466C8"/>
<path d="M399.394 165.43H388.292C388.122 165.43 387.954 165.464 387.797 165.529C387.64 165.594 387.497 165.69 387.378 165.81C387.258 165.93 387.163 166.073 387.098 166.23C387.033 166.388 387 166.556 387.001 166.726V177.823C387 177.993 387.033 178.161 387.098 178.318C387.163 178.475 387.258 178.618 387.378 178.738C387.497 178.859 387.64 178.954 387.797 179.02C387.954 179.085 388.122 179.119 388.292 179.119H399.394C399.737 179.119 400.067 178.982 400.31 178.739C400.553 178.496 400.69 178.166 400.69 177.823V166.726C400.69 166.382 400.553 166.053 400.31 165.809C400.067 165.566 399.737 165.43 399.394 165.43Z" fill="#A5A9B2"/>
<path d="M422.704 89.7562H411.602C411.259 89.7574 410.931 89.8945 410.689 90.1374C410.447 90.3803 410.311 90.7093 410.311 91.0522V102.154C410.311 102.496 410.447 102.825 410.689 103.067C410.931 103.309 411.26 103.445 411.602 103.445H422.704C423.047 103.445 423.376 103.309 423.619 103.067C423.862 102.825 423.999 102.497 424 102.154V91.0522C423.999 90.7088 423.862 90.3797 423.619 90.1369C423.377 89.8941 423.047 89.7572 422.704 89.7562Z" fill="#A5A9B2"/>
<path d="M422.704 108.675H411.602C411.259 108.676 410.931 108.813 410.689 109.056C410.447 109.299 410.311 109.628 410.311 109.971V121.072C410.311 121.415 410.447 121.743 410.689 121.985C410.931 122.227 411.26 122.364 411.602 122.364H422.704C423.047 122.364 423.376 122.228 423.619 121.986C423.862 121.744 423.999 121.415 424 121.072V109.971C423.999 109.627 423.862 109.298 423.619 109.055C423.377 108.812 423.047 108.676 422.704 108.675Z" fill="#A5A9B2"/>
<path d="M422.704 127.593H411.602C411.259 127.594 410.931 127.731 410.689 127.974C410.447 128.217 410.311 128.546 410.311 128.889V139.986C410.311 140.156 410.344 140.324 410.408 140.481C410.473 140.638 410.568 140.781 410.688 140.902C410.808 141.022 410.95 141.118 411.107 141.183C411.264 141.248 411.432 141.282 411.602 141.282H422.704C423.048 141.282 423.377 141.145 423.62 140.902C423.863 140.659 424 140.33 424 139.986V128.889C423.999 128.546 423.862 128.217 423.619 127.974C423.377 127.731 423.047 127.594 422.704 127.593Z" fill="#0466C8"/>
<path d="M422.704 146.511H411.602C411.259 146.512 410.931 146.65 410.689 146.893C410.447 147.135 410.311 147.464 410.311 147.807V158.904C410.311 159.074 410.344 159.242 410.408 159.4C410.473 159.557 410.568 159.7 410.688 159.82C410.808 159.94 410.95 160.036 411.107 160.101C411.264 160.166 411.432 160.2 411.602 160.2H422.704C423.048 160.2 423.377 160.064 423.62 159.821C423.863 159.577 424 159.248 424 158.904V147.807C423.999 147.464 423.862 147.135 423.619 146.892C423.377 146.649 423.047 146.512 422.704 146.511Z" fill="#A5A9B2"/>
<path d="M422.704 165.43H411.602C411.432 165.43 411.264 165.464 411.107 165.529C410.95 165.594 410.808 165.69 410.688 165.81C410.568 165.93 410.473 166.073 410.408 166.23C410.344 166.388 410.311 166.556 410.311 166.726V177.823C410.311 177.993 410.344 178.161 410.408 178.318C410.473 178.475 410.568 178.618 410.688 178.738C410.808 178.859 410.95 178.954 411.107 179.02C411.264 179.085 411.432 179.119 411.602 179.119H422.704C423.048 179.119 423.377 178.982 423.62 178.739C423.863 178.496 424 178.166 424 177.823V166.726C424 166.382 423.863 166.053 423.62 165.809C423.377 165.566 423.048 165.43 422.704 165.43Z" fill="#A5A9B2"/>
<path d="M167.546 329.041H167.237L167.501 329.006L167.546 329.041Z" fill="#41454C"/>
<path d="M140.985 122.162C159.795 122.162 175.044 106.913 175.044 88.1027C175.044 69.2925 159.795 54.0437 140.985 54.0437C122.175 54.0437 106.926 69.2925 106.926 88.1027C106.926 106.913 122.175 122.162 140.985 122.162Z" fill="#FFB6B6"/>
<path d="M170.812 63.1312C170.812 63.1312 179.72 46.1017 160.122 44.5536C160.122 44.5536 143.414 29.3978 126.385 41.7829C126.385 41.7829 117.096 41.7829 112.017 52.2943C112.017 52.2943 104.711 49.5236 103.106 56.9387C103.106 56.9387 97.7598 72.4201 103.106 86.3533C108.451 100.287 110.227 101.835 110.227 101.835C110.227 101.835 101.443 72.6229 122.824 71.0747C144.206 69.5265 168.132 56.1646 169.914 73.1941C171.696 90.2235 174.377 94.4195 174.377 94.4195C174.377 94.4195 191.301 70.0979 170.812 63.1312Z" fill="#41454C"/>
<path d="M229.088 172.04L228.979 172.618L227.747 179.119L219.238 224.084L218.734 226.731L217.678 232.329L216.232 239.967L213.026 256.891L212.109 261.741L211.765 263.561L211.646 264.199L210.693 269.219L210.404 270.734L208.081 287.948L206.052 302.948L212.842 309.738L208.794 313.786L206.137 329.005L206.142 329.04H97.7017C93.3148 326.198 88.9911 323.269 84.7305 320.251L85.6229 313.571C85.6229 313.571 88.6936 301.642 87.4025 300.216C86.1164 298.791 83.2948 296.243 83.2948 296.243L86.8492 287.948L87.3427 286.796L86.5152 269.633L86.4953 269.219L86.2211 263.561L86.1862 262.833L86.1313 261.741L85.0795 239.967L85.0595 239.608L84.7406 233.007L84.4414 226.731L84.3118 224.084L83.0307 197.598L82.1632 179.612L81.4055 163.954L84.4514 162.922L117.029 151.85L130.523 134.308L158.609 134.517L172.358 134.622L195.3 155.898L200.519 158.391L200.559 158.411L204.303 160.2L213.794 164.732L223.829 169.527L228.979 171.985L229.088 172.04Z" fill="#94C8FD"/>
<path d="M134.153 277.944C132.095 278.741 129.887 279.077 127.685 278.929C125.482 278.781 123.34 278.151 121.407 277.085C119.474 276.019 117.799 274.542 116.499 272.759C115.198 270.975 114.305 268.928 113.882 266.762L60.7612 259.226L79.2274 238.337L126.84 248.696C130.527 248.226 134.257 249.124 137.325 251.221C140.394 253.318 142.586 256.467 143.487 260.072C144.389 263.677 143.936 267.488 142.216 270.781C140.496 274.075 137.627 276.624 134.153 277.944V277.944Z" fill="#FFB6B6"/>
<path d="M110.468 239.967C109.484 238.719 108.091 237.859 106.535 237.539L84.7404 233.007L82.5021 232.544C81.2013 232.272 79.9725 231.729 78.8961 230.95C77.8197 230.171 76.92 229.173 76.2558 228.022C75.5668 226.814 75.15 225.47 75.0344 224.084C74.9305 222.824 75.0814 221.556 75.4781 220.355L83.0305 197.598L87.9308 182.833C88.5247 181.052 88.8752 179.199 88.9727 177.324C89.2458 172.136 87.6406 167.023 84.4512 162.922C81.6473 159.318 77.7583 156.71 73.3587 155.486C68.9591 154.262 64.2824 154.485 60.0194 156.123C59.8947 156.167 59.7651 156.217 59.6405 156.267C56.5833 157.488 53.8519 159.403 51.6621 161.861C49.4723 164.319 47.8842 167.252 47.0233 170.43L41.6992 189.797L30.7171 229.722C29.6177 233.722 29.3956 237.913 30.066 242.007C30.7363 246.101 32.2833 250.002 34.6011 253.442C36.9188 256.883 39.9526 259.782 43.4948 261.942C47.0369 264.101 51.0039 265.47 55.124 265.954L86.5151 269.633L101.042 271.338C102.721 271.54 104.415 271.101 105.786 270.11C107.158 269.119 108.105 267.647 108.439 265.989C108.463 265.898 108.481 265.807 108.494 265.715L108.843 263.561L111.799 245.425L111.829 245.241C111.983 244.315 111.942 243.368 111.707 242.46C111.473 241.551 111.051 240.702 110.468 239.967Z" fill="#94C8FD"/>
<path d="M167.989 278.525C170.139 279.024 172.372 279.046 174.531 278.588C176.69 278.131 178.723 277.206 180.486 275.878C182.249 274.55 183.7 272.852 184.735 270.902C185.771 268.953 186.367 266.801 186.48 264.597L238.007 249.644L216.78 231.569L171.104 248.539C167.388 248.593 163.821 250.008 161.079 252.517C158.337 255.025 156.611 258.452 156.227 262.148C155.843 265.844 156.828 269.553 158.996 272.571C161.164 275.59 164.363 277.708 167.989 278.525V278.525Z" fill="#FFB6B6"/>
<path d="M263.59 216.198L239.083 159.797C237.079 155.166 233.499 151.395 228.979 149.153C227.581 148.465 226.114 147.931 224.602 147.558C224.367 147.498 224.133 147.443 223.899 147.399C220.692 146.699 217.366 146.76 214.188 147.578C211.282 148.325 208.567 149.675 206.219 151.542C203.87 153.408 201.942 155.749 200.559 158.411C200.544 158.433 200.53 158.456 200.519 158.48C198.974 161.469 198.153 164.778 198.121 168.142C198.089 171.506 198.847 174.83 200.334 177.848L200.638 178.456L217.957 213.237C218.548 214.426 218.881 215.727 218.934 217.054C218.988 218.381 218.76 219.705 218.265 220.938C217.771 222.17 217.022 223.285 216.066 224.208C215.111 225.131 213.971 225.841 212.722 226.292L211.506 226.731L189.631 234.633C187.99 235.218 186.64 236.418 185.865 237.979C185.091 239.54 184.952 241.341 185.479 243.002L185.534 243.177L191.665 262.798C191.695 262.888 191.725 262.978 191.76 263.067C191.814 263.237 191.881 263.402 191.959 263.561C192.611 265.022 193.763 266.203 195.208 266.892C196.652 267.58 198.295 267.73 199.841 267.315L211.645 264.199L214.053 263.561L244.537 255.51C248.548 254.45 252.283 252.536 255.485 249.899C258.688 247.261 261.283 243.963 263.092 240.23C264.901 236.496 265.883 232.416 265.969 228.268C266.055 224.12 265.243 220.003 263.59 216.198L263.59 216.198Z" fill="#94C8FD"/>
<path d="M22.382 263.561C29.446 272.177 37.0644 280.323 45.1887 287.948H270.499C272.67 287.951 274.751 288.816 276.285 290.351C277.82 291.886 278.683 293.968 278.685 296.138L279.009 353.233C292.87 346.864 305.85 338.733 317.628 329.04C320.898 326.353 324.067 323.55 327.135 320.63C329.144 318.726 331.105 316.775 333.017 314.778C347.356 299.84 358.967 282.506 367.325 263.561H22.382Z" fill="#012447"/>
<path d="M333.017 314.778C331.108 316.777 329.147 318.728 327.135 320.63H279.173V314.778H333.017Z" fill="white"/>
<path d="M228.64 127.593C228.403 127.156 228.052 126.79 227.625 126.536C227.197 126.281 226.709 126.147 226.212 126.147H62.7811C62.0484 126.149 61.3463 126.441 60.8286 126.96C60.3109 127.479 60.02 128.181 60.0193 128.914V226.731H228.979V128.914C228.981 128.452 228.865 127.997 228.64 127.593Z" fill="#012447"/>
<path d="M59.8713 224.083V236.154C59.8713 236.654 59.9699 237.15 60.1614 237.612C60.3529 238.074 60.6336 238.494 60.9874 238.848C61.3412 239.202 61.7613 239.483 62.2236 239.674C62.6859 239.866 63.1814 239.964 63.6818 239.964H126.044V263.786H125.215C125.15 263.786 125.086 263.799 125.026 263.824C124.966 263.849 124.911 263.885 124.865 263.931C124.819 263.977 124.783 264.032 124.758 264.092C124.733 264.152 124.72 264.216 124.72 264.281V265.938C124.72 266.003 124.733 266.068 124.758 266.128C124.783 266.188 124.819 266.242 124.865 266.288C124.911 266.334 124.966 266.371 125.026 266.396C125.086 266.42 125.15 266.433 125.215 266.433H163.928C163.993 266.433 164.058 266.42 164.118 266.396C164.178 266.371 164.233 266.334 164.278 266.288C164.324 266.242 164.361 266.188 164.386 266.128C164.411 266.068 164.423 266.003 164.423 265.938V264.281C164.423 264.216 164.411 264.152 164.386 264.092C164.361 264.032 164.324 263.977 164.278 263.931C164.233 263.885 164.178 263.849 164.118 263.824C164.058 263.799 163.993 263.786 163.928 263.786H163.1V239.964H225.462C225.962 239.964 226.458 239.866 226.92 239.674C227.382 239.483 227.802 239.202 228.156 238.848C228.51 238.494 228.791 238.074 228.982 237.612C229.174 237.15 229.272 236.654 229.272 236.154V224.083H59.8713Z" fill="#012447"/>
<path d="M142.525 189.438C151.144 189.438 158.131 182.451 158.131 173.832C158.131 165.212 151.144 158.225 142.525 158.225C133.906 158.225 126.918 165.212 126.918 173.832C126.918 182.451 133.906 189.438 142.525 189.438Z" fill="#0466C8"/>
<path d="M182.288 86.2417H179.796C179.796 67.3981 161.147 55.05 142.333 55.0401C139.597 55.0321 136.866 55.2976 134.182 55.8327C131.161 56.4359 128.026 57.1587 124.945 58.1009C112.796 61.8248 101.53 69.0232 101.53 86.2417C101.528 89.5856 101.953 92.9162 102.796 96.152L100.384 96.7802C99.4886 93.3389 99.0363 89.7974 99.0376 86.2417C99.0376 71.1967 105.214 60.8626 115.882 54.7011C121.49 51.4608 128.335 49.372 136.176 48.3551C139.44 47.921 142.738 47.8207 146.022 48.056C167.657 49.6113 182.288 66.2017 182.288 86.2417Z" fill="#0466C8"/>
<path d="M186.441 87.6225L185.459 80.3643C185.217 78.5313 184.334 76.8431 182.966 75.5985C182.088 74.7872 181.038 74.1861 179.893 73.8406C178.749 73.4952 177.541 73.4144 176.361 73.6045L174.801 73.8189C174.374 73.8751 173.962 74.0155 173.59 74.232C173.218 74.4485 172.892 74.7368 172.632 75.0801C172.37 75.4222 172.178 75.8129 172.068 76.2296C171.957 76.6463 171.931 77.0807 171.989 77.5078L174.257 94.2278C174.351 94.9093 174.656 95.5441 175.13 96.0424C175.605 96.5407 176.223 96.8773 176.899 97.0045C177.1 97.0446 177.303 97.0646 177.508 97.0643C177.654 97.0643 177.801 97.0543 177.946 97.0344L179.691 96.8001C180.755 96.6589 181.778 96.3018 182.699 95.7505C183.62 95.1993 184.418 94.4657 185.045 93.5947C185.18 93.4052 185.309 93.2108 185.429 93.0114C186.363 91.3803 186.72 89.4815 186.441 87.6225Z" fill="#0466C8"/>
<path d="M173.794 74.123C173.336 74.3453 172.938 74.6734 172.632 75.0801C172.37 75.4222 172.178 75.8129 172.068 76.2296C171.957 76.6463 171.931 77.0807 171.989 77.5078L174.257 94.2278C174.351 94.9093 174.656 95.5441 175.13 96.0424C175.605 96.5407 176.223 96.8773 176.899 97.0045L173.794 74.123Z" fill="white"/>
<path d="M186.441 87.6225L185.459 80.3642C185.217 78.5312 184.334 76.8431 182.966 75.5985L185.225 92.2337C185.258 92.5008 185.327 92.7622 185.429 93.0114C186.363 91.3802 186.72 89.4815 186.441 87.6225Z" fill="#012447"/>
<path d="M178.679 92.8522C179.361 92.7597 179.704 91.1366 179.445 89.2268C179.186 87.3171 178.423 85.8439 177.741 85.9365C177.059 86.029 176.716 87.6521 176.975 89.5619C177.234 91.4716 177.997 92.9448 178.679 92.8522Z" fill="#012447"/>
<path d="M177.184 83.8791C177.866 83.7866 178.209 82.1634 177.95 80.2537C177.691 78.3439 176.928 76.8708 176.246 76.9633C175.564 77.0559 175.221 78.679 175.48 80.5887C175.739 82.4985 176.502 83.9716 177.184 83.8791Z" fill="#012447"/>
<path d="M186.656 87.3687C187.338 87.2761 187.681 85.653 187.421 83.7432C187.162 81.8335 186.399 80.3604 185.717 80.4529C185.035 80.5454 184.692 82.1686 184.952 84.0783C185.211 85.988 185.974 87.4612 186.656 87.3687Z" fill="#012447"/>
<path d="M142.333 55.0401C139.597 55.0321 136.866 55.2976 134.182 55.8327C131.161 56.4359 128.026 57.1587 124.945 58.1009C120.134 57.8666 116.595 56.6203 115.882 54.7011C121.49 51.4608 128.335 49.372 136.176 48.3551C139.44 47.921 142.739 47.8207 146.022 48.056C146.37 48.2597 146.67 48.5348 146.904 48.863C147.138 49.1912 147.299 49.5651 147.378 49.9603C147.612 51.6951 145.633 53.5396 142.333 55.0401Z" fill="#012447"/>
<path d="M110.508 103.54L106.67 87.5827C106.533 87.007 106.229 86.4845 105.796 86.081C105.363 85.6774 104.821 85.4108 104.237 85.3144C104.072 85.2888 103.905 85.2754 103.739 85.2746C103.503 85.2754 103.269 85.3038 103.041 85.3593L101.555 85.7182C99.6424 86.1808 97.9913 87.3833 96.9642 89.0618C95.9371 90.7404 95.6178 92.7578 96.0765 94.6714L97.7963 101.83C98.189 103.515 99.1242 105.025 100.458 106.127C100.675 106.302 100.901 106.463 101.136 106.611C101.972 107.134 102.904 107.485 103.878 107.643C104.851 107.801 105.846 107.761 106.804 107.528L108.285 107.169C108.676 107.078 109.045 106.906 109.367 106.666C109.845 106.316 110.21 105.833 110.413 105.276C110.616 104.72 110.649 104.115 110.508 103.54Z" fill="#0466C8"/>
<path d="M102.461 100.571C103.13 100.41 103.307 98.7603 102.856 96.8866C102.406 95.0128 101.498 93.6244 100.828 93.7854C100.159 93.9465 99.9822 95.596 100.433 97.4697C100.884 99.3435 101.792 100.732 102.461 100.571Z" fill="#012447"/>
<path d="M97.4761 102.066C98.1453 101.905 98.3223 100.256 97.8714 98.3821C97.4205 96.5084 96.5125 95.12 95.8433 95.281C95.1741 95.442 94.9971 97.0915 95.448 98.9653C95.8989 100.839 96.8069 102.227 97.4761 102.066Z" fill="#012447"/>
<path d="M110.752 103.48L106.914 87.5228C106.764 86.9 106.434 86.335 105.965 85.8988C105.496 85.4625 104.909 85.1743 104.277 85.0702L109.516 106.865C110.034 106.486 110.427 105.962 110.647 105.36C110.867 104.757 110.904 104.103 110.752 103.48Z" fill="white"/>
<path d="M96.944 91.5109C96.838 91.0671 96.6392 90.6509 96.3607 90.2896C95.8211 91.687 95.722 93.216 96.0766 94.6714L97.7964 101.83C98.1891 103.515 99.1243 105.025 100.458 106.127L96.944 91.5109Z" fill="#012447"/>
</svg>
