<svg width="256" height="186" viewBox="0 0 256 186" fill="none" xmlns="http://www.w3.org/2000/svg">
<path d="M237.925 167.393H206.683V185.418H237.925V167.393Z" fill="#04C8A7"/>
<path d="M173.77 181.248C173.49 182.201 173.36 183.314 173.942 184.12C174.264 184.523 174.688 184.834 175.17 185.019C176.409 185.504 177.743 185.7 179.07 185.591C179.324 185.603 179.578 185.562 179.816 185.471C180.053 185.38 180.269 185.24 180.45 185.061C183.529 182.513 185.611 178.961 186.331 175.03C186.389 174.827 186.378 174.611 186.299 174.415C186.198 174.263 186.056 174.142 185.89 174.067C185.205 173.638 184.466 173.301 183.694 173.064C179.464 171.972 174.818 177.682 173.77 181.248Z" fill="#41454C"/>
<path d="M218.123 167.88C218.691 168.54 219.391 169.074 220.179 169.446C220.574 169.629 221.005 169.72 221.44 169.713C221.875 169.705 222.303 169.599 222.691 169.403C223.855 168.741 224.184 167.202 224.091 165.866C223.92 163.396 222.74 161.17 221.384 159.152C220.955 158.513 220.005 156.613 219.171 156.59C218.775 156.578 217.294 158.014 216.892 158.287C215.422 159.286 214.404 160 214.71 161.916C215.051 164.054 216.684 166.341 218.123 167.88Z" fill="#41454C"/>
<path d="M205.234 65.7094C198.975 65.2241 192.998 65.4039 186.728 65.0821C186.201 65.0551 186.455 71.0861 185.909 74.361C185.629 76.0442 176.192 174.647 177.363 174.847C180.371 175.477 183.413 175.927 186.475 176.197C187.716 176.306 199.291 112.058 198.736 106.837C200.252 109.06 205.589 119.322 208.288 131.126C211.849 146.701 212.897 164.317 215.111 163.329C216.536 161.373 218.469 159.843 220.702 158.907C224.36 157.547 218.431 82.6274 212.167 79.1831C212.09 76.9904 212.01 74.7437 211.183 72.7112C210.017 69.8443 207.718 67.5551 205.234 65.7094Z" fill="#41454C"/>
<path d="M255.881 185.964H83.4244V185.308H256L255.881 185.964Z" fill="#222428"/>
<path d="M141.495 88.8245H0V116.761H141.495V88.8245Z" fill="#DBDDE0"/>
<path d="M141.495 44.6821H0V72.6183H141.495V44.6821Z" fill="#DBDDE0"/>
<path d="M141.495 0.394531H0V28.3307H141.495V0.394531Z" fill="#DBDDE0"/>
<path d="M3.01636 25.3143H138.478V3.41113H3.01636V25.3143Z" fill="white"/>
<path d="M3.01636 69.6993H138.478V47.7961H3.01636V69.6993Z" fill="white"/>
<path d="M3.01636 113.744H138.478V91.8408H3.01636V113.744Z" fill="white"/>
<path d="M14.8751 22.5258C19.4837 22.5258 23.2196 18.7898 23.2196 14.1812C23.2196 9.57266 19.4837 5.83667 14.8751 5.83667C10.2665 5.83667 6.53051 9.57266 6.53051 14.1812C6.53051 18.7898 10.2665 22.5258 14.8751 22.5258Z" fill="#04C8A7"/>
<path d="M117.187 10.916H34.8295V12.7301H117.187V10.916Z" fill="#04C8A7"/>
<path d="M117.187 15.6323H34.8295V17.4464H117.187V15.6323Z" fill="#04C8A7"/>
<path d="M14.8751 67.1762C19.4837 67.1762 23.2196 63.4402 23.2196 58.8316C23.2196 54.223 19.4837 50.4871 14.8751 50.4871C10.2665 50.4871 6.53051 54.223 6.53051 58.8316C6.53051 63.4402 10.2665 67.1762 14.8751 67.1762Z" fill="#A5A9B2"/>
<path d="M117.187 55.5662H34.8295V57.3802H117.187V55.5662Z" fill="#A5A9B2"/>
<path d="M117.187 60.2827H34.8295V62.0968H117.187V60.2827Z" fill="#A5A9B2"/>
<path d="M14.8751 111.318C19.4837 111.318 23.2196 107.582 23.2196 102.974C23.2196 98.3651 19.4837 94.6292 14.8751 94.6292C10.2665 94.6292 6.53051 98.3651 6.53051 102.974C6.53051 107.582 10.2665 111.318 14.8751 111.318Z" fill="#A5A9B2"/>
<path d="M117.187 99.7085H34.8295V101.523H117.187V99.7085Z" fill="#A5A9B2"/>
<path d="M117.187 104.425H34.8295V106.239H117.187V104.425Z" fill="#A5A9B2"/>
<path d="M203.692 17.8828C200.444 12.3944 194.017 12.1386 194.017 12.1386C194.017 12.1386 187.756 11.3379 183.739 19.6967C179.994 27.4878 174.827 35.0102 182.907 36.8341L184.366 32.2917L185.27 37.1723C186.42 37.255 187.574 37.2747 188.727 37.2313C197.38 36.952 205.62 37.3131 205.355 34.2081C205.002 30.0805 206.817 23.1636 203.692 17.8828Z" fill="#41454C"/>
<path d="M191.709 36.5822C191.725 37.1999 191.72 37.8514 191.413 38.3878C190.805 39.451 189.319 39.6101 188.425 40.4481C187.486 41.3293 187.379 42.7596 187.334 44.0471C187.288 45.3932 187.248 46.7834 187.739 48.0376C188.04 48.7284 188.42 49.3819 188.873 49.9847C189.418 50.7712 189.969 51.5541 190.524 52.3335C190.821 52.7724 191.152 53.1874 191.514 53.5747C192.509 54.5884 193.874 55.1495 195.237 55.5499C196.117 55.8086 197.068 56.01 197.942 55.729C198.52 55.5034 199.053 55.1758 199.515 54.7617C200.19 54.2774 200.79 53.6958 201.296 53.0359C202.029 51.9716 202.232 50.6393 202.384 49.3556C202.834 45.5597 203.009 41.7362 202.908 37.9151C202.926 37.4987 202.852 37.0834 202.689 36.6995C202.237 35.816 201.025 35.6273 200.386 34.8673C199.84 34.2175 199.818 33.2901 199.823 32.4414L199.835 30.2808C199.854 30.0987 199.817 29.9152 199.73 29.7544C199.65 29.6678 199.555 29.5977 199.449 29.548C199.342 29.4984 199.227 29.4703 199.11 29.4652C197.767 29.2424 196.406 29.1513 195.045 29.1933C193.942 29.227 191.825 29.1347 190.872 29.749C190.006 30.3067 191.09 31.847 191.29 32.7121C191.56 33.9847 191.7 35.2813 191.709 36.5822Z" fill="#FFB8B8"/>
<path d="M194.241 32.8719C199.064 32.8719 202.974 28.962 202.974 24.1388C202.974 19.3157 199.064 15.4058 194.241 15.4058C189.418 15.4058 185.508 19.3157 185.508 24.1388C185.508 28.962 189.418 32.8719 194.241 32.8719Z" fill="#FFB8B8"/>
<path d="M192.263 43.0256C187.756 28.742 185.381 48.8046 182.54 54.2826C182.566 58.0595 182.668 68.5058 183.552 72.4654C186.983 87.8467 203.976 86.6392 209.086 73.667C211.808 66.7568 205.77 49.6311 205.974 41.6403C198.491 34.0577 198.029 58.1134 192.263 43.0256Z" fill="#04C8A7"/>
<path d="M187.315 38.1261C177.549 42.873 182.208 55.6264 178.668 63.9728C175.841 75.4239 168.65 79.0247 185.091 79.2913C188.633 68.8245 185.173 57.455 190.003 46.7973C190.336 42.623 191.767 41.0533 191.641 37.5184C190.694 36.0513 188.24 37.6716 187.315 38.1261Z" fill="#012447"/>
<path d="M202.256 17.3539L195.907 14.0281L187.14 15.3886L185.326 23.4004L189.841 23.2265L191.102 20.2831V23.1778L193.186 23.0979L194.396 18.4119L195.151 23.4004L202.558 23.249L202.256 17.3539Z" fill="#41454C"/>
<path d="M198.329 42.1461C203.356 41.5595 198.455 35.5226 202.445 35.6252C214.392 33.6156 217.966 41.0155 213.423 51.3436C209.258 59.6161 223.991 71.2369 215.76 75.8658C212.839 76.9381 208.656 80.3109 205.802 78.8425C201.218 67.3224 201.053 54.1602 198.329 42.1461Z" fill="#012447"/>
<path d="M212.32 75.0334C210.57 75.8704 209.185 77.2015 208.014 78.7479C207.766 79.0753 208.098 79.6859 208.842 79.6759C209.533 79.6666 209.946 78.7798 210.638 78.7705C210.849 80.619 211.232 82.4438 211.781 84.2214C213.161 83.0098 213.987 81.3043 214.778 79.6469L216.34 76.3709C216.914 75.1681 217.487 73.9649 218.005 72.7368C218.145 72.4496 218.232 72.1392 218.261 71.8208C218.329 69.7073 216.245 69.6945 215.347 71.0172C214.364 72.4638 214.057 74.2024 212.32 75.0334Z" fill="#FFB8B8"/>
<path d="M212.679 38.6982C214.015 40.0864 215.361 41.4863 216.398 43.11C217.435 44.7336 222.799 59.3362 223.017 59.6458C223.791 60.7888 222.887 63.7435 222.841 63.9127C222.751 64.4433 221.632 69.7415 221.352 70.9114C221.156 71.7302 221.158 72.5826 221.03 73.4147C220.901 74.2467 220.612 75.1024 219.972 75.6483C219.89 75.7266 219.79 75.7828 219.68 75.8114C219.325 75.8808 219.082 75.4695 218.958 75.1294C218.571 74.0703 218.179 72.9906 217.496 72.0934C216.813 71.1961 215.778 70.4934 214.65 70.4968C214.557 70.2737 214.518 70.0316 214.537 69.7905C214.556 69.5495 214.633 69.3165 214.76 69.111C214.986 68.6849 215.318 68.3237 215.567 67.9107C215.883 67.3479 216.097 66.7342 216.201 66.0974C216.758 63.1717 216.198 60.1435 214.63 57.611C214.266 57.0105 213.825 56.4597 213.319 55.9725C212.769 55.4564 212.125 55.0416 211.616 54.4839C210.832 53.556 210.358 52.4061 210.261 51.1954C210.167 49.9927 210.199 48.7836 210.356 47.5875C210.585 45.214 210.879 42.8371 211.218 40.4768C211.244 40.1694 211.324 39.8688 211.453 39.5888C211.719 39.0923 212.17 38.9378 212.679 38.6982Z" fill="#012447"/>
<path d="M183.522 71.4913C182.623 70.1686 180.54 70.1814 180.608 72.2949C180.637 72.6133 180.723 72.9237 180.864 73.2109C181.381 74.439 181.955 75.6423 182.529 76.845L184.091 80.1211C184.881 81.7784 185.708 83.4839 187.087 84.6955C187.636 82.9179 188.019 81.0931 188.231 79.2446C188.922 79.254 189.335 80.1407 190.027 80.15C190.77 80.16 191.103 79.5494 190.855 79.222C189.683 77.6756 188.299 76.3445 186.548 75.5075C184.811 74.6766 184.505 72.938 183.522 71.4913Z" fill="#FFB8B8"/>
<path d="M187.415 40.0631C187.545 40.3432 187.624 40.6437 187.651 40.9512C187.99 43.3115 188.283 45.6884 188.512 48.0619C188.669 49.2579 188.701 50.4671 188.608 51.6697C188.51 52.8805 188.036 54.0304 187.252 54.9582C186.744 55.5159 186.1 55.9308 185.549 56.4468C185.043 56.9341 184.603 57.4848 184.238 58.0854C182.671 60.6178 182.11 63.646 182.667 66.5717C182.771 67.2086 182.986 67.8223 183.302 68.385C183.551 68.798 183.882 69.1592 184.108 69.5854C184.236 69.7909 184.312 70.0239 184.331 70.2649C184.351 70.5059 184.312 70.7481 184.219 70.9712C183.091 70.9677 182.056 71.6704 181.372 72.5677C180.689 73.465 180.298 74.5447 179.911 75.6037C179.786 75.9439 179.544 76.3551 179.189 76.2857C179.079 76.2571 178.979 76.201 178.897 76.1227C178.256 75.5767 177.967 74.7211 177.839 73.889C177.71 73.057 177.713 72.2045 177.517 71.3858C177.236 70.2158 176.117 64.9176 176.028 64.3871C175.982 64.2179 175.077 61.2631 175.852 60.1202C176.069 59.8106 181.434 45.208 182.471 43.5844C183.508 41.9607 184.853 40.5608 186.189 39.1726C186.699 39.4122 187.149 39.5667 187.415 40.0631Z" fill="#012447"/>
</svg>
