<svg width="424" height="299" viewBox="0 0 424 299" fill="none" xmlns="http://www.w3.org/2000/svg">
<path d="M93.956 29.9289H66.9169C64.3173 29.9313 61.8249 30.965 59.9868 32.8032C58.1486 34.6413 57.1149 37.1337 57.1125 39.7332V69.0481C56.7669 69.0275 56.4212 68.9965 56.0805 68.9552C49.6747 68.2813 43.5845 65.8312 38.4967 61.8812C33.4088 57.9312 29.5256 52.6384 27.2848 46.5996C25.0441 40.5607 24.5349 34.016 25.8147 27.7032C27.0945 21.3905 30.1124 15.5608 34.5281 10.8714C38.9438 6.18208 44.5818 2.81956 50.8063 1.16297C57.0308 -0.493621 63.5943 -0.378388 69.7568 1.49568C75.9193 3.36975 81.4357 6.92813 85.6841 11.7696C89.9325 16.6111 92.7439 22.5431 93.8013 28.8969C93.8581 29.2375 93.9097 29.5832 93.956 29.9289Z" fill="#F2F2F2"/>
<path d="M413.164 28.8969H66.9168C64.0438 28.9 61.2894 30.0427 59.2579 32.0742C57.2263 34.1057 56.0836 36.8602 56.0805 39.7332V222.403C56.0836 225.276 57.2263 228.03 59.2579 230.062C61.2894 232.093 64.0438 233.236 66.9168 233.239H413.164C416.037 233.236 418.791 232.093 420.823 230.062C422.854 228.03 423.997 225.276 424 222.403V39.7332C423.997 36.8602 422.854 34.1057 420.823 32.0742C418.791 30.0427 416.037 28.9 413.164 28.8969ZM422.968 222.403C422.966 225.002 421.932 227.495 420.094 229.333C418.256 231.171 415.763 232.205 413.164 232.207H66.9168C64.3173 232.205 61.8249 231.171 59.9868 229.333C58.1486 227.495 57.1149 225.002 57.1125 222.403V39.7332C57.1149 37.1336 58.1486 34.6413 59.9868 32.8031C61.8249 30.9649 64.3173 29.9312 66.9168 29.9289H413.164C415.763 29.9312 418.256 30.9649 420.094 32.8031C421.932 34.6413 422.966 37.1336 422.968 39.7332V222.403Z" fill="#6F7683"/>
<path d="M396.135 58.5007H83.9455C83.8086 58.5007 83.6774 58.4463 83.5806 58.3495C83.4838 58.2528 83.4294 58.1215 83.4294 57.9846C83.4294 57.8478 83.4838 57.7165 83.5806 57.6198C83.6774 57.523 83.8086 57.4686 83.9455 57.4686H396.135C396.272 57.4686 396.403 57.523 396.5 57.6198C396.597 57.7165 396.651 57.8478 396.651 57.9846C396.651 58.1215 396.597 58.2528 396.5 58.3495C396.403 58.4463 396.272 58.5007 396.135 58.5007Z" fill="#6F7683"/>
<path d="M172.184 211.051C172.047 211.051 171.916 210.996 171.819 210.899C171.722 210.803 171.668 210.671 171.668 210.535V40.7653C171.668 40.6284 171.722 40.4972 171.819 40.4004C171.916 40.3036 172.047 40.2493 172.184 40.2493C172.321 40.2493 172.452 40.3036 172.549 40.4004C172.646 40.4972 172.7 40.6284 172.7 40.7653V210.535C172.7 210.671 172.646 210.803 172.549 210.899C172.452 210.996 172.321 211.051 172.184 211.051Z" fill="#6F7683"/>
<path d="M250.103 211.051C249.966 211.051 249.834 210.996 249.738 210.899C249.641 210.803 249.587 210.671 249.587 210.535V40.7653C249.587 40.6284 249.641 40.4972 249.738 40.4004C249.834 40.3036 249.966 40.2493 250.103 40.2493C250.239 40.2493 250.371 40.3036 250.467 40.4004C250.564 40.4972 250.619 40.6284 250.619 40.7653V210.535C250.619 210.671 250.564 210.803 250.467 210.899C250.371 210.996 250.239 211.051 250.103 211.051Z" fill="#6F7683"/>
<path d="M328.021 211.051C327.884 211.051 327.753 210.996 327.656 210.899C327.559 210.803 327.505 210.671 327.505 210.535V40.7653C327.505 40.6284 327.559 40.4972 327.656 40.4004C327.753 40.3036 327.884 40.2493 328.021 40.2493C328.158 40.2493 328.289 40.3036 328.386 40.4004C328.483 40.4972 328.537 40.6284 328.537 40.7653V210.535C328.537 210.671 328.483 210.803 328.386 210.899C328.289 210.996 328.158 211.051 328.021 211.051Z" fill="#6F7683"/>
<path d="M122.087 111.762H103.232C102.616 111.762 102.026 111.517 101.591 111.082C101.155 110.646 100.91 110.056 100.91 109.44V87.19C100.91 86.5744 101.155 85.9841 101.591 85.5488C102.026 85.1135 102.616 84.8686 103.232 84.8679H122.087C122.703 84.8686 123.293 85.1135 123.728 85.5488C124.163 85.9841 124.408 86.5744 124.409 87.19V109.44C124.408 110.056 124.163 110.646 123.728 111.082C123.293 111.517 122.703 111.762 122.087 111.762Z" fill="#C8A704"/>
<path d="M148.92 175.233H130.065C129.449 175.232 128.859 174.987 128.423 174.552C127.988 174.116 127.743 173.526 127.743 172.91V150.66C127.743 150.044 127.988 149.454 128.423 149.019C128.859 148.584 129.449 148.339 130.065 148.338H148.92C149.536 148.339 150.126 148.584 150.561 149.019C150.996 149.454 151.241 150.044 151.242 150.66V172.911C151.241 173.526 150.996 174.116 150.561 174.552C150.126 174.987 149.535 175.232 148.92 175.233Z" fill="#C8A704"/>
<path d="M209.81 125.179H190.955C190.339 125.178 189.749 124.933 189.313 124.498C188.878 124.063 188.633 123.473 188.633 122.857V100.606C188.633 99.9909 188.878 99.4006 189.313 98.9653C189.749 98.53 190.339 98.2851 190.955 98.2844H209.81C210.425 98.2851 211.016 98.53 211.451 98.9653C211.886 99.4006 212.131 99.9909 212.132 100.606V122.857C212.131 123.473 211.886 124.063 211.451 124.498C211.016 124.933 210.425 125.178 209.81 125.179Z" fill="#C8A704"/>
<path d="M288.76 100.926H269.905C269.289 100.926 268.699 100.681 268.264 100.245C267.829 99.8101 267.584 99.2199 267.583 98.6042V76.3538C267.584 75.7382 267.829 75.1479 268.264 74.7126C268.699 74.2773 269.289 74.0324 269.905 74.0317H288.76C289.376 74.0324 289.966 74.2773 290.401 74.7126C290.837 75.1479 291.082 75.7382 291.082 76.3538V98.6042C291.082 99.2199 290.837 99.8101 290.401 100.245C289.966 100.681 289.376 100.926 288.76 100.926Z" fill="#C8A704"/>
<path d="M361.519 100.926H342.663C342.048 100.926 341.457 100.681 341.022 100.245C340.587 99.8101 340.342 99.2199 340.341 98.6042V76.3538C340.342 75.7382 340.587 75.1479 341.022 74.7126C341.457 74.2773 342.048 74.0324 342.663 74.0317H361.519C362.134 74.0324 362.724 74.2773 363.16 74.7126C363.595 75.1479 363.84 75.7382 363.841 76.3538V98.6042C363.84 99.2199 363.595 99.8101 363.16 100.245C362.724 100.681 362.134 100.926 361.519 100.926Z" fill="#C8A704"/>
<path d="M395.059 107.118H376.204C375.589 107.118 374.998 106.873 374.563 106.438C374.128 106.002 373.883 105.412 373.882 104.796V82.5459C373.883 81.9303 374.128 81.3401 374.563 80.9048C374.998 80.4694 375.589 80.2246 376.204 80.2239H395.059C395.675 80.2246 396.265 80.4694 396.701 80.9048C397.136 81.3401 397.381 81.9303 397.382 82.5459V104.796C397.381 105.412 397.136 106.002 396.701 106.438C396.265 106.873 395.675 107.118 395.059 107.118Z" fill="#E6E6E6"/>
<path d="M380.095 146.852H361.24C360.624 146.851 360.034 146.606 359.599 146.171C359.163 145.735 358.919 145.145 358.918 144.53V122.279C358.919 121.664 359.163 121.073 359.599 120.638C360.034 120.203 360.624 119.958 361.24 119.957H380.095C380.711 119.958 381.301 120.203 381.736 120.638C382.172 121.073 382.417 121.664 382.417 122.279V144.53C382.417 145.145 382.172 145.736 381.736 146.171C381.301 146.606 380.711 146.851 380.095 146.852Z" fill="#E6E6E6"/>
<path d="M316.109 138.595H297.254C296.638 138.595 296.048 138.35 295.613 137.914C295.177 137.479 294.933 136.889 294.932 136.273V114.023C294.933 113.407 295.177 112.817 295.613 112.382C296.048 111.946 296.638 111.701 297.254 111.701H316.109C316.725 111.701 317.315 111.946 317.75 112.382C318.186 112.817 318.431 113.407 318.431 114.023V136.273C318.431 136.889 318.186 137.479 317.75 137.914C317.315 138.35 316.725 138.595 316.109 138.595Z" fill="#C82504"/>
<path d="M279.472 146.852H260.617C260.001 146.851 259.411 146.606 258.976 146.171C258.54 145.735 258.295 145.145 258.295 144.53V122.279C258.295 121.664 258.54 121.073 258.976 120.638C259.411 120.203 260.001 119.958 260.617 119.957H279.472C280.088 119.958 280.678 120.203 281.113 120.638C281.548 121.073 281.793 121.664 281.794 122.279V144.53C281.793 145.145 281.548 145.736 281.113 146.171C280.678 146.606 280.088 146.851 279.472 146.852Z" fill="#E6E6E6"/>
<path d="M200.522 181.941H181.666C181.051 181.94 180.46 181.695 180.025 181.26C179.59 180.825 179.345 180.234 179.344 179.619V157.368C179.345 156.753 179.59 156.162 180.025 155.727C180.46 155.292 181.051 155.047 181.666 155.046H200.522C201.137 155.047 201.727 155.292 202.163 155.727C202.598 156.162 202.843 156.753 202.844 157.368V179.619C202.843 180.234 202.598 180.825 202.163 181.26C201.727 181.695 201.137 181.94 200.522 181.941Z" fill="#E6E6E6"/>
<path d="M105.058 152.528H86.2032C85.5875 152.527 84.9973 152.282 84.562 151.847C84.1267 151.412 83.8818 150.821 83.8811 150.206V127.955C83.8818 127.34 84.1267 126.749 84.562 126.314C84.9973 125.879 85.5875 125.634 86.2032 125.633H105.058C105.674 125.634 106.264 125.879 106.7 126.314C107.135 126.749 107.38 127.34 107.38 127.955V150.206C107.38 150.821 107.135 151.412 106.7 151.847C106.264 152.282 105.674 152.527 105.058 152.528Z" fill="#C82504"/>
<path d="M158.208 111.762H139.353C138.737 111.762 138.147 111.517 137.712 111.082C137.276 110.646 137.031 110.056 137.031 109.44V87.19C137.031 86.5744 137.276 85.9841 137.712 85.5488C138.147 85.1135 138.737 84.8686 139.353 84.8679H158.208C158.824 84.8686 159.414 85.1135 159.849 85.5488C160.285 85.9841 160.529 86.5744 160.53 87.19V109.44C160.529 110.056 160.285 110.646 159.849 111.082C159.414 111.517 158.824 111.762 158.208 111.762Z" fill="#E6E6E6"/>
<path d="M142.771 50.0535H113.358C112.811 50.0535 112.286 49.8361 111.899 49.449C111.512 49.0619 111.294 48.5369 111.294 47.9895C111.294 47.4421 111.512 46.9171 111.899 46.53C112.286 46.1429 112.811 45.9254 113.358 45.9254H142.771C143.319 45.9254 143.844 46.1429 144.231 46.53C144.618 46.9171 144.835 47.4421 144.835 47.9895C144.835 48.5369 144.618 49.0619 144.231 49.449C143.844 49.8361 143.319 50.0535 142.771 50.0535Z" fill="#A5A9B2"/>
<path d="M225.85 50.0535H196.437C195.889 50.0535 195.364 49.8361 194.977 49.449C194.59 49.0619 194.373 48.5369 194.373 47.9895C194.373 47.4421 194.59 46.9171 194.977 46.53C195.364 46.1429 195.889 45.9254 196.437 45.9254H225.85C226.397 45.9254 226.922 46.1429 227.309 46.53C227.696 46.9171 227.914 47.4421 227.914 47.9895C227.914 48.5369 227.696 49.0619 227.309 49.449C226.922 49.8361 226.397 50.0535 225.85 50.0535Z" fill="#A5A9B2"/>
<path d="M303.768 50.0535H274.355C273.808 50.0535 273.283 49.8361 272.896 49.449C272.509 49.0619 272.291 48.5369 272.291 47.9895C272.291 47.4421 272.509 46.9171 272.896 46.53C273.283 46.1429 273.808 45.9254 274.355 45.9254H303.768C304.316 45.9254 304.841 46.1429 305.228 46.53C305.615 46.9171 305.832 47.4421 305.832 47.9895C305.832 48.5369 305.615 49.0619 305.228 49.449C304.841 49.8361 304.316 50.0535 303.768 50.0535Z" fill="#A5A9B2"/>
<path d="M376.527 50.0535H347.114C346.566 50.0535 346.041 49.8361 345.654 49.449C345.267 49.0619 345.05 48.5369 345.05 47.9895C345.05 47.4421 345.267 46.9171 345.654 46.53C346.041 46.1429 346.566 45.9254 347.114 45.9254H376.527C377.074 45.9254 377.599 46.1429 377.986 46.53C378.373 46.9171 378.591 47.4421 378.591 47.9895C378.591 48.5369 378.373 49.0619 377.986 49.449C377.599 49.8361 377.074 50.0535 376.527 50.0535Z" fill="#A5A9B2"/>
<path d="M76.8929 201.19C76.1379 201.116 75.4083 200.878 74.7555 200.491C74.1027 200.105 73.5426 199.58 73.1145 198.954C72.6865 198.327 72.401 197.615 72.2782 196.866C72.1553 196.118 72.1981 195.351 72.4035 194.621L59.1765 182.308L66.17 180.534L79.1765 191.084C80.3804 191.51 81.3861 192.363 82.003 193.481C82.62 194.6 82.8052 195.906 82.5237 197.151C82.2423 198.397 81.5136 199.496 80.4758 200.241C79.438 200.985 78.1631 201.323 76.8929 201.19Z" fill="#FFB8B8"/>
<path d="M95.1572 292.196H101.484L104.493 267.794H95.1561L95.1572 292.196Z" fill="#FFB8B8"/>
<path d="M113.684 298.069L93.8018 298.07L93.8015 290.388L106.002 290.388C108.039 290.388 109.993 291.197 111.434 292.637C112.875 294.078 113.684 296.032 113.684 298.069L113.684 298.069Z" fill="#41454C"/>
<path d="M51.7814 287.628L57.8951 289.255L67.0807 266.45L58.0582 264.048L51.7814 287.628Z" fill="#FFB8B8"/>
<path d="M68.1742 298.071L48.9608 292.957L50.9367 285.534L62.7268 288.672C64.6956 289.196 66.3755 290.481 67.3971 292.243C68.4187 294.006 68.6982 296.102 68.1742 298.071Z" fill="#41454C"/>
<path d="M103.185 287.576H93.5315C92.9218 287.578 92.3333 287.352 91.882 286.942C91.4306 286.532 91.1491 285.968 91.0928 285.36L85.2327 224.506C85.1897 224.059 84.993 223.642 84.6761 223.325C84.3593 223.007 83.942 222.81 83.4957 222.766C83.0493 222.723 82.6018 222.836 82.2295 223.086C81.8572 223.336 81.5834 223.707 81.4549 224.137L64.4401 281.002C64.2602 281.606 63.8538 282.118 63.3058 282.43C62.7578 282.742 62.1105 282.83 61.4988 282.677L52.5185 280.431C52.2051 280.353 51.9103 280.213 51.651 280.021C51.3917 279.828 51.1731 279.586 51.0078 279.308C50.8424 279.031 50.7336 278.723 50.6876 278.403C50.6416 278.084 50.6593 277.758 50.7397 277.445C50.8863 276.872 65.4001 220.153 65.5268 219.569C68.8153 195.333 72.7495 188.839 74.8631 185.35C75.0381 185.061 75.1988 184.796 75.3436 184.545C75.5247 184.231 76.64 181.116 77.3475 179.093C77.4394 178.764 77.5985 178.458 77.8148 178.194C78.0311 177.929 78.2998 177.712 78.6041 177.557C87.4851 173.015 97.8759 176.159 100.849 177.231C101.342 177.404 101.765 177.733 102.056 178.168C110.975 191.621 106.598 269.756 105.63 285.283C105.589 285.904 105.314 286.487 104.86 286.912C104.406 287.338 103.807 287.575 103.185 287.576Z" fill="#41454C"/>
<path d="M78.2732 133.434C85.2728 133.434 90.9471 127.76 90.9471 120.76C90.9471 113.761 85.2728 108.086 78.2732 108.086C71.2736 108.086 65.5993 113.761 65.5993 120.76C65.5993 127.76 71.2736 133.434 78.2732 133.434Z" fill="#FFB8B8"/>
<path d="M76.9304 181.554L76.8393 181.466C76.6685 181.301 59.7821 164.757 61.9674 149.46C62.9021 142.917 68.1959 138.737 77.2765 137.37C80.6124 136.874 84.0152 137.6 86.8592 139.412C89.7032 141.225 91.7974 144.003 92.7568 147.237L101.735 177.931L76.9304 181.554Z" fill="#A5A9B2"/>
<path d="M68.2876 193.321L56.255 181.364C55.4322 180.542 54.8349 179.522 54.5204 178.402C54.206 177.282 54.1849 176.1 54.4594 174.97L60.2845 151.275C60.459 150.565 60.7773 149.898 61.2198 149.316C61.6624 148.734 62.2196 148.249 62.8572 147.891C63.4947 147.533 64.1989 147.31 64.9262 147.235C65.6535 147.16 66.3885 147.236 67.0855 147.456C68.4142 147.884 69.5239 148.813 70.1797 150.045C70.8356 151.278 70.986 152.717 70.5991 154.058L64.4665 174.903L74.3835 185.552L68.2876 193.321Z" fill="#A5A9B2"/>
<path d="M132.826 152.515C132.508 153.204 132.043 153.814 131.463 154.304C130.884 154.793 130.204 155.149 129.472 155.348C128.739 155.546 127.973 155.581 127.225 155.451C126.478 155.321 125.768 155.028 125.146 154.594L109.083 162.92L109.793 155.847L124.033 147.034C124.832 146.037 125.968 145.368 127.227 145.154C128.486 144.939 129.78 145.193 130.864 145.869C131.948 146.545 132.747 147.594 133.108 148.819C133.47 150.044 133.37 151.359 132.826 152.515H132.826Z" fill="#FFB8B8"/>
<path d="M123.392 157.78L107.733 164.546C106.691 164.993 105.551 165.164 104.424 165.043C103.296 164.922 102.218 164.513 101.295 163.856L81.3822 149.588C80.7879 149.162 80.2873 148.619 79.9114 147.992C79.5355 147.365 79.2923 146.667 79.1969 145.943C79.1014 145.218 79.1557 144.481 79.3564 143.778C79.5572 143.075 79.9 142.421 80.3638 141.855C81.255 140.781 82.5296 140.095 83.9174 139.944C85.3053 139.793 86.6974 140.189 87.7989 141.046L104.873 154.484L118.444 149.234L123.392 157.78Z" fill="#A5A9B2"/>
<path d="M80.3744 124.822C81.938 122.862 84.859 122.757 87.0067 121.465C89.8199 119.772 90.983 115.99 90.0764 112.834C89.1699 109.678 86.4963 107.219 83.431 106.043C80.3656 104.867 76.9553 104.852 73.7216 105.421C68.9071 106.267 64.167 108.515 61.2307 112.423C58.2943 116.331 57.5471 122.055 60.2082 126.155C61.4313 128.04 63.3194 129.596 63.8077 131.789C64.4487 134.668 62.4292 137.445 60.2656 139.449C57.8008 141.733 54.9728 143.646 52.8134 146.221C50.6539 148.796 49.2138 152.313 50.1992 155.526C51.0249 158.218 53.4274 160.201 56.0619 161.194C58.6964 162.187 61.5658 162.331 64.3807 162.386C67.1142 162.439 70.0175 162.373 72.3201 160.899C74.7852 159.321 76.1014 156.328 76.1987 153.403C76.2959 150.477 75.3184 147.612 74.0084 144.994C73.2275 143.434 72.3196 141.923 71.8007 140.257C71.2819 138.592 71.192 136.702 72.0229 135.168C72.8964 133.555 74.6634 132.583 76.4628 132.23C76.5563 132.211 76.6552 132.195 76.7586 132.18C77.2706 132.114 77.7638 131.944 78.2083 131.682C78.6529 131.419 79.0396 131.069 79.3451 130.653C79.6506 130.237 79.8685 129.763 79.9857 129.261C80.1028 128.758 80.1168 128.236 80.0267 127.728C79.8217 126.585 79.8394 125.492 80.3744 124.822Z" fill="#41454C"/>
<path d="M249.356 292.736H243.029L240.02 268.334L249.357 268.335L249.356 292.736Z" fill="#A0616A"/>
<path d="M238.511 290.928H250.711V298.61H230.829C230.829 297.601 231.027 296.602 231.413 295.67C231.8 294.738 232.365 293.892 233.079 293.178C233.792 292.465 234.639 291.899 235.571 291.513C236.503 291.127 237.502 290.928 238.511 290.928Z" fill="#41454C"/>
<path d="M295.258 285.57L289.504 288.198L276.627 267.253L285.12 263.374L295.258 285.57Z" fill="#A0616A"/>
<path d="M284.642 288.432L295.74 283.363L298.932 290.35L280.846 298.611C280.427 297.693 280.193 296.702 280.157 295.694C280.121 294.685 280.284 293.68 280.636 292.735C280.989 291.79 281.524 290.923 282.211 290.185C282.899 289.446 283.725 288.851 284.642 288.432Z" fill="#41454C"/>
<path d="M276.835 210.461C277.441 210.005 277.94 209.421 278.296 208.751C278.652 208.082 278.857 207.342 278.897 206.584C278.936 205.827 278.809 205.07 278.524 204.367C278.239 203.664 277.804 203.031 277.248 202.515L284.685 185.641L275.237 187.242L269.624 203.02C268.818 204.011 268.403 205.263 268.459 206.539C268.514 207.815 269.036 209.026 269.925 209.944C270.813 210.861 272.008 211.42 273.281 211.515C274.555 211.611 275.819 211.235 276.835 210.461Z" fill="#A0616A"/>
<path d="M248.952 286.302H242.909C242.323 286.3 241.759 286.077 241.33 285.678C240.901 285.279 240.637 284.733 240.593 284.148L237.297 196.137C237.273 195.8 237.322 195.461 237.442 195.145C237.562 194.829 237.75 194.543 237.992 194.307C238.234 194.071 238.524 193.89 238.843 193.778C239.162 193.666 239.502 193.625 239.839 193.658L274.791 197.37C275.357 197.425 275.884 197.687 276.27 198.105C276.657 198.523 276.876 199.068 276.887 199.637L277.62 238.46C277.623 238.67 277.664 238.879 277.74 239.075L292.078 276.256C292.189 276.543 292.241 276.849 292.232 277.157C292.224 277.465 292.154 277.768 292.027 278.048C291.9 278.329 291.719 278.581 291.493 278.791C291.268 279.001 291.003 279.163 290.714 279.27L284.59 281.526C284.058 281.722 283.473 281.717 282.944 281.511C282.416 281.305 281.981 280.914 281.722 280.41L264.109 246.162C264.013 245.976 263.943 245.778 263.9 245.572L260.892 231.076C260.804 230.655 260.57 230.28 260.231 230.016C259.892 229.753 259.47 229.619 259.042 229.639C258.613 229.658 258.205 229.829 257.891 230.122C257.577 230.415 257.378 230.81 257.329 231.237L251.26 284.244C251.195 284.81 250.924 285.333 250.498 285.713C250.073 286.092 249.523 286.302 248.952 286.302Z" fill="#41454C"/>
<path d="M251.962 127.321C258.961 127.321 264.636 121.647 264.636 114.647C264.636 107.648 258.961 101.974 251.962 101.974C244.962 101.974 239.288 107.648 239.288 114.647C239.288 121.647 244.962 127.321 251.962 127.321Z" fill="#A0616A"/>
<path d="M260.653 204.185C252.059 204.09 243.669 201.549 236.466 196.858L236.343 196.773L236.356 196.624L241.204 140.163C241.371 138.248 242.226 136.457 243.611 135.124C244.996 133.79 246.817 133.002 248.737 132.907C255.02 132.618 263.459 132.982 267.977 136.347C274.804 141.432 278.095 149.09 277.005 157.355C274.745 174.497 277.305 197.62 277.605 200.2L277.626 200.386L277.456 200.464C272.193 202.913 266.458 204.182 260.653 204.185Z" fill="#C8A704"/>
<path d="M277.546 200.296C277.189 200.295 276.836 200.22 276.509 200.076C276.182 199.932 275.888 199.722 275.647 199.459L272.874 196.434C272.575 196.105 272.365 195.705 272.265 195.272C272.165 194.838 272.177 194.387 272.302 193.96L278.624 172.564L269.005 152.365C268.556 151.42 268.446 150.348 268.694 149.331C268.912 148.438 269.396 147.633 270.081 147.021C270.767 146.408 271.622 146.018 272.533 145.902C273.445 145.785 274.37 145.948 275.188 146.368C276.005 146.788 276.676 147.447 277.112 148.256L290.164 169.434C290.694 170.293 291.005 171.27 291.07 172.277C291.135 173.285 290.951 174.293 290.536 175.213L279.901 198.777C279.725 199.166 279.456 199.506 279.117 199.765C278.777 200.025 278.379 200.196 277.957 200.263C277.821 200.284 277.684 200.295 277.546 200.296Z" fill="#C8A704"/>
<path d="M188.212 159.425C188.821 159.877 189.522 160.191 190.265 160.344C191.008 160.496 191.775 160.484 192.513 160.308C193.251 160.132 193.941 159.797 194.535 159.325C195.13 158.853 195.613 158.257 195.952 157.578L214.238 159.95L210.036 151.339L193.315 150.407C192.137 149.913 190.819 149.869 189.61 150.282C188.402 150.695 187.387 151.538 186.758 152.649C186.129 153.761 185.93 155.064 186.198 156.313C186.466 157.562 187.183 158.669 188.212 159.425V159.425Z" fill="#A0616A"/>
<path d="M228.519 164.128C228.201 164.128 227.883 164.106 227.567 164.062L198.799 160.072C198.329 160.007 197.882 159.827 197.499 159.546C197.116 159.266 196.809 158.895 196.606 158.466C196.54 158.328 196.485 158.185 196.441 158.039H196.441C196.33 157.658 196.299 157.258 196.35 156.864C196.401 156.47 196.533 156.092 196.738 155.752L199.119 151.805C199.375 151.383 199.735 151.034 200.165 150.791C200.594 150.549 201.079 150.42 201.573 150.419H201.577L226.653 150.447L245.381 133.668C246.253 132.889 247.365 132.434 248.533 132.378C249.558 132.331 250.573 132.595 251.445 133.136C252.316 133.678 253.003 134.47 253.415 135.41C253.827 136.35 253.945 137.392 253.752 138.4C253.56 139.408 253.066 140.334 252.337 141.055L233.649 161.84C233.003 162.56 232.212 163.135 231.328 163.53C230.444 163.924 229.487 164.128 228.519 164.128Z" fill="#C8A704"/>
<path d="M253.403 125.922C254.561 123.242 255.541 119.672 253.319 117.777C252.031 116.678 250.175 116.675 248.487 116.539C243.73 116.153 238.834 113.965 236.51 109.798C234.185 105.63 235.483 99.4338 239.869 97.5536C242.825 96.2863 246.215 97.1496 249.309 98.0272L258.6 100.662C261.361 101.445 264.26 102.308 266.247 104.378C269.417 107.679 269.18 113.259 266.662 117.081C264.145 120.903 260.353 124.889 256.013 126.34L253.403 125.922Z" fill="#41454C"/>
<path d="M381.588 298.778H0.616194C0.535359 298.778 0.455274 298.763 0.380524 298.732C0.305774 298.701 0.237835 298.656 0.180593 298.599C0.123351 298.542 0.0779322 298.474 0.0469435 298.399C0.0159548 298.325 0 298.245 0 298.164C0 298.083 0.0159548 298.003 0.0469435 297.928C0.0779322 297.854 0.123351 297.786 0.180593 297.729C0.237835 297.672 0.305774 297.626 0.380524 297.596C0.455274 297.565 0.535359 297.549 0.616194 297.549H381.588C381.669 297.549 381.749 297.565 381.823 297.596C381.898 297.626 381.966 297.672 382.023 297.729C382.081 297.786 382.126 297.854 382.157 297.928C382.188 298.003 382.204 298.083 382.204 298.164C382.204 298.245 382.188 298.325 382.157 298.399C382.126 298.474 382.081 298.542 382.023 298.599C381.966 298.656 381.898 298.701 381.823 298.732C381.749 298.763 381.669 298.778 381.588 298.778Z" fill="#6F7683"/>
</svg>
