<svg width="48" height="48" viewBox="0 0 48 48" fill="black" xmlns="http://www.w3.org/2000/svg">
<path d="M15.3126 25.8814V21.3407L33.6921 14.3132V13.6645L15.3126 6.63685V2.09611L38.0168 11.232V16.7458L15.3126 25.8814ZM10.6776 48C9.60003 48 8.68573 47.6245 7.93472 46.8734C7.21635 46.155 6.85712 45.2407 6.85712 44.1305V28.3102C6.85712 26.6776 5.97555 25.8613 4.2123 25.8613H0V22.1387H4.2123C5.97555 22.1387 6.85712 21.3224 6.85712 19.6898V3.86948C6.85712 2.75928 7.21635 1.84497 7.93472 1.12656C8.68573 0.375558 9.60003 0 10.6776 0H18.3183V3.37967H11.951C11.0694 3.37967 10.6286 3.8694 10.6286 4.84898V19.7388C10.6286 20.9143 10.3021 21.8613 9.649 22.5795C9.0286 23.2979 8.14697 23.6571 7.00412 23.6571H6.66124V24.3428H7.00412C8.14697 24.3428 9.0286 24.7021 9.649 25.4205C10.3021 26.1388 10.6286 27.0858 10.6286 28.2612V43.1509C10.6286 44.1305 11.0694 44.6202 11.951 44.6202H18.3183V48H10.6776ZM14.5364 48V0.000239693H32.2964C35.1306 0.000239693 37.6677 0.54889 39.9077 1.64609C42.1934 2.69748 43.9991 4.22888 45.3248 6.24028C46.6506 8.25174 47.3134 10.6974 47.3134 13.5774V14.4003C47.3134 17.2802 46.6277 19.7489 45.2563 21.806C43.9306 23.8175 42.1249 25.3488 39.8392 26.4002C37.5992 27.4516 35.0849 27.9773 32.2964 27.9773H18.9249V48H14.5364ZM18.9249 24.0003H31.8163C35.2449 24.0003 37.942 23.1545 39.9077 21.463C41.9192 19.7717 42.9249 17.3946 42.9249 14.3317V13.6461C42.9249 10.5375 41.942 8.16025 39.9763 6.51449C38.0563 4.82307 35.3363 3.97734 31.8163 3.97734H18.9249V24.0003Z"/>
</svg>
