<svg width="222" height="48" viewBox="0 0 222 48" fill="#000" xmlns="http://www.w3.org/2000/svg">
<path fill-rule="evenodd" clip-rule="evenodd" d="M19.9875 24.0003H31.8163C35.2449 24.0003 37.9419 23.1545 39.9076 21.463C41.919 19.7717 42.9248 17.3946 42.9248 14.3316V13.646C42.9248 10.5374 41.9419 8.16023 39.9762 6.51448C38.0562 4.82306 35.3363 3.97736 31.8163 3.97736H19.9879L38.0167 11.2319V16.7458L19.9875 24.0003ZM18.3183 0H10.6775C9.59994 0 8.68569 0.375484 7.93467 1.12647C7.2163 1.84489 6.85714 2.75919 6.85714 3.86939V19.6898C6.85714 21.3224 5.97547 22.1387 4.21222 22.1387H0V25.8613H4.21222C5.97547 25.8613 6.85714 26.6776 6.85714 28.3102V44.1305C6.85714 45.2407 7.2163 46.155 7.93467 46.8734C8.68569 47.6245 9.59994 48 10.6775 48H14.5363H18.3183H18.9249V27.9773H32.2963C35.0848 27.9773 37.5991 27.4516 39.8391 26.4002C42.1248 25.3488 43.9305 23.8174 45.2562 21.806C46.6277 19.7488 47.3134 17.2803 47.3134 14.4003V13.5774C47.3134 10.6974 46.6505 8.25168 45.3248 6.24022C43.9991 4.22882 42.1933 2.69742 39.9076 1.64604C37.6676 0.548832 35.1306 0.00021097 32.2963 0.00021097L18.3183 0ZM14.5363 3.37957H11.951C11.0694 3.37957 10.6285 3.8694 10.6285 4.84898V19.7388C10.6285 20.9143 10.302 21.8612 9.6489 22.5794C9.02849 23.2979 8.14694 23.6571 7.00408 23.6571H6.66115V24.3428H7.00408C8.14694 24.3428 9.02849 24.702 9.6489 25.4205C10.302 26.1388 10.6285 27.0857 10.6285 28.2611V43.1509C10.6285 44.1304 11.0694 44.6202 11.951 44.6202H14.5363V3.37957ZM18.9249 8.01806L33.6922 13.6645V14.3132L18.9249 19.9594V8.01806Z" />
<path d="M62.5618 30.951V12.8281H70.2122C71.7397 12.8281 72.9522 13.1086 73.8497 13.6696C74.7472 14.2219 75.3902 14.9339 75.7785 15.8055C76.1668 16.6685 76.361 17.5703 76.361 18.511C76.361 19.1668 76.2445 19.8313 76.0115 20.5045C75.7871 21.169 75.429 21.7817 74.9371 22.3426C74.4538 22.895 73.8195 23.3437 73.0342 23.6889C72.2575 24.0255 71.3168 24.1937 70.2122 24.1937H65.9145V30.951H62.5618ZM65.9145 21.0352H70.3675C70.9889 21.0352 71.4851 20.91 71.8562 20.6598C72.2359 20.4009 72.5078 20.0773 72.6717 19.6889C72.8357 19.3006 72.9177 18.9079 72.9177 18.511C72.9177 18.1485 72.84 17.7731 72.6847 17.3847C72.538 16.9877 72.2791 16.6555 71.908 16.388C71.5369 16.1204 71.0234 15.9867 70.3675 15.9867H65.9145V21.0352Z" />
<path d="M78.9674 30.9515V17.7218H82.2036V19.1457C82.4452 18.6366 82.8249 18.2223 83.3427 17.903C83.8605 17.5751 84.4042 17.4111 84.9738 17.4111C85.9144 17.4111 86.7084 17.7347 87.3556 18.382L86.9026 21.3464C86.5488 21.053 86.2036 20.8458 85.867 20.725C85.5304 20.6042 85.1593 20.5437 84.7537 20.5437C84.2187 20.5437 83.7613 20.6689 83.3816 20.9192C83.0019 21.1694 82.7084 21.5319 82.5013 22.0065C82.3028 22.4812 82.2036 23.0508 82.2036 23.7153V30.9515H78.9674Z" />
<path d="M94.4137 31.2621C92.5497 31.2621 91.0783 30.6451 89.9995 29.411C88.9208 28.1769 88.3814 26.4898 88.3814 24.3496C88.3814 22.9343 88.6274 21.7088 89.1193 20.6732C89.6112 19.629 90.3059 18.8265 91.2034 18.2655C92.1095 17.6959 93.1796 17.4111 94.4137 17.4111C95.6392 17.4111 96.7006 17.6916 97.5982 18.2526C98.4957 18.8135 99.186 19.6117 99.6693 20.6473C100.153 21.6829 100.394 22.9127 100.394 24.3366C100.394 25.7692 100.153 27.0033 99.6693 28.0389C99.1947 29.0745 98.5086 29.8727 97.6111 30.4337C96.7136 30.986 95.6478 31.2621 94.4137 31.2621ZM94.4137 28.1683C95.2853 28.1683 95.9628 27.8318 96.4461 27.1586C96.9293 26.4855 97.171 25.5448 97.171 24.3366C97.171 23.1285 96.925 22.1878 96.4331 21.5147C95.9498 20.8329 95.2767 20.492 94.4137 20.492C93.5421 20.492 92.8603 20.8329 92.3684 21.5147C91.8765 22.1964 91.6306 23.1414 91.6306 24.3496C91.6306 25.5405 91.8765 26.4769 92.3684 27.1586C92.8603 27.8318 93.5421 28.1683 94.4137 28.1683Z"  />
<path d="M107.912 36.466L106.126 33.7606C107.386 33.6656 108.361 33.5231 109.051 33.3333C109.75 33.1434 110.238 32.8716 110.514 32.5178C110.79 32.1639 110.928 31.7022 110.928 31.1327V30.1748C110.255 30.8997 109.306 31.2621 108.08 31.2621C106.933 31.2621 105.945 30.986 105.116 30.4337C104.288 29.8727 103.649 29.0745 103.2 28.0389C102.76 26.9947 102.54 25.7563 102.54 24.3237C102.54 22.9256 102.769 21.7088 103.226 20.6732C103.692 19.6376 104.339 18.8351 105.168 18.2655C106.005 17.6959 106.984 17.4111 108.106 17.4111C108.693 17.4111 109.228 17.5017 109.711 17.683C110.203 17.8642 110.609 18.1274 110.928 18.4726V17.7218H114.152V29.7605C114.152 30.9342 114.044 31.9266 113.828 32.7378C113.612 33.5491 113.258 34.2136 112.766 34.7314C112.283 35.2492 111.645 35.6418 110.851 35.9093C110.057 36.1855 109.077 36.3711 107.912 36.466ZM108.611 28.1683C109.069 28.1683 109.496 28.0647 109.893 27.8576C110.298 27.6419 110.644 27.3528 110.928 26.9904V21.657C110.687 21.3205 110.354 21.0443 109.932 20.8285C109.509 20.6042 109.082 20.492 108.65 20.492C107.718 20.492 107.006 20.8199 106.514 21.4758C106.031 22.123 105.789 23.0724 105.789 24.3237C105.789 25.1349 105.897 25.8296 106.113 26.4078C106.337 26.9774 106.661 27.4132 107.084 27.7152C107.507 28.0173 108.016 28.1683 108.611 28.1683Z" />
<path d="M118.004 30.9515V17.7218H121.24V19.1457C121.482 18.6366 121.862 18.2223 122.38 17.903C122.897 17.5751 123.441 17.4111 124.011 17.4111C124.951 17.4111 125.745 17.7347 126.392 18.382L125.939 21.3464C125.586 21.053 125.24 20.8458 124.904 20.725C124.567 20.6042 124.196 20.5437 123.791 20.5437C123.255 20.5437 122.798 20.6689 122.418 20.9192C122.039 21.1694 121.745 21.5319 121.538 22.0065C121.34 22.4812 121.24 23.0508 121.24 23.7153V30.9515H118.004Z" />
<path d="M132.533 31.2621C131.091 31.2621 129.948 30.8737 129.102 30.0971C128.265 29.3117 127.846 28.2503 127.846 26.9127C127.846 26.0497 128.062 25.2945 128.494 24.6473C128.934 23.9914 129.542 23.4866 130.319 23.1328C131.104 22.7703 132.019 22.5891 133.063 22.5891C133.641 22.5891 134.198 22.6452 134.733 22.7573C135.277 22.8609 135.751 23.0119 136.157 23.2104V22.3819C136.157 21.6398 135.946 21.0832 135.523 20.7121C135.109 20.3324 134.496 20.1425 133.685 20.1425C133.037 20.1425 132.373 20.259 131.691 20.492C131.009 20.725 130.319 21.0702 129.62 21.5276L128.649 18.9775C129.408 18.4769 130.254 18.0929 131.186 17.8253C132.118 17.5492 133.059 17.4111 134.008 17.4111C135.786 17.4111 137.115 17.834 137.995 18.6797C138.876 19.5168 139.316 20.7682 139.316 22.4338V30.9515H136.157V29.89C135.708 30.3387 135.173 30.6796 134.552 30.9126C133.939 31.1456 133.266 31.2621 132.533 31.2621ZM133.283 28.5307C133.818 28.5307 134.332 28.4271 134.824 28.22C135.324 28.0043 135.769 27.7023 136.157 27.3139V25.7476C135.786 25.5664 135.372 25.4283 134.914 25.3334C134.466 25.2298 134.017 25.1781 133.568 25.1781C132.766 25.1781 132.131 25.3334 131.665 25.644C131.208 25.9461 130.979 26.369 130.979 26.9127C130.979 27.4218 131.182 27.8188 131.588 28.1036C131.993 28.3883 132.558 28.5307 133.283 28.5307Z" />
<path d="M142.984 30.9515V17.7218H146.22V18.9516C146.643 18.4165 147.118 18.0282 147.644 17.7865C148.179 17.5363 148.783 17.4111 149.456 17.4111C150.242 17.4111 150.915 17.5708 151.476 17.8901C152.037 18.2094 152.472 18.6754 152.783 19.2881C153.223 18.684 153.788 18.2223 154.479 17.903C155.169 17.5751 155.95 17.4111 156.822 17.4111C158.444 17.4111 159.67 17.847 160.498 18.7186C161.327 19.5902 161.741 20.8847 161.741 22.602V30.9515H158.518V23.7153C158.518 22.6107 158.336 21.7994 157.974 21.2816C157.611 20.7552 157.051 20.492 156.291 20.492C155.773 20.492 155.342 20.6085 154.997 20.8415C154.66 21.0745 154.405 21.4283 154.233 21.903C154.06 22.369 153.974 22.9602 153.974 23.6764V30.9515H150.751V23.7153C150.751 22.602 150.574 21.7865 150.22 21.2687C149.866 20.7509 149.305 20.492 148.537 20.492C147.752 20.492 147.169 20.7466 146.79 21.2558C146.41 21.7649 146.22 22.5546 146.22 23.6247V30.9515H142.984Z" />
<path d="M171.087 31.2621C169.819 31.2621 168.723 30.9773 167.799 30.4078C166.884 29.8382 166.177 29.0356 165.676 28.0001C165.184 26.9558 164.938 25.7304 164.938 24.3237C164.938 22.8998 165.189 21.67 165.689 20.6344C166.198 19.5988 166.91 18.8049 167.825 18.2526C168.748 17.6916 169.836 17.4111 171.087 17.4111C172.157 17.4111 173.128 17.6355 174 18.0843C174.871 18.533 175.566 19.2234 176.084 20.1555C176.602 21.0789 176.861 22.2568 176.861 23.6894C176.861 23.9138 176.852 24.1899 176.835 24.5179C176.826 24.8372 176.804 25.1608 176.77 25.4887H168.136C168.17 26.0928 168.308 26.6236 168.55 27.081C168.8 27.5297 169.141 27.8792 169.572 28.1295C170.004 28.3798 170.513 28.5049 171.1 28.5049C171.73 28.5049 172.278 28.4014 172.744 28.1942C173.21 27.9784 173.65 27.6375 174.064 27.1715L175.928 29.1003C175.359 29.7475 174.673 30.2697 173.87 30.6667C173.068 31.0637 172.14 31.2621 171.087 31.2621H171.087ZM168.149 22.9645H173.728C173.685 22.3863 173.555 21.89 173.34 21.4758C173.124 21.0529 172.822 20.7293 172.433 20.505C172.045 20.2806 171.575 20.1684 171.022 20.1684C170.263 20.1684 169.616 20.4014 169.081 20.8674C168.546 21.3334 168.235 22.0325 168.149 22.9645Z" />
<path d="M180.075 30.9512V17.7215H183.311V30.9512H180.075ZM181.693 16.0646C181.175 16.0646 180.726 15.8791 180.346 15.508C179.975 15.1283 179.79 14.6795 179.79 14.1617C179.79 13.6439 179.975 13.2038 180.346 12.8413C180.718 12.4702 181.166 12.2847 181.693 12.2847C182.236 12.2847 182.689 12.4659 183.052 12.8284C183.414 13.1908 183.596 13.6353 183.596 14.1617C183.596 14.6881 183.41 15.1369 183.039 15.508C182.677 15.8791 182.228 16.0646 181.693 16.0646Z" />
<path d="M187.381 30.9515V17.7218H190.617V19.1457C190.859 18.6366 191.238 18.2223 191.756 17.903C192.274 17.5751 192.818 17.4111 193.387 17.4111C194.328 17.4111 195.122 17.7347 195.769 18.382L195.316 21.3464C194.962 21.053 194.617 20.8458 194.28 20.725C193.944 20.6042 193.573 20.5437 193.167 20.5437C192.632 20.5437 192.175 20.6689 191.795 20.9192C191.415 21.1694 191.122 21.5319 190.915 22.0065C190.716 22.4812 190.617 23.0508 190.617 23.7153V30.9515H187.381Z" />
<path d="M202.827 31.2621C200.963 31.2621 199.492 30.6451 198.413 29.411C197.334 28.1769 196.795 26.4898 196.795 24.3496C196.795 22.9343 197.041 21.7088 197.533 20.6732C198.025 19.629 198.719 18.8265 199.617 18.2655C200.523 17.6959 201.593 17.4111 202.827 17.4111C204.053 17.4111 205.114 17.6916 206.012 18.2526C206.909 18.8135 207.599 19.6117 208.083 20.6473C208.566 21.6829 208.808 22.9127 208.808 24.3366C208.808 25.7692 208.566 27.0033 208.083 28.0389C207.608 29.0745 206.922 29.8727 206.025 30.4337C205.127 30.986 204.061 31.2621 202.827 31.2621ZM202.827 28.1683C203.699 28.1683 204.376 27.8318 204.859 27.1586C205.343 26.4855 205.584 25.5448 205.584 24.3366C205.584 23.1285 205.338 22.1878 204.847 21.5147C204.363 20.8329 203.69 20.492 202.827 20.492C201.956 20.492 201.274 20.8329 200.782 21.5147C200.29 22.1964 200.044 23.1414 200.044 24.3496C200.044 25.5405 200.29 26.4769 200.782 27.1586C201.274 27.8318 201.956 28.1683 202.827 28.1683Z" />
<path d="M216.229 31.2621C215.193 31.2621 214.201 31.0421 213.251 30.602C212.311 30.1618 211.564 29.5707 211.012 28.8285L213.135 27.0421C213.575 27.5081 214.084 27.8792 214.662 28.1554C215.241 28.4229 215.793 28.5566 216.319 28.5566C216.975 28.5566 217.48 28.4488 217.834 28.233C218.188 28.0086 218.365 27.698 218.365 27.3011C218.365 27.0422 218.278 26.8135 218.106 26.6149C217.942 26.4078 217.648 26.2007 217.225 25.9936C216.803 25.7779 216.207 25.5319 215.439 25.2557C213.955 24.7121 212.902 24.1252 212.28 23.4952C211.659 22.8566 211.348 22.0497 211.348 21.0746C211.348 19.9872 211.789 19.1069 212.669 18.4338C213.549 17.752 214.697 17.4111 216.112 17.4111C217.079 17.4111 217.968 17.5924 218.779 17.9548C219.599 18.3173 220.302 18.848 220.889 19.547L218.779 21.2946C218.002 20.5092 217.096 20.1166 216.06 20.1166C215.534 20.1166 215.111 20.2159 214.792 20.4143C214.472 20.6042 214.313 20.8631 214.313 21.191C214.313 21.5103 214.498 21.7951 214.869 22.0454C215.249 22.2957 215.952 22.589 216.979 22.9256C217.998 23.2449 218.822 23.6074 219.452 24.013C220.091 24.4186 220.557 24.889 220.85 25.424C221.152 25.9591 221.303 26.5761 221.303 27.2752C221.303 28.5178 220.85 29.493 219.944 30.2007C219.046 30.9083 217.808 31.2621 216.229 31.2621Z" />
</svg>
