<svg viewBox="0 0 32 32" fill="#FFFFFF" xmlns="http://www.w3.org/2000/svg">
<path fill-rule="evenodd" clip-rule="evenodd" d="M14.5 4.75C9.11522 4.75 4.75 9.11522 4.75 14.5C4.75 19.8848 9.11522 24.25 14.5 24.25C19.8848 24.25 24.25 19.8848 24.25 14.5C24.25 9.11522 19.8848 4.75 14.5 4.75ZM3.25 14.5C3.25 8.2868 8.2868 3.25 14.5 3.25C20.7132 3.25 25.75 8.2868 25.75 14.5C25.75 20.7132 20.7132 25.75 14.5 25.75C8.2868 25.75 3.25 20.7132 3.25 14.5Z"/>
<path fill-rule="evenodd" clip-rule="evenodd" d="M21.3945 21.3955C21.6874 21.1026 22.1622 21.1026 22.4551 21.3955L28.5301 27.4705C28.823 27.7633 28.823 28.2382 28.5301 28.5311C28.2372 28.824 27.7624 28.824 27.4695 28.5311L21.3945 22.4561C21.1016 22.1632 21.1016 21.6883 21.3945 21.3955Z"/>
</svg>
