<svg width="218" height="48" viewBox="0 0 218 48" fill="none" xmlns="http://www.w3.org/2000/svg">
<path d="M15.3126 25.8814V21.3407L33.6921 14.3132V13.6645L15.3126 6.63685V2.09611L38.0168 11.232V16.7458L15.3126 25.8814ZM10.6776 48C9.60003 48 8.68573 47.6245 7.93472 46.8734C7.21635 46.155 6.85712 45.2407 6.85712 44.1305V28.3102C6.85712 26.6776 5.97555 25.8613 4.2123 25.8613H0V22.1387H4.2123C5.97555 22.1387 6.85712 21.3224 6.85712 19.6898V3.86948C6.85712 2.75928 7.21635 1.84497 7.93472 1.12655C8.68573 0.375558 9.60003 0 10.6776 0H18.3183V3.37966H11.951C11.0694 3.37966 10.6286 3.8694 10.6286 4.84898V19.7388C10.6286 20.9143 10.3021 21.8613 9.649 22.5795C9.02859 23.2979 8.14697 23.6571 7.00411 23.6571H6.66123V24.3428H7.00411C8.14697 24.3428 9.02859 24.7021 9.649 25.4205C10.3021 26.1388 10.6286 27.0857 10.6286 28.2612V43.1509C10.6286 44.1305 11.0694 44.6202 11.951 44.6202H18.3183V48H10.6776ZM14.5364 48V0.000239693H32.2963C35.1306 0.000239693 37.6677 0.54889 39.9077 1.64609C42.1934 2.69748 43.9991 4.22888 45.3248 6.24028C46.6506 8.25173 47.3134 10.6974 47.3134 13.5774V14.4002C47.3134 17.2802 46.6277 19.7489 45.2563 21.806C43.9306 23.8175 42.1249 25.3488 39.8392 26.4002C37.5992 27.4516 35.0849 27.9773 32.2963 27.9773H18.9249V48H14.5364ZM18.9249 24.0003H31.8163C35.2449 24.0003 37.942 23.1545 39.9077 21.463C41.9191 19.7717 42.9249 17.3946 42.9249 14.3317V13.6461C42.9249 10.5375 41.942 8.16025 39.9763 6.51448C38.0563 4.82307 35.3363 3.97734 31.8163 3.97734H18.9249V24.0003Z" fill="#0466C8"/>
<path d="M59.1723 30.5764V12.4536H66.8227C68.3502 12.4536 69.5627 12.7341 70.4602 13.295C71.3577 13.8474 72.0006 14.5594 72.389 15.431C72.7773 16.294 72.9715 17.1958 72.9715 18.1364C72.9715 18.7923 72.855 19.4568 72.622 20.1299C72.3976 20.7944 72.0395 21.4072 71.5475 21.9681C71.0643 22.5204 70.43 22.9692 69.6446 23.3144C68.868 23.6509 67.9273 23.8192 66.8227 23.8192H62.525V30.5764H59.1723ZM62.525 20.6607H66.978C67.5994 20.6607 68.0956 20.5355 68.4667 20.2853C68.8464 20.0264 69.1182 19.7028 69.2822 19.3144C69.4462 18.9261 69.5281 18.5334 69.5281 18.1364C69.5281 17.774 69.4505 17.3986 69.2951 17.0102C69.1484 16.6132 68.8895 16.281 68.5184 16.0135C68.1474 15.7459 67.6339 15.6122 66.978 15.6122H62.525V20.6607Z" fill="white"/>
<path d="M75.5778 30.5764V17.3468H78.814V18.7707C79.0557 18.2616 79.4354 17.8473 79.9532 17.528C80.471 17.2001 81.0147 17.0361 81.5842 17.0361C82.5249 17.0361 83.3189 17.3597 83.9661 18.007L83.513 20.9714C83.1592 20.678 82.814 20.4708 82.4774 20.35C82.1409 20.2292 81.7698 20.1687 81.3642 20.1687C80.8291 20.1687 80.3717 20.2939 79.992 20.5442C79.6123 20.7944 79.3189 21.1569 79.1118 21.6315C78.9133 22.1062 78.814 22.6758 78.814 23.3403V30.5764H75.5778Z" fill="white"/>
<path d="M91.0243 30.8871C89.1602 30.8871 87.6888 30.2701 86.6101 29.036C85.5314 27.8019 84.992 26.1148 84.992 23.9746C84.992 22.5593 85.2379 21.3338 85.7299 20.2982C86.2218 19.254 86.9165 18.4515 87.814 17.8905C88.7201 17.3209 89.7902 17.0361 91.0243 17.0361C92.2497 17.0361 93.3112 17.3166 94.2087 17.8776C95.1062 18.4385 95.7966 19.2367 96.2799 20.2723C96.7632 21.3079 97.0048 22.5377 97.0048 23.9616C97.0048 25.3942 96.7632 26.6283 96.2799 27.6639C95.8052 28.6995 95.1192 29.4977 94.2217 30.0587C93.3242 30.6109 92.2584 30.8871 91.0243 30.8871ZM91.0243 27.7933C91.8959 27.7933 92.5734 27.4567 93.0566 26.7836C93.5399 26.1105 93.7816 25.1698 93.7816 23.9616C93.7816 22.7535 93.5356 21.8128 93.0437 21.1397C92.5604 20.4579 91.8873 20.117 91.0243 20.117C90.1527 20.117 89.4709 20.4579 88.979 21.1397C88.4871 21.8214 88.2411 22.7664 88.2411 23.9746C88.2411 25.1655 88.4871 26.1019 88.979 26.7836C89.4709 27.4567 90.1527 27.7933 91.0243 27.7933Z" fill="white"/>
<path d="M104.522 36.091L102.736 33.3855C103.996 33.2906 104.971 33.1481 105.662 32.9583C106.361 32.7684 106.848 32.4966 107.124 32.1428C107.401 31.7889 107.539 31.3272 107.539 30.7577V29.7998C106.865 30.5247 105.916 30.8871 104.691 30.8871C103.543 30.8871 102.555 30.611 101.726 30.0587C100.898 29.4977 100.259 28.6995 99.8106 27.6639C99.3704 26.6197 99.1504 25.3813 99.1504 23.9487C99.1504 22.5506 99.3791 21.3338 99.8364 20.2982C100.302 19.2626 100.95 18.4601 101.778 17.8905C102.615 17.3209 103.595 17.0361 104.717 17.0361C105.303 17.0361 105.839 17.1267 106.322 17.308C106.814 17.4892 107.219 17.7524 107.539 18.0976V17.3468H110.762V29.3855C110.762 30.5592 110.654 31.5516 110.438 32.3628C110.223 33.1741 109.869 33.8386 109.377 34.3564C108.894 34.8742 108.255 35.2668 107.461 35.5343C106.667 35.8105 105.688 35.996 104.522 36.091ZM105.222 27.7933C105.679 27.7933 106.106 27.6897 106.503 27.4826C106.909 27.2669 107.254 26.9778 107.539 26.6154V21.282C107.297 20.9455 106.965 20.6693 106.542 20.4535C106.119 20.2292 105.692 20.117 105.26 20.117C104.328 20.117 103.616 20.4449 103.124 21.1008C102.641 21.748 102.4 22.6973 102.4 23.9487C102.4 24.7599 102.507 25.4546 102.723 26.0328C102.948 26.6024 103.271 27.0382 103.694 27.3402C104.117 27.6423 104.626 27.7933 105.222 27.7933Z" fill="white"/>
<path d="M114.615 30.5764V17.3468H117.851V18.7707C118.092 18.2616 118.472 17.8473 118.99 17.528C119.508 17.2001 120.051 17.0361 120.621 17.0361C121.562 17.0361 122.356 17.3597 123.003 18.007L122.55 20.9714C122.196 20.678 121.851 20.4708 121.514 20.35C121.178 20.2292 120.807 20.1687 120.401 20.1687C119.866 20.1687 119.409 20.2939 119.029 20.5442C118.649 20.7944 118.356 21.1569 118.149 21.6315C117.95 22.1062 117.851 22.6758 117.851 23.3403V30.5764H114.615Z" fill="white"/>
<path d="M129.143 30.8871C127.702 30.8871 126.558 30.4987 125.712 29.7221C124.875 28.9367 124.457 27.8753 124.457 26.5377C124.457 25.6747 124.672 24.9195 125.104 24.2723C125.544 23.6164 126.153 23.1116 126.929 22.7578C127.715 22.3953 128.629 22.2141 129.674 22.2141C130.252 22.2141 130.808 22.2702 131.343 22.3823C131.887 22.4859 132.362 22.6369 132.767 22.8354V22.0069C132.767 21.2648 132.556 20.7082 132.133 20.3371C131.719 19.9574 131.106 19.7675 130.295 19.7675C129.648 19.7675 128.983 19.884 128.301 20.117C127.62 20.35 126.929 20.6952 126.23 21.1526L125.259 18.6025C126.019 18.1019 126.864 17.7179 127.797 17.4503C128.729 17.1742 129.669 17.0361 130.618 17.0361C132.396 17.0361 133.725 17.459 134.606 18.3047C135.486 19.1418 135.926 20.3932 135.926 22.0588V30.5764H132.767V29.515C132.319 29.9637 131.784 30.3046 131.162 30.5376C130.549 30.7706 129.876 30.8871 129.143 30.8871ZM129.894 28.1557C130.429 28.1557 130.942 28.0521 131.434 27.845C131.935 27.6293 132.379 27.3273 132.767 26.9389V25.3726C132.396 25.1914 131.982 25.0533 131.525 24.9584C131.076 24.8548 130.627 24.8031 130.178 24.8031C129.376 24.8031 128.741 24.9584 128.275 25.269C127.818 25.5711 127.589 25.994 127.589 26.5377C127.589 27.0468 127.792 27.4438 128.198 27.7286C128.603 28.0133 129.169 28.1557 129.894 28.1557Z" fill="white"/>
<path d="M139.594 30.5764V17.3468H142.83V18.5766C143.253 18.0415 143.728 17.6532 144.254 17.4115C144.789 17.1613 145.393 17.0361 146.067 17.0361C146.852 17.0361 147.525 17.1958 148.086 17.5151C148.647 17.8344 149.083 18.3004 149.393 18.9131C149.834 18.309 150.399 17.8473 151.089 17.528C151.78 17.2001 152.561 17.0361 153.432 17.0361C155.055 17.0361 156.28 17.472 157.109 18.3436C157.937 19.2152 158.351 20.5097 158.351 22.227V30.5764H155.128V23.3403C155.128 22.2357 154.947 21.4244 154.584 20.9066C154.222 20.3802 153.661 20.117 152.901 20.117C152.384 20.117 151.952 20.2335 151.607 20.4665C151.27 20.6995 151.016 21.0533 150.843 21.528C150.671 21.994 150.584 22.5852 150.584 23.3014V30.5764H147.361V23.3403C147.361 22.227 147.184 21.4115 146.83 20.8937C146.477 20.3759 145.916 20.117 145.148 20.117C144.362 20.117 143.78 20.3716 143.4 20.8808C143.02 21.3899 142.83 22.1796 142.83 23.2497V30.5764H139.594Z" fill="white"/>
<path d="M167.697 30.8871C166.429 30.8871 165.333 30.6023 164.409 30.0328C163.495 29.4632 162.787 28.6606 162.286 27.6251C161.795 26.5808 161.549 25.3554 161.549 23.9487C161.549 22.5247 161.799 21.2949 162.299 20.2594C162.809 19.2238 163.521 18.4299 164.435 17.8776C165.359 17.3166 166.446 17.0361 167.697 17.0361C168.768 17.0361 169.738 17.2605 170.61 17.7093C171.482 18.158 172.176 18.8484 172.694 19.7805C173.212 20.7039 173.471 21.8818 173.471 23.3144C173.471 23.5388 173.462 23.8149 173.445 24.1429C173.436 24.4622 173.415 24.7858 173.38 25.1137H164.746C164.78 25.7178 164.918 26.2486 165.16 26.706C165.41 27.1547 165.751 27.5042 166.183 27.7545C166.614 28.0048 167.123 28.1299 167.71 28.1299C168.34 28.1299 168.888 28.0264 169.354 27.8192C169.82 27.6034 170.26 27.2625 170.675 26.7965L172.539 28.7253C171.969 29.3725 171.283 29.8947 170.48 30.2917C169.678 30.6887 168.75 30.8871 167.697 30.8871H167.697ZM164.759 22.5895H170.338C170.295 22.0113 170.166 21.515 169.95 21.1008C169.734 20.6779 169.432 20.3543 169.044 20.13C168.655 19.9056 168.185 19.7934 167.633 19.7934C166.873 19.7934 166.226 20.0264 165.691 20.4924C165.156 20.9584 164.845 21.6574 164.759 22.5895Z" fill="white"/>
<path d="M176.685 30.5762V17.3465H179.921V30.5762H176.685ZM178.303 15.6896C177.785 15.6896 177.336 15.5041 176.957 15.133C176.586 14.7533 176.4 14.3045 176.4 13.7867C176.4 13.2689 176.586 12.8288 176.957 12.4663C177.328 12.0952 177.777 11.9097 178.303 11.9097C178.847 11.9097 179.3 12.0909 179.662 12.4534C180.025 12.8158 180.206 13.2603 180.206 13.7867C180.206 14.3131 180.02 14.7619 179.649 15.133C179.287 15.5041 178.838 15.6896 178.303 15.6896Z" fill="white"/>
<path d="M183.991 30.5764V17.3468H187.227V18.7707C187.469 18.2616 187.849 17.8473 188.366 17.528C188.884 17.2001 189.428 17.0361 189.997 17.0361C190.938 17.0361 191.732 17.3597 192.379 18.007L191.926 20.9714C191.572 20.678 191.227 20.4708 190.891 20.35C190.554 20.2292 190.183 20.1687 189.777 20.1687C189.242 20.1687 188.785 20.2939 188.405 20.5442C188.025 20.7944 187.732 21.1569 187.525 21.6315C187.326 22.1062 187.227 22.6758 187.227 23.3403V30.5764H183.991Z" fill="white"/>
<path d="M199.437 30.8871C197.573 30.8871 196.102 30.2701 195.023 29.036C193.945 27.8019 193.405 26.1148 193.405 23.9746C193.405 22.5593 193.651 21.3338 194.143 20.2982C194.635 19.254 195.33 18.4515 196.227 17.8905C197.133 17.3209 198.203 17.0361 199.437 17.0361C200.663 17.0361 201.724 17.3166 202.622 17.8776C203.519 18.4385 204.21 19.2367 204.693 20.2723C205.176 21.3079 205.418 22.5377 205.418 23.9616C205.418 25.3942 205.176 26.6283 204.693 27.6639C204.218 28.6995 203.532 29.4977 202.635 30.0587C201.737 30.6109 200.672 30.8871 199.437 30.8871ZM199.437 27.7933C200.309 27.7933 200.987 27.4567 201.47 26.7836C201.953 26.1105 202.195 25.1698 202.195 23.9616C202.195 22.7535 201.949 21.8128 201.457 21.1397C200.974 20.4579 200.3 20.117 199.437 20.117C198.566 20.117 197.884 20.4579 197.392 21.1397C196.9 21.8214 196.654 22.7664 196.654 23.9746C196.654 25.1655 196.9 26.1019 197.392 26.7836C197.884 27.4567 198.566 27.7933 199.437 27.7933Z" fill="white"/>
<path d="M212.839 30.8871C211.803 30.8871 210.811 30.6671 209.862 30.2269C208.921 29.7868 208.175 29.1956 207.622 28.4535L209.745 26.6671C210.185 27.1331 210.694 27.5042 211.273 27.7804C211.851 28.0479 212.403 28.1816 212.93 28.1816C213.585 28.1816 214.09 28.0737 214.444 27.858C214.798 27.6336 214.975 27.323 214.975 26.9261C214.975 26.6672 214.889 26.4385 214.716 26.2399C214.552 26.0328 214.259 25.8257 213.836 25.6186C213.413 25.4028 212.817 25.1569 212.049 24.8807C210.565 24.337 209.512 23.7502 208.891 23.1202C208.269 22.4816 207.959 21.6747 207.959 20.6995C207.959 19.6122 208.399 18.7319 209.279 18.0588C210.159 17.377 211.307 17.0361 212.722 17.0361C213.689 17.0361 214.578 17.2174 215.389 17.5798C216.209 17.9423 216.912 18.473 217.499 19.172L215.389 20.9196C214.612 20.1342 213.706 19.7416 212.671 19.7416C212.144 19.7416 211.721 19.8409 211.402 20.0393C211.083 20.2292 210.923 20.4881 210.923 20.816C210.923 21.1353 211.109 21.4201 211.48 21.6704C211.859 21.9207 212.563 22.214 213.59 22.5506C214.608 22.8699 215.432 23.2324 216.062 23.638C216.701 24.0436 217.167 24.514 217.46 25.049C217.762 25.5841 217.913 26.2011 217.913 26.9001C217.913 28.1428 217.46 29.118 216.554 29.8257C215.657 30.5333 214.418 30.8871 212.839 30.8871Z" fill="white"/>
</svg>
