<svg width="24" height="24" viewBox="0 0 24 24" fill="none" xmlns="http://www.w3.org/2000/svg">
<path fill-rule="evenodd" clip-rule="evenodd" d="M20.2246 2.88757C20.4463 2.80165 20.687 2.77753 20.9213 2.81778C21.1556 2.85804 21.3745 2.96115 21.5547 3.11612C21.735 3.27109 21.8697 3.47209 21.9447 3.69767C22.0196 3.92325 22.0318 4.16495 21.9801 4.39695L21.9794 4.4001L18.4544 19.7938C18.4034 20.0157 18.2956 20.2208 18.1416 20.3885C17.9876 20.5561 17.7926 20.6808 17.5758 20.7503C17.359 20.8198 17.1279 20.8317 16.9051 20.7849C16.6826 20.7381 16.476 20.6343 16.3056 20.4837C16.3055 20.4835 16.3058 20.4839 16.3056 20.4837L7.99138 13.1683L3.14224 12.1948L3.13992 12.1943C1.87595 11.935 1.68626 10.1677 2.91607 9.68535M2.91607 9.68535L20.2223 2.88847L20.2246 2.88757M20.6321 3.9362C20.6318 3.9363 20.6315 3.9364 20.6313 3.93651L3.32733 10.7325C3.27389 10.7534 3.24907 10.7812 3.23522 10.8055C3.21888 10.8341 3.20886 10.8743 3.21309 10.9203C3.21732 10.9663 3.23468 11.0056 3.25752 11.0328C3.2772 11.0563 3.30814 11.0802 3.36509 11.0921C3.36539 11.0921 3.36568 11.0922 3.36598 11.0923L8.36054 12.0949C8.45732 12.1143 8.54729 12.1589 8.6214 12.2241L17.0508 19.6409C17.0752 19.6624 17.1047 19.6773 17.1365 19.684C17.1683 19.6907 17.2014 19.689 17.2323 19.679C17.2633 19.6691 17.2912 19.6513 17.3132 19.6273C17.3352 19.6034 17.3506 19.5741 17.3578 19.5424L20.8821 4.15213C20.8821 4.15181 20.8822 4.15148 20.8823 4.15116C20.8894 4.11831 20.8876 4.08415 20.877 4.05223C20.8663 4.02001 20.847 3.99129 20.8213 3.96916C20.7955 3.94702 20.7643 3.93229 20.7308 3.92654C20.6976 3.92083 20.6635 3.92418 20.6321 3.9362Z" fill="#0F86D7"/>
<path fill-rule="evenodd" clip-rule="evenodd" d="M21.4654 3.10233C21.6473 3.35417 21.5906 3.70578 21.3388 3.88768L8.57939 13.1033C8.32755 13.2852 7.97594 13.2285 7.79404 12.9767C7.61215 12.7248 7.66885 12.3732 7.92069 12.1913L20.6801 2.97568C20.9319 2.79379 21.2835 2.85049 21.4654 3.10233Z" fill="#0F86D7"/>
<path fill-rule="evenodd" clip-rule="evenodd" d="M8.25 12.084C8.56066 12.084 8.8125 12.3358 8.8125 12.6465V18.749C8.81262 18.7861 8.82373 18.8223 8.84443 18.853C8.86518 18.8839 8.89464 18.9079 8.92905 18.9219C8.96347 18.936 9.00129 18.9395 9.03771 18.932C9.07413 18.9245 9.10751 18.9064 9.13359 18.8799L9.13662 18.8769L12.0616 15.9519C12.2813 15.7322 12.6375 15.7322 12.8571 15.9519C13.0768 16.1715 13.0768 16.5277 12.8571 16.7474L9.93344 19.671C9.75108 19.8555 9.51812 19.9819 9.26398 20.034C9.00904 20.0864 8.7443 20.0618 8.50339 19.9633C8.26248 19.8648 8.05629 19.6969 7.91101 19.481C7.76573 19.2651 7.68794 19.0108 7.6875 18.7505L7.6875 12.6465C7.6875 12.3358 7.93934 12.084 8.25 12.084Z" fill="#0F86D7"/>
</svg>
