<svg width="32" height="32" viewBox="0 0 32 32" fill="none" xmlns="http://www.w3.org/2000/svg">
<path fill-rule="evenodd" clip-rule="evenodd" d="M26.9664 3.85075C27.2619 3.73619 27.5829 3.70403 27.8953 3.7577C28.2076 3.81137 28.4995 3.94885 28.7399 4.15548C28.9802 4.3621 29.1599 4.6301 29.2598 4.93088C29.3596 5.23166 29.376 5.55391 29.307 5.86325L29.306 5.86745L24.606 26.3924C24.5381 26.6883 24.3943 26.9618 24.189 27.1853C23.9836 27.4088 23.7236 27.5751 23.4346 27.6677C23.1456 27.7604 22.8374 27.7763 22.5403 27.7139C22.2436 27.6515 21.9682 27.5131 21.7411 27.3122C21.7408 27.312 21.7413 27.3125 21.7411 27.3122L10.6554 17.5583L4.18985 16.2604L4.18676 16.2597C2.50148 15.914 2.24855 13.5576 3.8883 12.9144M3.8883 12.9144L26.9633 3.85195L26.9664 3.85075M27.5096 5.24892C27.5093 5.24906 27.5089 5.24919 27.5086 5.24933L4.43664 14.3106C4.36539 14.3386 4.3323 14.3756 4.31383 14.408C4.29204 14.4461 4.27868 14.4997 4.28432 14.561C4.28996 14.6224 4.31311 14.6747 4.34357 14.7111C4.36981 14.7424 4.41105 14.7743 4.48699 14.7901C4.48738 14.7902 4.48778 14.7903 4.48818 14.7903L11.1476 16.1272C11.2766 16.1531 11.3966 16.2125 11.4954 16.2995L22.7346 26.1885C22.7671 26.2172 22.8065 26.237 22.8489 26.2459C22.8913 26.2549 22.9354 26.2526 22.9767 26.2394C23.0179 26.2261 23.0551 26.2024 23.0844 26.1704C23.1138 26.1385 23.1343 26.0995 23.144 26.0572L27.8429 5.53683C27.843 5.53639 27.8431 5.53596 27.8432 5.53553C27.8528 5.49173 27.8503 5.44618 27.8362 5.40363C27.8219 5.36066 27.7963 5.32238 27.7619 5.29286C27.7276 5.26334 27.6859 5.2437 27.6413 5.23603C27.597 5.22843 27.5515 5.23289 27.5096 5.24892Z" fill="white"/>
<path fill-rule="evenodd" clip-rule="evenodd" d="M28.6206 4.13612C28.8631 4.4719 28.7875 4.94072 28.4517 5.18325L11.4392 17.4707C11.1034 17.7133 10.6346 17.6377 10.3921 17.3019C10.1495 16.9661 10.2251 16.4973 10.5609 16.2548L27.5734 3.96725C27.9092 3.72473 28.378 3.80033 28.6206 4.13612Z" fill="white"/>
<path fill-rule="evenodd" clip-rule="evenodd" d="M11 16.1123C11.4142 16.1123 11.75 16.4481 11.75 16.8623V24.999C11.7502 25.0484 11.765 25.0967 11.7926 25.1377C11.8202 25.1788 11.8595 25.2108 11.9054 25.2295C11.9513 25.2483 12.0017 25.253 12.0503 25.243C12.0988 25.2331 12.1433 25.2089 12.1781 25.1736L12.1822 25.1695L16.0822 21.2695C16.3751 20.9766 16.8499 20.9766 17.1428 21.2695C17.4357 21.5624 17.4357 22.0372 17.1428 22.3301L13.2446 26.2284C13.0014 26.4744 12.6908 26.6428 12.352 26.7124C12.0121 26.7822 11.6591 26.7493 11.3379 26.618C11.0166 26.4867 10.7417 26.2629 10.548 25.975C10.3543 25.6871 10.2506 25.3481 10.25 25.0011L10.25 16.8623C10.25 16.4481 10.5858 16.1123 11 16.1123Z" fill="white"/>
</svg>
