<svg width="28" height="28" viewBox="0 0 28 28" fill="none" xmlns="http://www.w3.org/2000/svg">
<path fill-rule="evenodd" clip-rule="evenodd" d="M23.5956 3.36937C23.8542 3.26913 24.1351 3.24099 24.4084 3.28795C24.6817 3.33491 24.9371 3.45521 25.1474 3.63601C25.3577 3.81681 25.5149 4.05131 25.6023 4.31449C25.6897 4.57767 25.704 4.85964 25.6437 5.13031L25.6428 5.13398L21.5303 23.0934C21.4709 23.3522 21.3451 23.5915 21.1654 23.7871C20.9857 23.9827 20.7582 24.1282 20.5053 24.2092C20.2524 24.2903 19.9827 24.3042 19.7228 24.2496C19.4632 24.195 19.2222 24.0739 19.0235 23.8982C19.0232 23.898 19.0237 23.8984 19.0235 23.8982L9.32349 15.3635L3.66615 14.2278L3.66345 14.2272C2.18882 13.9248 1.96751 11.8628 3.4023 11.3001M3.4023 11.3001L23.5929 3.37042L23.5956 3.36937M24.0709 4.59278C24.0706 4.59289 24.0703 4.59301 24.07 4.59313L3.88209 12.5218C3.81974 12.5462 3.79079 12.5786 3.77463 12.6069C3.75557 12.6403 3.74388 12.6872 3.74881 12.7409C3.75375 12.7945 3.774 12.8404 3.80065 12.8722C3.82361 12.8996 3.8597 12.9275 3.92615 12.9413C3.92649 12.9414 3.92684 12.9414 3.92719 12.9415L9.75417 14.1113C9.86708 14.1339 9.97204 14.1859 10.0585 14.262L19.8928 22.9149C19.9212 22.94 19.9557 22.9574 19.9928 22.9652C20.0299 22.973 20.0685 22.971 20.1046 22.9594C20.1407 22.9478 20.1732 22.927 20.1989 22.8991C20.2246 22.8712 20.2425 22.837 20.251 22.8L24.3626 4.84469C24.3627 4.84431 24.3628 4.84393 24.3629 4.84356C24.3712 4.80524 24.3691 4.76538 24.3567 4.72815C24.3442 4.69055 24.3218 4.65705 24.2917 4.63122C24.2617 4.60539 24.2252 4.58821 24.1861 4.5815C24.1474 4.57485 24.1076 4.57874 24.0709 4.59278Z" fill="#94C8FD"/>
<path fill-rule="evenodd" clip-rule="evenodd" d="M25.0429 3.61889C25.2551 3.9127 25.189 4.32292 24.8952 4.53513L10.0092 15.2867C9.71542 15.4989 9.30521 15.4327 9.093 15.1389C8.88079 14.8451 8.94694 14.4349 9.24075 14.2227L24.1267 3.47113C24.4205 3.25892 24.8307 3.32507 25.0429 3.61889Z" fill="#94C8FD"/>
<path fill-rule="evenodd" clip-rule="evenodd" d="M9.625 14.0984C9.98744 14.0984 10.2812 14.3922 10.2812 14.7547V21.8743C10.2814 21.9175 10.2944 21.9597 10.3185 21.9956C10.3427 22.0316 10.3771 22.0596 10.4172 22.076C10.4574 22.0924 10.5015 22.0965 10.544 22.0878C10.5865 22.0791 10.6254 22.0579 10.6559 22.027L10.6594 22.0234L14.0719 18.6109C14.3282 18.3547 14.7437 18.3547 15 18.6109C15.2563 18.8672 15.2563 19.2827 15 19.539L11.589 22.95C11.3763 23.1652 11.1045 23.3126 10.808 23.3735C10.5106 23.4345 10.2017 23.4058 9.92062 23.2909C9.63956 23.176 9.399 22.9802 9.22951 22.7283C9.06002 22.4763 8.96926 22.1797 8.96875 21.8761L8.96875 14.7547C8.96875 14.3922 9.26256 14.0984 9.625 14.0984Z" fill="#94C8FD"/>
</svg>
